<mxfile host="Electron" agent="Mozilla/5.0 (Windows NT 10.0; Win64; x64) AppleWebKit/537.36 (KHTML, like Gecko) draw.io/24.7.8 Chrome/128.0.6613.36 Electron/32.0.1 Safari/537.36" version="24.7.8">
  <diagram name="Page-1" id="cmEJrrozvIOf67XZEVS9">
    <mxGraphModel dx="727" dy="620" grid="1" gridSize="10" guides="1" tooltips="1" connect="1" arrows="1" fold="1" page="1" pageScale="1" pageWidth="1100" pageHeight="850" math="0" shadow="0">
      <root>
        <mxCell id="0" />
        <mxCell id="1" parent="0" />
        <mxCell id="ceOo4IykpOdK76RUaiW_-4" value="" style="rounded=0;whiteSpace=wrap;html=1;" vertex="1" parent="1">
          <mxGeometry x="180" y="140" width="340" height="330" as="geometry" />
        </mxCell>
        <mxCell id="ceOo4IykpOdK76RUaiW_-1" value="" style="shape=image;verticalLabelPosition=bottom;labelBackgroundColor=default;verticalAlign=top;aspect=fixed;imageAspect=0;image=data:image/png,iVBORw0KGgoAAAANSUhEUgAAAUEAAADuCAYAAACnM7W+AAAAAXNSR0IArs4c6QAAAARnQU1BAACxjwv8YQUAAAAJcEhZcwAAEnQAABJ0Ad5mH3gAANt5SURBVHhe7P1p8O3ZWdj37h7O6bml1oQkNCCJQUIChAAzBjOFmDjGuOx7MbFxUrHr2k7sSvIiSZlUKnEqrzKUXzip1HVVKuVyKnljl6kbX1duPGLiCRxjDAYzCZCEZrV67j7dp7vv+qz1/569zu7/aQnobp2WztP9nDU903rWs569fsPe/5sefPiRZw8b3Hv3XWe1G3ADbsANuL7hoUcePav91uHms/IG3IAbcAO+IOFGErwBN+AGfEHDjSR4A27ADfiChhtJ8AbcgBvwBQ03kuANuAE34AsabiTBG3ADbsAXNNxIgjfgBtyAL2i4kQRvwA24AV/QcCMJ3oAbcAO+oOFGErwBN+AGfEHDjSR4A27ADfiChhtJ8AbcgBvwBQ03kuANuAE34AsabiTBG3ADbsAXNNxIgjfg8wz8Mlx4A27AZ4YbSfDzFJ599tnDM888M1E9OK2HwXl914LkP/3001cQ4D3V+3yw64SXL1+eGKQHPL9Mep8eNGjRnYdXA3HPPIMvfH67dzvPo8vW0/Fr0d+Azz3c+FHVGzA3pwSmvHDhwlnvbw/a8DfddNMsg5JZ/TvdeX1gb7MzWng1rXp41ItHgkN78823bPw3Dzwjugac2vJbgWSA346cG/BceCF+VPVGEnyZwWfalE5Qxm6+2QY/0uCD+/gpzbVg38TBaV9yKq9l57X4gk5S+tkH4qm9w9V6nj08+eSlWY9/8aTjal0A+/EE+Mzh4sX1IUDubmsyd2h8p73llltmCU75b8ALDzeS4BcgvJAbq8u2NvgLuVGz8zyZ6U33DnsS+WwgOcHNN5N3VUgP0Lf0nKfzhQRzA9mUX19MnV/IcCMJfgHCvuHB822ukg3Y6fRDfaenwe7rBafyT09j553OAL27rbVvvfXWs56rwRibTk9SYW32oYHZ1jhwmlv3BI+wLnvXPI/zcym9akcdzw65az5od/k7NrbjDkvWEU7Hb8ALBzeS4BcgnG6wUzhvA+6bsPHzNu5TTz01LgcvnvU8P6AvmcJdrrbL7n08vHTp0iyjL4lKTuve3UrOymQAZeMSoGQKS+JQ/c477xjU7v3dPOgWjfuct956YfZ9tvN7oaF5NN8b8MLAjST4eQhXp7Dnh7M8ciWhgFvm5eDVYLwEIgk8+eSThyeeeOIKPvroo4eHH3748Pjjjx+efOrypEd7ins/eZIUTLZxMhrf+9WVkpJSMihBqUffKS8eUOLQZm8JL0RPzkyOF26+wtu9PoCHc1/72tdNngsXLh5uu+22kTTvGnjn4fbbb58y7rrrzkG76Eu2K4neeqU9ZSVzlrOY8PTwR3btkB/IuAEvHNxIgp+H8JtNgnDVVZ49XH7qyVm36SS7xx577PDII4/MROcU9slPfnL2SXpKfeighPb4E5emTEmkBNeJDKof9V0NkgI50e402VRik0wkIclHYjgdk0TwGJO4tY13ktvlo9d/6623HJ5+5qnZn2o2lZQ8GX7i8Sf0zn4nRQnuwuC9fdhC14ULK8mhN3bbsO/uu1aipOPiGd1to579aC7OJHzz6D9LxsMm/OSAZdNK/jfghYMbSfC3AAKxT3BQcNZ/XpAaAztfsPN+NnL3fqD/Kr6BTz/tKedKTC5RnxiJ6tI4AalLZk+OUv3yQCev+m4a3A8+8OmrEleJTJ0eSU8ChPrZgQaqX7h427BgXY7Sjx4dO21uetV3u5ufsiSZ7tp4YXRkkk9np6tsTP5OH9QH4pVswOXLTw37b70im6148Txz5tOPfOSjs31xzBMfGfD22++Yp8A77rh9JjwJjj1kgBLza17zmnHavDDlXhh9r3jFKw6333HHTIouxR3EJcY7Rl/zokdfCV8/+Wj0NZ9rgfnkl/OA/WD3E9v1X4vPGBrwfLKvd7iRBF9EKEjamIJXqX1ewNgsglXAnxdU+CSETjJoJRintAceeODw6U9/eiSzxw6Xn37mcGlsVsnNpR+asASkX51N0OYmR6J84vGrg4ItldAGxI+n+bHFfJ2Ubh6no6dHHzAX9hqjH18bMrmBdrYp2bX7UB3N7scSZAlGH0hWOvCGeIzBkotkgvby05dHcrk4fPPk/GDgE/Zcvvz09NeTTw7/3bROhHhvu+32Kd/c+AM4zd1++9UJMn1AO59A+rPjnrvvPrzqvldO/rvG6VGiMzf0JTx9zY8vjBsr8VbqUwZ08Q+e5wN0Qf4D2csPdJ4nx/jO83KAG0nwtwEFVXWbGwrYNuq1AL2Ngx4tnn2T7CDonLokOeX73//+uZE7qbDhCg7Whx4eyWz0z4Qm8Q069E8NRKP9+FkycglGt7q+pwb9vffcPU8jQfYoITvJqb95z405EuDYBgdeQed04/JvEM9ksifB5Gkr9UGy8cKdDoJKdJcHL7j1zN/GbFD1U3568OgLSyCShbFLl0bCG4nQ0+GnRsJ7bHyQuEd305Dl0hdcvHBxfsjM/pt8iNw6ebV92+TJkUAlwnQr2aJuvbTpY0+Jsz5J0O0Il8Ta+1zU4b333jvxVa961SwlRv0SqZItxRNeSfG1r33t4dWvfvWk1Y92T2L5ZvcffD5AK67yKbnhywluJMHfAlh4i/6ZPlEFPARoBZcAETzgNFjcX3N6w3P//fcfPvzhD8/7b04kdBZwArZgIwvPgw8+uJLkWNAnx6nl6ZEN0T09N/RVyzM2/Z1XAh6sDeAE6r7WwLEBS4JtjurQPE6BLHSS8M23jpPssI2POkHha6N4GRk9fHqcWpsXQOOSsLH68UksTmDkrfFlj/oO+Rn9+jDipzVf8lzGxoNOwnAv8KmnLo8k/fhIFBenHRLUY489Pj+stFfiuHWe0J544niqveXmlTSSf/Mty3na8UFr4STJfjrNO194ADNID3eNhHV59N0657rio3nmC3z4OxVCiY5d+l7/+tfPS+67JdSzuFl+uGnqlhDR3nPPPZNGWTINmgtUZ0vrzhaysu/lDjeS4G8BZuBvCbDgLCgEGkBzGig2VhughwsuZT/+8Y8fPvaxj81kpg9fgS74bERjLs8EJV58Dz300NyM5E0YG/7Ou++ZpUAN59BZyX4ygFIb0HfHuAw7SIgjKbChuZkL2jZUGwSNDa40dmls8gvjElEybNOzPVpzkWgAefvTV+NMdG9NH/5sM9bX1YCkvWxY/GRB48qla53S1IH+IDnm4vLX6y/uB7IVn2FJkb99yOBFc1xTesYcR5I3b2veyfzeVwz/Ow8PIXisYQmGjscff2L03zr5iqUl48l5j3Ck7PmEXj8ZcJ/jmvexvXyzEK2Y+JIv+ZKJEpx17dIadMIE9OIpmZLxrne9ayZV9yrjAc3TyTnYYylbl39ePnAjCf42QRBAiy+wlHtQAAErsX3iE5+Yiew3fuM3ZhKzwZQCCw3AS57E5gSobIPZoEonPhuEPgEuCaXXCXAcRUYO3BPGcdMEZAL8Ah0tvYdxYrrrjttnEtQn8EGbBp9+8tALePzrpDPsvjQuE4caybANZgxor6+krc26Azl0mFe2AXTpSycapdNdpzxjgBzzXHzHxBDkgz3BLF+uxE73448/NvvQ5n90KwneOtfFeA9KdnvBSFNX5AOynbLZQoex/EWHeZPhw+HmwfPMSJRO4ujRwuaFn02N4VUnq/jQL+klF0hoToCSInrjToGSc/cayUcvLtGwUTJ02f3FX/zFhze96U2HV77yldOGfAeyK9wT58sBbiTB3wJYaAsvCARLUBApu5yV+DqxQUkPP1Ci7+msMUGsn1zYBtAniUCXOgIevRIIeAntlrFRJSEnQWBzwHRmrz4g+Puu66QZtl8Yl2KSoDb5aMk3L/bZGCC5bKR7jo/T06WBT7kkHyc5icMYX60k+OSUFeABZCy8efjk7FQ7gL1ttuaircRrXNllvySVzCD+vWSDkv3JAU6Y67J7nWytTT7o1CmhgScvSVzrktjG50tzeOjhBwdNyen4YUEuUO+S3Bjgl+mbQeND6NlhR3bBbEVfAhU7+ozxMf3GfNAmG036jZm3OUmGoSR33333TdvZ8LrXve5KckRPh/70SYiSocvuL/qiL5rJNKA3P79c4EYS/C2CYGjBbRZJ70Mf+tC4rP3E4dd//ddnwOhHg1aSQyMR6k+GeoGqDQTmCKdZB8lQAkkI/c4TOAiObTEfToBFsxKHBFGy2Tdl995cFt45An/ekzpLgja50gain60lNf0ShPKYVIatQ2aXrvR7eIHXpR7d+rQ9QZ71UYKb2Xa2WSffmZ92mwG5HvKQ4bRHv03qREivS06Qv9CvZLJsmpedI5GRiReduocr/O7BBnpjHiK1+T11f2bgkjmS75hrY+jJYZe+O+704XJx8Y0+8jsx81knL3Z3GW7O7sleYNfZrQD24s2XkC7+zka8dGaXseWP9RSazuxQskNdTOKT0N785jevV3cGbx9ygT4nR/cN7x57uw9yNpHlgcsb3vCGwxvf+MYpa8Xvywc+L5Pgukx67qeRABIYBVZ9oPZc3LFZJAZBdirGJhc47uFJeh5c+GQVdBLGpXE5KCgffPCheY9P4jOeHroh2elcG2Hd7PaOmf71Jf4ze87oyaC7OaAXhNp0ksF2iyEZ6gfkwU4nTlpkkaHPaS2QGD2ZdLIiL58BZdg81LPRZiGLLYzY+dBUT6a+aNi1/D3mNWzS35i+NT78NepT1nDPTPjjn+yUTPBIVoPsCs9KbsuX66TnftxIGoO3y9R0reR/dp9v0CTbfCQYaH7o8ZmzvtaQDi+LS3LWBtBlDut0dfvhiUvrcnaNrVsEaz2Gfms/5HVPVn9JTts6krXmspAt+ShbTOd0DGiT2akQTbEDyH9mjN82TqrsRTP7b133qF01SHaS4itf+YqZ8MhaMbvWzxiat7/97fNUmZ58hgaC6dsB+AEa0DjAu/O80PB5ehK0gc5OGVsQ7IGQQ0+d7mmmS8rLl51uFv1DDz0yk5mE5/J23qsbgfPkWXAKugfHCe9TY3w92Hhk9ks25FtgySUdnjjuUCCUBH3ashVvwUOGEu0eUAUPG2awjD4v4o4ZTpp0KlWVEgc5+G36kqCxdSl4PHXsAUgeoEsb6EMDZhIc9tj8z2wPDHabo9Pe+1ofuk+TIJj6xgYf/yxe46PlHmiykucVl0ASdLrE3zif2ehjVldOp/rR8IcPALRrDXf7SVxPjVfi6oNyrdW0fyRYDz6sg7Z+sSgmtenyMvbiWzat5Gk91oez0/hNQ1djux3kiZMl92ofBdZXN/5TQE/mXKuBQJtswKZHR/xmq3LB8M9ZlQxxes89d897jU5/LqddVkuAsFOmfsnwHe94x7wn2Sk03afQfJa/1/3SQJ+EvT+YeSHg8zYJLjwCh4YFvYWHFtqn2YKbRkJ75PDpTz8wE9pDDz98eHgkuALx0XEp8NGPfGQ+6PjUpz41aZz0jBVMNgU5O1jApc+Jb72TBgQdZIPAssBOZ9lIprJNU995/XA0ZhIUsckOopHobBRj5l2gK43BXUdy1NntcuhUr/rcWDb5kCkJ5hM8xvFAfsgfeI+614fFfEJ9Bo2DYfKAMzvOsCS403X5DafegcHk5ftRrhPX8jVo/t1fZHtzWEju+rAqEe4Jhy4ncadLNpjfkkv/Md5uu32dPmF2Gqeb//jxWZfeZ/OC+NigxEcXUEYTPZuWXUef7OPg6O/jCYxs5S1nST1aOubp+OnlC7zsherW2yW0y2Wle4ZOgu4ZAg/yJC/jLp2//uu/ft5HREv/XKMze3ZgL5uAsaX3hYcvqCRYEFjIjvBAv4VyifvAAw+OU95T87RmA1g8yc4J8KMf/ei8xLUwBSV5LWKB6STQZt2h8XWPbi16C6sUFL52ZXPZCPrYBqMjs/t06vp3OXPmQw/5+rJtB5sNvzGXhgE6JyHfVjB3aJ7ZrY6vJJj83Q5JBY2MFT3IDiiB4DGuXHasDSlhSILp3GGIHLASsvuJEs28T3emAxjz9T9yaycJHZTkJEbv981XUs7s6iTWZTVaa5wvnOwlF5eJ2Y6PqmjYePG22ydfvuPvUcw+OJZm6sIbRCcJ0usk2BxAtjSHo80rYe3jTqj8pJ9coN56TJ8MxJvfQTbf6rbDCZQEja8DgyR59D1Z+sWtk6C2S2UJ8S1vectMfsB+clXl9R2v4hhzkmRDc2he8BT2Ob1Q8HmZBC3YugRZ0ILv4PQmuUl+PWW1AOLu0ceeOHzoQ79x+MAHPjCf8KLjfIssCJzWtAssm1pi6kToPbcCrU9kdUHe/SiXoOTpL3jJdSnMdqeN/VKAjIKErclfctenKZAcbhl8Q+NsR9OmW5duK3gbay5scwotCdKT7dBc6Te262wj6OuelpHkGoe12VG99uSdCWnYeRbj6U3PmtOqrwTo2xlr45IT9JW9K/yjTj86CRBM/4/5shdNCVC9k2A8zdlJUIKx3sD6SYhrTVeCkwS9SD0v1wcu29WXD6AkqDv7AB+wQdvlu9MYQL90H0/mkK37GmQn+uWj1Q/QNB+YDP18Tg7AT5dT6LLnaIM9NTPzAHQrnoqpZXd18lz2iuF0uCz2io2nyRKgRGhfodV+z3vec3jrW9961UMZcwLZB7L7hYTP2yTYAgYWTpKysZ34lKH7F5KhRZEQf/0DH5r39YwJCkFvIUuCZBuT+PYNgcbmIs/GQIceDf1An09IC+vUNdZ0yjLePUEBtO7VrSeu0OKnU50+stRX4K8AkQDuGpca69S0+gAZbbLkVW9jsN2Nb3KdRptbGwVd89h59Sm1nbCmbWMTkrPbyBeVuww06WCjdxUbr5x1yXXg1DlkeBLb+4j6rsx1yAum/IGTZ9CV4NySuDjm26UyG3xIgfUhuj7g8IRdZvLLirH1apC1Jn/CsE8SHIpnc8lZerPRQ4ZgTouNQ7/6tGdMY36YnM3jqH/poN/Y4ll62Jp/1wfdce0DY5CfG1vzXkkmGa0d2egW3zjVDnP0sWUl9aUvWcagy16gnzylmJDgfGg4HbpP6Im0cXuPPklS35d92ZfN0yQeYA+iw/tiwOfp5fARLNijj657fJ/+9P0zybmsUf/kJz81Ln8/PS+BLYTXVwSYk6BgXwF+y0w+FhIat2ELmIJA3ZgFk8TcF2oRO33U58S3NoVEJDj7dF+XFMYLQFCd7RANHWwzPzoLQBx3+FHQmTBWH9yhpn7Blx6JwWsy5ttcVv/ygznSp55c888XYD6EOCvRkQ/ykVIiTzeaEuCSi/c4d2W6SoL6ZhKEw8Z1QluyoVdtlK1Ns2/c3GwoSXB0TLpstbmpIo/scMkiZUnjB4CHTelno4cjIH2SxUqEK176Wh1YfmidVhKkz0kw/yy7lv/ws/+KTwak54grpqKPRh0Wl2DZfyLr7BYD1M62IWGTQ/aa824n5Fs09GcDGdFoe4jiUtgDE4lPzHef3cnQqfDLv/zLJx3Aw+fk7Pa/EPB5mwSd+rykzKn7wwuL9s/+2T+bSc+RvEthG3ONHw533/OK0ffkXEAnIr/MwvkSBPD6C7CgEkRfuxIUNuR6FWUlCu+kSbrqgkPy8inHHsEsMJy+Ojlqu2ls05BVALFbMn9kLBg5gkbyYDM5NpIkO09Bo05OT37JBWRA9KDLc7Dmt16LcJI1bz4AvVrDH+ay7FwBD9i4ErpLuXH5M3S3zelrMwhiJbubq3qob4hg/uRbcrdT4VkSnLbYFOwZPnJ7oXcdJ+0Ypyt9EsuSvTY7n90x5jnvX57xsYUKes0Nr7iA6mjG0NTPf9aa72zIkiA6KVd7PrgZPEsnH61x6CRID2CXtUv/+F+2mU+vs4sO9Nkj5nYwljzALv6gi13k7JgfQPX8o3QZYY78pI9+Pnnm2bWOaEqC5CUnO9AUo2izA6x5LlplD1Kc/t72trfNy2ZXauTaJ/re+c53zncYAVli5YWE6zIJ7o6FzweCgqP7dLBwHl5ACRAY93rLL/zCLxx+7dd+bTpZH9kWB0+LJIAvP70CuBOGeourDukTjF0+goKghIh+NGcArVPWusxdMhYtG+Yl4BX+XpZedncq7N6ldifL9MU3XUXe0Oc3/do85gdWwr5tJuDmD+ifl4djXP+DDz4w7WNnm1C57F4+KHmyhY4r8kbdL9O0asby2/LHai9frFdh8KVjcIwEsJIOXP5Zic+T1zHBKXfeDxwbYq3dHi/G1npBMryMfaU+TnrWRwJk5wWnwQHHDx2/AnRhyvXBePxw7LvD62fE1nzMfcVMdkrUbJSklz52LL213VvbkwGwBpNmzEtiOH0wwmfhngSW/CMCa8cGbfTspzsb9S1fLZrG2ASfHh90yQr4ZX8w0pxOIR3VK6sDCVaCE2/66aLXC9df+qVfOk+HXr0R7/athyq/43f8jpko6Q6al1iqvY9/tnBdnwSbJAftC6/PRubEJi2xeYjBcb77aAydJ7o/8zM/c/i5n/u5mRQ5XJAZUz/FeRkx1rYkYNGjBS3ySiiShuSwXxYcT1basAA4lVHyW0G7NoL+e+65d+r0qadt7p1IJMEuJ8mzEUsCkq1EIVjnty+GLbv+3SbJ+Ni/PkTamE6cnazIXJt/JUH65olz0Gn3mgjb9ZHYSTD5YPl22cmn/JdMYI7smhtrbrDjps7mEgwoCa5TxtXr4xQG0ikJKmd99M25kjnkOSXGC5i8fLpub0B1kB/Wj0JIkH1bZj3kMsbG+eF5pmvJXph+00Crro/N1mMmwtGem3r4NH7IBnOFbXqw04TrymOdNslfPjomPn3Tn2f82oBNcw3O4slYazg/1J9ZH06rb82p8WTX3oGcvbTW0fGb+ZBL//yB2XGK/MZv/MZ5SYxH7NvXLo2/6qu+6vAVX/EVMzfYC4F1KoZ+s/CyuRzOgWB3tEtdnxbu53GWxbYpfvEXf/Hwf//f//fhV37lV+YYHk7jYA4TGBwJkhfvWFq9c2HQ6Kefky0UGU4LkoF+l7xrfJ0OySYTrdLYCuIlyw9xWnyBb1q7fH13+xWYAZIdnn64Ex2a+UX7s8ttNqJRp987gr72tX4Tb33CshMfQO9DoIBJ927r2mw+gFZyIxctXglCO918iadvnozuw5PDbskFDUhuQBf9yQDRSoLdE4T0wiljrAkx046Bl+G09eoPKv8mb8KZrGiMlQRRpWvBmjNaa29+fRhLLPyO1hrMByADOkWT671FSbKnw2CZstqzbxzzzEmdXPX1bujYwKNPuyQYWKewtQySk/z1objmrx9P4/UF8QL2Q16Jtj7rUhKE5gRbm8pFu3iTvZewAwq0l5wK2cjPxjxBdmCRBL/t275tfuvEoaeDgPHv+Z7vmVdM9ggZwFrh/83CdZkETbagCjhsBscZSH6+tqb0SSKpuAT2vd2/8Tf+5kh8D88TIRA0nL82zDpNcbo6uaCFgr4xIuDVLQw0TgfEzxaonyy20mNcX/2SBjmjeQXYKxGUeLKh5LCS7Hoht8Cgq/uIZKNrM8Sv7fWYm8YmXj+fv26gt0nX6W+dYtGSQ96c84kt+aZ50b/msy5loy1BTN1DxvDk4ZnB28rREVRvbSG4mmboh2dAb7QjL4zxs409UKLxhNimZ5d+svSjb41ObTFn9t7mw2EkHsm+dbZeXhFCS2b9S7aN3z2ubgMc77uidynOnpIgXNPcEsHh6pMYW9fazI5J53K4OSiB/mToU4Ipc8PBOcaP8vHs/mH/olsyj3wLelka0LP08+uSAXXBKz6+Qrd4QLL3EqjzP8DbnhE/niyXANdbFrccvuu7vmueAJffn577ALz73e8+vPe97500xirJ+83Ay+ok2AI43Xl5WTD7FJE0f/7nf/7wz//5P5+J8IMf/NCgXzwWpEXgJBuQo/aF4thoZ/AMFNzAGAQlQXKyB2jDgsEpMT4nKrRgja8HAgBtQQQD7xlKhPhtwJKgoPDJB7Kl+cFp/6Bzqnh2BukKTLw2mRNhegQhHica9nU6XXaPE9a4pDK+eI+nNuMuWbTV+b5ECv36idd8xhades4DMo/+Pm6e5aeRfDafGUOvlAS7dSDJwHkiPLl3qx8ke7/kVVoTvpAEnTrN1xxc2q/YWLzRx9vp28MpNmWXYbrBmNW0cdp3Zo9eyT0fOVHxaX4A81LYaWvon3JHN9nFFYg/nh2yE64EePWcp94zHyXjFOvvHUV1NsA5h+3psK4rt0Dm+BGK7+Se1tkh1rIJvzqfSIL40bpisR5QwnMq9C0UT5HFnQefXrVxKsSrv/vpvxm4bpMgJ3CQyQGOkPh62gsErvuAnva67+eyd51SnJrWDW38HE6eNjmAo5NNj3HB5j7ao489Pks0Fug4tpJdi6fUT36yVt8xMOI/4vopptrJLND1SYLmwVY2qxsv2SjjSz57pk1T5jjtjdOMZOSUsuQK3LVpQUHoU1WXS3D3OG3gxx5dP/hgnA5zU2rrF5zsyZbsmjhOSHP+Y8sA+iB6mH5y1MnWbw7A8JOX1ruQMH4owSCbukelJDhPXmf68ZQEk4Fp1Vei4v8uh42xxalZia7bCyAZcCXBdRJsbK1Rr0C5HeFDdqzFZg+9MBslQbR8anzpYsc46Qx5xiRBkM/QtSb6QDYGaAB/qKIN0g1by+iXjUf5vjFSH6CHqpIg1N7jHDRG/g6ndrb2Yhu9+AZ8KR4kOnV7XduDETHmsvg7vuM75oMT4w4EEp9vnHzLt3zLfLCSjN8MvBBJ8JY/8yM/8l+c1Sf4uxK/HTARMIN9LIqboh58OOV5rUW298DjH/7Df3j4O3/n78z7fxwrePCi78TA0S6LOcyJisPQWCjylW3ytVjrk7wkaKyANW7R2KSuL2wsnSvpHE8x4PgAZdHvY4E2fcbQRkfnDNBhT3q0owmM6PeEeOlZvYtnoY08N9oYtOHJd8mcHptaCfRd7Z/jpbKy+hW6ceL0t03MVX9IfyXaEo46uerZmJ+iD7bqMQmeJcCr6KDxqXuc4ufYmjd983bAmI/66SkRODWfrncJQmy0Bvqaf7xskgQ9uIlnT4CL7up5AwkF+HfSncWv8TAZ9Qeti3LJJOPov2gro699uga3jLgBO/1iOcpJV7hDcqqfQvx8p14sRtstLq/L2EuSobarI1eBrv7ckprrONYC7wc/+MG5771w/ZsFL9z/duEFT4IWr8lJer/6q796+MhHPjKd5h26f/pP/+nh7//9v3/4J//kn8wjsYDlLImOI9UFIH4O5kCXiDke/Q4tAD7H7DvuXL/Kixe2IQp6dX1oIGhhBRQ4/ZQEc9OdfcriT27BOvln/zgdGRv07vGhc+/Lp+GkH7Q2WUFELjvQTR0jASZ3bcSVAPYnvevJtmRkU62HOkPU2aluVDTObJYwpq2j3YyU81I0X+ub86Vr8LFh8M7GwCltVJVTr8TAdnKHr545ay+9x42fX8a/Z/LHGprT6C/RrDkeN/w6Ha6+ZY91ab2Wz+crMiNOxaq54eNPpzH2nQKa1pvcq9bs7EMNv3uxy6ZFsz4MVlKfOP4TG/MhyAB9gHx95FiDfmMRnNoTD0D/XDzSj+bkp3PFpF62LN+AY99KnHy0YK2FcXKjR1PfjkG+AeeVM6aGH9XN1b5T8ltrUX+/T+jhp73uCbFcgN/Jz7g9220idSfG3wy8EEnwt3Q5zFGgBc5JOdNlmhPcL/3SL80Mb8Im/4/+0T+ayc+nhXtk6DluBfB6kRN9nxJAn8RCh1OO/rlwnoONUv8Rx2XNSJrJzZ7sPaUHK4AXLWwjNTcQLSDreBJbJwn86FF5RYaN+oyZ10x6IyjQo9MH0kk+Hk+Hn7q8vlaVXfrnhh/zUhcoxsmef11tnFxswDWHYffwjDE0+LKTDn0+kY3vmP/N3Q307Mez+q+21/znr90M6GVmcvDfqn7Gg9Y3MJQSCz9INCVA9l7x1XAeGWtTrTcFbOhbz9Z+wZqDn+vSPwamzqdHotLvFORDwHxsxOa97BYvy/dojYk1T4mNs0NSF2Mlw5l8blnrM+WP8WX3MTnhnZaxcSA53tUrEeCxdssHxw/iUwz4oNeCmrdSG9IL4onudBxEk16lmEDDt9HqZ+uybe0JMvWDud5jXmC3yXj6yaJPPFgbetrHxsmGEqHk5+HJv/lv/pszQcbvw/RL3va2K7ydKI2hIX+fIx8/8blIgibehM8DGZ9D/S0OGd49gp/+6Z8+/G//2/82xyRHwcchLchxAVZA7E63IMuRdC+HT7qZBOGMvQnGfB3LOL6c1ULBHlroA8lX4iuwIYgX6ON49OpsNkYPfiecu+5efwcCtBEB+mxIXnTa5swfkiBZ2uvVC/atEyCUBJXAPNIPJB+JgOXJMF4ws9v8+DGfG2+uw7Kpn3X17Xbni56A10c/HJSHRx9+eN2zG+hJPTtKPk55EowfTsBHhksjdnoyy189RV/vMI41GjoAX6Bn1rR59Em4LuGdjPCY04Vb13099eZtDmwYtdlmG9niEy1AY/3wHZPgmNNgm/rGuPaiJeMYJ8bh+GfO17t6fAvx8Dt92uTGt2MgiaCdcz+D/FwJdp70TxsGNDbtP5M3/X+mmz0Q1A+w+VCZcxiyil1tsvThTy7I1nT3dNp4MQiT4WRo3LdJPDX2hNgls8tkdPfPr8I+cOUpsv5v/dZvnZfK+EMyrNULkQR/05fDJmxCp8CRnQA98LBROPof/+N/fPhrf+2vzUTo8hgwnpwWqM1ocgIdHx2wBVuOXN/7xbcS4Aqg5ZjVJ5BzOGw8WmN0tXC7jOowGvqihQAtqL3z1Kfcgz57zB1kY9AcfRoqPaV2r099l49PnU2QDLz6ppwzn0kafIIHXTaAkoR7isPSKzLgWZ6YdoP4kiPZaOsnAx5pF/ukHzX9TlYS90xsg9bfArZGzXf+mvZwWX5Ln7W2nk5F5JjLmufw3Rwf8TF4gafhl0bSpANfviGTvIXPXV+Afs57QHzsA2uexw9CmP/1K0Fj45/ZXr0LyADLF8cn5zvED/Gm7zwoMTV+Wgb0hs1Znez61dlVHz+smFiw26Fe7IJkPNcHq04uW5MRrT55gi6Hoa/+6q+e/cWVD0qJz1ft/JArWvnEt648TU4fudbCB+pvF35L9wT3iasrPd11tDUZBntc/i//5b88/IW/8Bdmqc0BJo8+bBFMSAJ0BFbnkMpQu/sH87gyQubMlAkC3X04OtCzDc9KKsf7R0BpPDrADoKVLeK8RBzt+Mgip3knR2kBfR9215d+NqGTEJT664NooFONfkms8R08NXbJ51LYi73sTQ/w1BSfS2Q2SUKnm6/5kO2eWD5Y7TGXMzo04fLN6kOvzT9Q3xwbfXf6u8ijbZ6+vzyT5Jk+VOqeULs/zE6Xoz440ZOZLfnQ/T9tKuaDkgHuidJjzuLNRiF3+mEm1WXPms8eR8c12zd/vnOZbmxPgvw7+wbtse+5MP1X/ay224EfqtcXXgWbLnBK01h96QDq7ItnR6A072C3L/8Yzx/xau8+AI3pD4GHQkd5y1f4xIm1Wnvq6bnm6MSCH2PQnjxDl7iQT5wQ/cCrB6leoRMTaEHz/Jw9GGnySmBSEp8kKOhNjNF/+S//5flkWNskg92ZgBwThyaaXJCus9aVT6OxBGd0xwWe7bMSDz2cRWYLUhBoz00zED1aY20UkEzJdSWWtUDJik5b3UaUVCRyGxjgx6Mk32YHu25IBjrTUWeHRjp2XYIJZm8+05aIXFKt9vGUnQ7z1E7fPn++dRLN23NOQ6YxNGj7kDK2+zcZXhPxQbUS9PqLeHeM9b/dZe/wiU/5u+66e/546Ty54xk6QnLZrD8fgf0prb6eDLepsm90XYH62NhJcEiafMd5HZMg1nSj2elrk7Xqk+WMZpVdyk6uQaPeWLh0Hnmqo68MQeNBPKf90bMv2GU3pzA7zL35m3v+CsXIHvMg/bu86Gf8ndWjoQvyuVixBzwToE/e8AOtLpPFlvhjg7dJ/tf/9X+dr9aR43Ua7xN/wzd8w7yFErwQSfA4s88SGJRDA0HfJ7kJSIY//uM/Pi+BBb2bm2jwdirhWBtEgoSSRk7bNwSZnIVPyYltXglgsEy+MNj76i/wydVnochpPN1oguh2OQAt3EF7/sLJsFGdvc0D7nOqXsAAfbst6+nkolXCRx55eCSYlUidFnuJGs1TZw8U4HzVY+gH5lggkwuaD9TnMgh9p7f0wXjylT60UH3qHjxi4P5PPzAC/LHJI+ldHIGtJEFShgJajCjJEyN3jJOdhyhOrp0Ojc9T3pgLuvXtjltmn80T/4of3xRZGxmyiQ1hduZviBeq80/rtmMQD8BzSlOZv6B6bTz8t/dVZ9feD8FpHey279BcqoP4d2wO6dv5smXH3SZ1c9j3DMimYswY2j1G9Nvj6tbP3pcTnPZ8U8zDEknQe4Xq3/7t3z4viX/0R390vlGC9/3vf/98zWa37YWA33QSDHKCwHcj0/U95yj/3t/7e4df/uVfnoYbM1GTxsMZ6HKceknNOKeV8EwS7pNGu9NnB2ih9BkPk1uy7iRFTxseL1j1YzsoEHb72BRdthQE1W0sfmBH9usHSm00xsGu1ykl0I8fSATrw2CdcPWzReKjF9SHT1+2VzfW/E/nsZ6w8jk/0L0SmAQpwXmZXV2y8qcMYH3ksM16K11iPjwSmssbSeuBBx86PPjQw7MN109/jQ/GoXs+ADp7mGKO5mC94NOXx9yf9Y2e9WE5n+IOPnNqjsBc8OlT7mgOwIcnv8H4lK3LzptsY8XTzrfT0h3G21jj8VwLg/PqO90+zpZT+/cSRBOd0nhxDPYY1NfYjjskL8AX7m2QXjL3Nr9IbGIDrbX2lVr7oocm7gm6JPZMwS/Go8N7as9vFX5LSTAnAknPKy9KfZLfT/3UT83jrMxu0oLd5CQhGwOdfp8IsISkL8cXODkyxJtuUH+0+Ks3ro9upwu6sgWmGw8wNxuwgC/oIcjGpee5SZAsffgc2937gm3eEl6oH5Ycsz15+XolZvfT7rqSYABfscW9S0Dmol8+ma+QDBp2uY/YmJOfE+V6HeX4/mQnS9OCY2azlHCscetFpqSif7/357LX5S+U1DwMkSBnohuCzNPJ7957XzG/oeEbPp+eTwOXbWLGHNH4OuDNN3mFatlPJ/7bbxs6tnuC1rGxHciDO6zEfvUJPF8pTzEgBz2d5/GG7Nj5gP5iJpt22yrPg2Rlz64LBru8YJefzdGpk8ev7AL8J66U5nkernU/zjGb6s8m8snJT8boIsMaS2hiyRWBk6BExy5rKb7ROQmikV+Miwl1ctFmw28XnpMETYKxgAF7HTBS1tZf1rY5XJIwUAJ0+iMnfhNitL6SkDpndEIsSEysxcqpJi2hQOPoyLE5wJK9PkVAsmBJGn0yIN3sIq8FhNmqnozG2JLj2eQSDL0xyQQt/yiNCyhjkq9+csGuM/lkQ/7SRksGpENiBuS4JF73VCRvcryKMZLuWAO+g3Rbk3mZeRaIZPLRU0+tr8rpT3anziVryVjzWWu49LCPT1bdwxcJ/tWvftUI2Neud7qGPA8W/GU/rzuw03yd8LxvYj7zPtwo2bbsu+VwaayPtaKTPqdMKMGytXt380Q4EnO3UdTZYlwMoPGh0ofE1D366DWn5etjMmkdxEfxiqe1Ui4fraRR7Oaj0/H0LpuPH2LV02eerX36yIk3ut1O9GhB9MWHdjq1977kBPrZgqakl538sNZ7yVKmF60+8vihWE8mQIeHDDRojcHmTAd90UlwoO8O67dnV2y9eu4fOYUs7xsDcqzzCwHPSYKMg0Cy4CgnOdnai86+7ibRefXFz12ZkLe8GeQ+TX/bF+AFDDaBHXIWbGFBC6Yv57WoydPHRjRtSJc4EpuFaiy52vG36LvMUL/5SC5448sf7EITv3647FwlWHYdX5jFl82LdqG5FiwrOa3vS8OVmJa8HcjWLwE5tc3v0s7XSY6nvzAbVoI+nnbTH1Q3B398nE/J50+nsexZD2HWvdxOakCiWvave4rzb4eMNRkSJ19zWr5fl8gzuQ17nRzvdlP8djfFxcpaf/4VU2zAw0bJa4dlU+uz5s+n5s2Xp6jfk2VzIB/kMyXY42PpPPrRHHff4Tn1+Wl7R7aVoNMBspkO/OQXK2Dv22OosV0nWVBdfxBPcbvzpx+yLxujSz661jE62PqSfZ78eJV0GEPPn8pup/UhSD4aPB0essO4/n1uv114ThIEJsFg4LL2J37iJw4/+7M/O5OgTOyJr8nL0ibhu39OhBxgQhYzwwtARqNtcWDO3ydlPBqQHMiuvQ9ES7fNSYex5IB9cUpM9O66k5lcsNuBNznJinbn9XUzPGTTQ75+PBZXycZkoKUHjf5F89xgD3pNpPfb4BU5Z6c4PNp0O/WtxLLm2P3O5rbqfKB9PC0AsnY76NQ+2ukbFu4TPjpPp05S2auc9o0kDdfGue3sFYjBeyZjbqSRmIyp89swaerRTs+QeGbz8MH4p5MhHekMmh8sxtTBSqjLX4E6GXSuxL9soTsfQ/rQpS//7frAqT0gffkUJsvYqZ37WHgtuTviVwL05+na4ZSXDbB9AfCbP39EC3b7sr+4BvrzC1zx2O9nrr/yp27MgUvdQxG/OehU2G00eo2jw0dOOl4IeI4kChhDieT2kz/5kxP90IGbk25M+uUXBjKUcSZjA0iOu/PUazNeYNUHOURSigbSHeTEFgZtDoWAnStprE9VEF/yYH2cCne9zZeNK5Gu9/XWE9PjPT6niOTvCJYda5PoO5UdRq8fRIPXYqs3Bnb6Nu/CNf/a3Z88tpf9vSeYP5QL1ff26rvr7F7buvRdSdwYYEN+jmeIvFICc8z+Rb9sJmd9XW6c8s78TI91cNk7T4W3+9srI+ndvE6ewZr70q0kD2iToWxu5yWufO8E2JrucwrRVkePnzxxKzF26wae8qLHn75d7458KpaLj1M5xrKtOe20yvph/SA7dkxusPNFn92wvZaNuw709e1y9JkX1I5+p9lpG6fPB6hvlXn/j3/dUvHVOn73JzXYAYy5DWcsW18oeE4S5JSMdNnr9CcZejztFOhy2E9f5UDJj4Gu350GJZg2HWCsCWV0Y/DU2XBftGhsFHqgvujp75sVeE4DrHko42PLediGiWedNPS1EdCthxvZBwqiNgz+7FM3DsFuV/aE2vFAUBnQO5PE0Hd6mpEIIFl8sILyat/ul5PNofnUdmobK3vlaeyttwzfDPSAQtvX0uTfp54cJ7ZRat95x12Hu+68e14is2mumXuHI+Fdbc9ae33q1nX+sOroYzsfus8n4Xjp+5mzvxcz7Rpj+rOTnuVbcXU8+beWrYcSD9r14ca/+XLRqa/+49pBbXCmctKlvzps/Xdd+3j0gC/oCHdd6T/FaE4xHlCcpUd/dLss49HuPOHVp++r9yBEv89XHSZrt/c8oKN4UHeY8rdJnADtb/cC3VZz4HIFSiYwHw9TnBJfaHhOEmQYhYzznp+blm5Muif4L/7Fv5i/CiMpohP0nGZSEPQEFqzkcfwStQS5O6eFUtYO9XNoDiMTv7Z+NO5RCWyOQo/O+C4zObXZExa0aPDR4b6ESzwybbo77/QQxRPTFRTrp5rWghcA5DhlkBk0jyAd6Y23AIoGsAnqh+rB4l2XpY0pp5wzWdGzkz7zWPfBFs+isXGOwZ+c/Yce4s1P5sNG6yBg+RuddZ4JZyRLgKa5pM87gORA8h9/4vF5MvTStN9D7JRlHP3wwpBB3/Kh+dFhbHPr5KGrzbf73Rg4jruM4qM131Pf41v+Pa5LMs6KCfUBdTjneCbrPMimXaa+7FYWp+fNR/08TG527PT8HEZ/3vzQpz85u0x08QTpCYPdbpAsoF9bGZ1vkvkjTPKNQ5Y8I8f4soWrz/5uiVhju1MjPmBeLwScu2omLdExSLDLwC51HU890pYY/eW3MrMszrCe7jDWBuI0zjBhk4DaHNEihDncxHZH7g4GyYgPoO1eGUiW/uSBfREBOdHY2G7Cpo/sbATku4w6JqBjsIB03n6WNLLvFBtDS/7+QXGkuzpBpqc5ah9pj+OgOblcNkb+SmTHp6VrnLyrAzlfqCc33/B7bXU+3fm0/ZqLJ8Dy1tJxtnajDy/fPTFk+TsqLov7eho6/GRbg/QlA1k6+IaskuPRhoXuf5ITr1J7obgyvmjgtPtsLsA93d23IZ3j/62+fH7Uv/Sdz3fE+nZeCKLRZhOZO09tGMSf/sbqr48M8aS9Q20lGflDHYKd39jRn0f/RZ/O+MAuG492tvhLdP4sp2cPLncdQuQYBzBtV5iuDvT7EQV/4jPe9Px24TlJUAACLyk61TGaUYzw0MPTX8dXX3VhhNOTCZqwLzx7x8trD+vJoUfu6z0yQa8NXcqtT+R1WbfXBejcIHODcqQAiKYXJMeGGicyOunuvt1N46Sj79T52SfR7M7baYF+nzpd9i7Za9Nk086TrKVjlRJOHwDshfSGNne45nLcWNyDL5RoS7bpKuDUd9APrYdE88TwuUtSl5pw/qbh2SXqwjGvibVXkA5l49Q2wmLY8tTw6yOPPnJ42LdURuLy24HTRj9xNU6WFy6Ok9mgHZaNhLY2DBlippM7fPKshA+MS50nHl/f//arN488/NDh0/d/6vDQgw+MBPj44bGh7/HH12nc6zrNOZlnrh9A50LzO9av3pDKfEMev6+/NueP/3h/cb0nSZ6T8mV6x7xDD5t8FWwIm8gF82uJ04TVZxzS5bvLrTu8ej3XLYwwsL7RKndITjFXfY+JHfdxqE1uH7b8CE9jKD1ivw9kwG+tpQ+oBUP3GY6wH03xQu+Y39BpXH2WQ86w7Mqa8D+7HBb8EMY3/o5vOHzJW98y191Vlv3DPs8e0AP0cpGf5PMmyj7HFwKu9vgADgMmzQGyMaNcp2v/wA/8wPxVGN/hc0p07Q4Y/MpX3jcS4evG1G85PPzQo+Py6OIIosPh8ccuHS5eGEfaJ8cn+U0jGYx+NMaevjwCd6Cxxx57YmxGwczBnDeCcrSfumwTjyAeHvdTVW6sz18kGYvymPfYhl2i0+KtSx6nDot/87ycve++V86ym+LhenIqgbpM8HR5/UJzAeMSciUhflmXh21MC6Bv/ubdQPW1OJKHe11PjtUbG+tWATJmcstN49JvXDJeGJ9ifup8YGOXnjRvfztjvaLDLr717QwfItak09yuH7TB6WafmHTiWic/7wWS1U9GrROUAF0nWt/KEKAzkoc9I6mNuUiYD4+ge8S7iEO23w6E85RkQw09yseH/9F4xw+PdsndWqwPlGXzusw2l5sPt43keevw6zOjLQguDp0XRv/lkZCeGrIkHl8BvHSWqJ6ZfylNInS74tExx3FymzP118/GpfjAw01jwwzcE8lxnXxgzp4ra83X+sL5IGz4vfW+gkvQlUQ3vx885ife24j0zHUYPm7fNKbehx4efln2rA/ZbEzOaYJShqAEsAP69Kz4WWuALl/ok8ToJiub1NEsFJsjpsTEqLiF4XbFbbffMev6Jbv5V/nGB6qfsbo0SvjkmPuTY5/efMuFw6O+STTi7uIddxwuDl5799LQ5d69k90TI7Y//OHfOPyBP/D7D1//9V8/ToEfHbnjFaP/scPdd905T4WuQot7McTOb/qmb5oPYgO+fCHgOUkwwa7FbUTIyYxh1O/6Xb9rXv56qsPJFk2wW3wGfslb3zYSp18FWZvvvvteNS6ZXz8upz8xpFpsKi2iRZ/xdQXHks2F2MdtUKcwaCO72X/cyOt+nMAFNpvFbJH79FI3h05VIVoyup+3Ek1BugKwJLHqNqKkcwzSJQPPOundMmQdZZjDCtCVeI+X5tmpvU4i6wOILwWLhV9zu3qJ1gZZ+kP8Eqf5MsuJiHXTQnMlw4QGSlROihKXD5J1Qhy+Gm0/R0WGjZStsE2ZvcbarICNa67rMse9Ypcw2mQp+U5Sc7qSbPwtkh0lPXPop/PJgSUls5lynl02OaVeGvRPjbmP3rH51oeXk2D2ocMT7PM4ojksb6mPWUwUUqs+5jcMCGcCJHfEgEwxZj7R3/bobzaD5AfFXHad+u48BFfbuvyPt7nsEM/z8bcXAn1khvbVuuoSv8e9Wv9sk39idyC21pXUzePK8cF5r08CtbeeGGtMt5j41/61f+3wzd/0jTPxuTp4dFxtuNz1Iwl+i9QVp1fw+sl9sfC93/u9s/5Cw3OSILBQvrLCWMlOmxFKl7wcJ9BNUOC5XJZEbFrX+O4Touccx1gyjO+bJQSVxgr+HFsJ0LWIi9bCrEUoSRrbAwXikYQWzQrC02AkI/uAxEceuoUrSDr9WeiVrI4POvDPS6UN2SwBkAe0k4G+uePny/y4+2qfU21luOa47t3t/adAHjkhvmTzUevt1kfJUH/ID9Hnv+TSp+1DUwmTYdx89KmD7N7lVVfu89A2zgYfapCND49LaX9sng40yU2eEuzrmrxd/rVwB/zwPF6w06uj2+cSZIty/7AMGt/70gPN1dySucsGp7xB/GxS0gPV2ZidSkBG9K1Nsievkp5Bc+V2wQDxixaNU5+Yfnyc3q2dKzJXlN/3fd93+MN/+A/Pn8kyHw9H7CPPGSRAzx/Q9UHq2YMfVHAb7sWA5yRBShns2luiywEmBbw2Y1zbBLtMdjoUnBLgv/6vf9/klQCBcn3FaTkX5Gz6IDBWMrni7IH6wugXrmRVcmMXzF4LwkYgiXE4iB9ddZDObAzqp9/9zv6i3J6wADkFabJLfhKfS7c1j3W5inclvnUCDfDyadi8nPiyDU2Y/cFu/7Jh0bELVGcrLFlZP0lQqa/+vYx/15sOtoJkaZsv/4Ta+TPf4W+u7KqenurKfLHQmh8/zJQge0A6lfTq330S6qv/vPGQHBigpReyfW+Hu2zr3bpXZ1c058nfMf+Qpb3TgOZZuQOa07HmBfhplw+1V+ytPoCzJDil0D2xZLj+wL1baWhcVer74Ac+MC9//51/59+Z+UWs9TujDlS/8Au/OK8ePZRlq4MYGnEnaYqrFwOekwQ5B8riXmCsbbE4yR9JsvlN0LjXZrzg6OiqNKHf+Tt/5+ErvuIrpvEu76ATQvL3RQPqObh6CAqMEBjbN0SL1wKztU0GyFXfg69x9MGa70paTmsSl1dkJD3Jb6dlA50rUCSU9fU0yep0HvjSlQwlW/hTl3ngS6Zy1Y8yyVg0x0tScpovMA7SjU4A7fKtjTVxoqrcT4DRV4fp25G85gbFAFv085kPv9rKYOchp3Vszqc6YEDOWsN1P9a8yUOz8+28ob5d/t5/3njtcKc9RRBP67fL0Aeizwf11VbC+kOQPKBvb4Od9zxoLJuyMfm7zeGux3i0yn1s9Y++ceVzx+23HV5x7z0jbi6Nk9ynDq8Z+eH7ftf3Hf70n/7T46D0unnfD5DnvWN5xDo6CXrOIHF624TPvvmbv/nwnve8Z675iwHn/qgqwwSa46lvh9gA+pQM/KEf+qF54gO+Q2zy/nCKpOiejF+XXX9o+aH5dTuOsNHJbH1ajFUup7oFsZx6XHjjbRbQRlp0R+ejgzZeshuD+PdNCBobmrVmvUVOHlCu+yQ3jyThhHMMcsloIVuGrEm77I2fiqlmQDaD6BbYxG6cr78p7BJ62YX3SM82epaMo58aZ0d9aNh4tHV9SBhTNx7dpB06936gDgSoIDSnfVz/fiKGEik51qLARY9GSYa1WPFwlMfHHi5oQ3ZDviAPDV/QsfTln3VCkkQBGemZ7XPmWhuC88q9Hs8uq3F6wp1nr+8620+7fWD670zGzh8dIAPdqT6w9+3859XphOeN1U7egtW/4tL4wuO8RpyMcU98F7/3gtdT+De+4Q2H7/8933/4Y3/sjx5e+5pXz9tn60rx4cPP/dzPzctdJ0F/GP/nfv7n5w+B+DCVKMXIf/wf/8eHN7/5zTPOTuFF/WVpk+fsf/AP/sEMapc3JuvVGac+1+gtqtOhy+HXvvY183LRW99f/KY3Hr5oHHk/8MFfHzyfnE9nbbIZuP6H203vhS0ifx4TUYsO1vjVCzWDZ8N9/JR2X/gd6baQNpN6sqhdupdeQRBP8w+ybdl0TNb1uVkc/Wof50JXl8hsJHvB0gPQd59Snza7CuiJZwnAOExWmE5wnONKRDB7gH6IphO9oNQG6IyX0PSLE/3JBcmAyQb604ffbYF+QFXfsum4WYFTcbL7sEQ3k+BILuS4R5VOY/EvnjVH5Q7JRwNqB9rhDtEHe1u99prLsout5LAPZB/bUavv9u1ylM0/e2A06dnH9j6QbHKOvjyL/bP6LnP8v+T4sJ/7w5hCn/gaiXEmwWcOl564NP8kwqOPPHJ4fFxZfN373nf4o3/0jx7+lX/l2+arUm6fORQN6+fvCPrpPXFF/q/8yvvng7p75+XzYdL+vt/3+w7/1r/1b0077I1TeNGSYI5xTf63//bfnoHtUolzXAZbNE93ZGsnwv/r//q/5nU8PhN61UiSjrX+MIq/KOXNb1+pM1ELDfYF0A/B+lOOOX8teBssWnDeOOySr3407GYzrC96dX3rIctqO72sXxuRlHxL4Si/V0uO/Ktcff7wiwcB+peNbNl1pLsxNgGX3XwHshUsmoJyXTIba45AWwDPIB7uMRYaK6hhpxB1NkDj5OLPrsboEHxOdZ7+84m5gOQ2H6D0KW8u+b1x8tMDG1can/7uKfvZOhHrg3P5zys96/Wb4/iiYQc5xkbP1Jl/ko+nuYc7aKOpDvDtsOsFyaFj5wfRNQ75kQ2gTZ0P8lMyg3RVnkenrf90fqe4y2Lr9Neo45sn6bM6e8Dy4UqA7S30cJ3+zBvt6B9j1vChcQh6yzi5SV4/+IM/eHjd6147c8h85Wzw+QP/Dlfu9/GHL18s/zx7eMU4TP3G2bfUXAL/uT/352bcsdNhLJ8FL1oSlPBM0oSc6vxStMnbQPr84STvC7oEZpTjrb71AOSucS3vac+FmTC/5Eu+5PC1X/u187grGZpsl082gom1IMr5esdYVzQmbxE439j+jlCLUUAAsskE9UUTzoU+66dz9R+D2t+/8L7ges9O0nEvbF0CoKdjDygoCMg1lxVYKyGCXY9FFmAlA7KMCQT60PbyrsR3TH4r4Nmh3lxA9tQvARfE+mA60fGhMfrrZ7fSC8/GrA3/x68tqXU5smw5bgrjMBv0i5V4gT6ovexc/g7I8U7kUwON8wv7XE6RpY+ffDjhNYZnyVr8Z4Immkc06GE0xvJPtmibU3W00UfHpuQk4xTsnfSG2unbedIToJvvSZ7R7DKC6srsUgJ89p2+HYyzHQK8dJ2ifj4I8EHx3T1o9/vmaXDQ3upDfdDNP+tgbPRZL6+ySIBf93VfN22RAJ3grePP/PN/Pm+R+aCk05UlHe5L23u//oEPHD4x8okDlATothp+vPv+D160JMiRDDQBN7b90XTJENgwxhkvEQpsD0F+7Md+bC7Cgw8+dPilX/Kdv3vHZfOrDh//+MfmJ8G3fuu3HN7yljcf/sk/+cnpKMlFQHf6Ab5lYqPr41CfFMATJI6i0yYyBpQF0h5QLd5awGMgQRtpD2bzXLxLXvY4cegHg3TSa+NVrkRVAK0N55sLM9DO9jd5+ApKNOzHv7D3skrEBfTVQX+kPwZ5GETHf0pgvP7a5LND/y5j0gzV2awE5kNneq03fhtCiRZNckoCkMxo5wY6k9kY1BfOe51nviyR2jzrpHG0cfEf76nh1ecyeI6dfXjsGF1ldTKab31BY2F9YKeNF0arvs8xaCzcQbu/2Zyc8+B0bK+3DkG00cz4HMBPy4/H2BCb1mn+xcZBp24926v2oWTnGz3D2MMdYy89demJw8PjgHPXXXcevvRL33H4E3/8jx++5Vu+ed4HRDv30dDz67/2a4d/9A//4Ux21pVul7sOR2zzlP9jH//44UPjCvK+V73q8L/8L//L/NvEbDBuX7p3eJoIX5Qk2CIABrjcpdyvyeiXBBnuaY7rdeMcKVn61QcGm7iv2Alk9wmdjIbXDu961zsP3/Vd3zWd8C//5c9POT4R+qaEjO8k2cZz8iC7S3FPrNnEDkiXwJkbYJTabcjGlYG2y874yMQboKVzBchKjF3a2qDrJLYSpHpBBMkT0uvkcwz0LuXQ2NAupxfP0uvEaHzZvS73knkeZrsyaC7K/bQI9DdHfdGi6VSWbDPwbZBkG2NXOvke7PpAuuixhsaAsmRmDH28+a72Qkng+P1UJf+JHzZoi6N8p2591kllbTZ889sdZ7om1Vkd5oPGmmvt8yD76Fjr+1z6ZO7jx3kte/LjaX/0oDXZ7WoM7PXoooHau1zQGJh+2vRHi88L0OvbIutU7NLVPnQbh28lMOUrxwFHgvvoRz8+hD99+I7v+J2HP/JHfvjw+8ah6A0jH7z6vlcdLo9DwvzpvV//9cNvfOhDo/6Rw4Pz16GXPleNYkV9XjUNXZ+6/9OHrxg5wtfjnCY9HS626F6v2lwNL0oSdFMz57ag3tr+m3/zb87Exhj3AtV/6Zd+aUz+j8zEwVme9HCqoJfloU2QLOj3wLxQ/ZVf+ZVznIyV/PoZ+JvmqdMpED3Z+tV9GpBnY2rrb3HpyGFgLuqG9SFv4XfelYiOiWMfr17QCKTGAL1X8EyG8SX3aKckqI+MQTH61zz4rvl4T+rKyXIL2PSty2X9V9t2xPVpD/EJ5pkYxgDddAAlGmCcX9HrQwvU8QT5qfEdshMNRFNfdXYb2+dmbEdJMFrQfVQ4oWK0+W/pImfg4DOX4dorNEHyzXvX+3wQTfZA6xT/KehrrXfe6JUgefXDIH7Q2D6O5yp/nAGaU3nVG4MOMdrLf8d4n/Mb5RhY8TD2cHTAv6q+5/3YSGD3vfIVh+/+ru+cT3x//+///Yd3vOPtM3fcPS5pJb9f+eVfnk93Jb75OwTeGRz6+E+s2fv2PPSNJbeD6H3HOE3KCb47LBlKfB2IzoMX7XLYxHOApCdxObX1p+/asE6D2p4U90uwfnLft0psFt//4wj0TnyAXOCaH5/7ir4i48GJU4xJ+aqdp82c0uU3GZIrfrrboMlrUS2mvlMM5iY5A/TxKcEKpOOJaw9WfdrxxBcvmpLg6reJV/Jfshztj0nomPzSvU6Y2VvgrstBfV5kZz967aPedYIcfeP/7MLbfLM3v+00ghJOG8907rT61a01OjLzM6gE+PA3nh6QXGWIZufvFRmgf9GsNjl+vIG/SoBL9lEG+vkS74ZB7VOdgTH88VyrzO5A/65fPVqgjz+KHe1dximt/vBUnvYOp3TXgsb2+I0vmSjudK9uxBI6fgQuh93C8kDjy97xpYfv/Ve/+/Bv/9v/9uEHfu/3H778y798rodL4oceenD+HJaHpB/+8Edm21Wcy2ex6SrjMafJoc8P6d41ruxc3vrg72/M/P1/8A/mT2t5KOvHnMWdy2I2izvtHV6UJHhxbEwKpxPONoLAN1mXxJ7kOAXK4F6V+et//a9P2u/4ju+YhvtxBc5lsNKYy2mfBhIqwCsBQE+AXCK73+BxuZcFJYp9o7WA7NEXtICNs/v5MP7mpdSPfw8G0Oli9a3NDEH8Oy+5Esh87WfKPdLFh9ackwWXjBWcEmByo5fcjAki7eQdT0H6j0nHO5q7XfEk98izfIamtUKTffEYt/5KvD6ISoT6IDCGXn/jZCYLaKOLD2aHctbH/2iOvjG+ffDx7+gHlUvuMQEPiufQKKuDK/rOAO8V/o2n/vzRvE/5gbbxAH90aw2X7H3ez7Fpk73TgXhB4zuNcpd3HphD88wmfM3zE5/45OH2O24/3Hv2orIDivh673u/5vBv/Bu/+/An/vj/6/A93/3dhzd98RvnFdsDD3x62vzpT99/+KVf+MXDz4+rQQmT7P4g2PzhjYHenPCLRL504KrOAcAhwWsxLo/RjpnPr835wHVl+Tf+xt84fOd3fufMLezBs8OLmgRzLONdrjqWeqjgIYlTnT4nPuMulRknKTotQuDlaadDGd64I64nyXjpMCnOkhQ9XPHjDO5JeKr8wQ9+aI7R69OCPejpU98Xn6wWf26ULRDQhPuCR7OPA/zqLkklnnVPbz35BNEB8ppD/UPDlN8rN+lauC4HQDrJCJNRP7lLfuPrnlHygk5KwxMTdx+BAn/Xp77LINff+ph/KH2MNa5kwy6LXRAkE62xEuZ5kL5sgOkKx8wmjXqAL/ShsH9ARTdPh0O/e1adYM6D9JzWW6uArsZDfXwRT6C9zynYeeuvDfZ5Xek/G9thp2/OlVf4zhm3Rqd01khfaxqv0of4F73+9fNS9RMjEb3qvvsO3/M933P4oR/6g4fv/z3/xuF3fMM3zLj2DiB0Qvz4uNL7mZ/554df/qVfnvvcrTJXk+v0uL4k4Y9puaL76Mc+Oq8YfdD2Vwb5XCKTAF39fdVXf/U8NLnK9NU6X7Pz7MFcemi5wwuRBG968OFHrvL6PXcdv+PrU98kgMTFiP/2v/1vD3/xL/7FOW4CDHXJK7l5J1DGNlHZHI8fQQQ+NSQ0kzHugYoxX6J2uS0RSjZ33X3vPE57Aftv/a2/PX9Vwsbq3bN9QelvgxdI+6LvixyYD/p4ABp16Ca8VzUECRqvy3iJ1xh5NmGnsCV/Bfdc0GELPh8WHsAsPesEoY5eyQfrqefS233DUZ2/jqLP2KI7JiA0ZBmHoBK9mS7bli5+AwV+bfWl93hCI1sifHgEt5+rope/BSw7wEyUw3/Wlayp8wzR8RO+LvkbA7sPTue1z8cvswymWdW1xo6yIot+zmOsmXWjw6XXTYOd7HSDU5tgNFPGmX1Af3ZW32GXC7TRwuRl36kcdRBdOrWN75fy+sJBOfv4rb7sKh7H//NS9vQDYuk52nRF5llbTNvrfh5Lcnrzm99y+OZv/qbD75w/WvCO4ZtxEBoJzq//fPKT42Q46N0bnH9u99FH5pNj/rNvPJm//eyvED44DkBOln7uzunPXxUUQw899PB6IDr31Th9jtwhP8gfb37rW2YOkRPcMnNpLIHaU2JOnO3w0CPrDZLfDjwnCd5953o3L8jpu3Lf/3PZK4ExUAZvg7397e+Yyc4JEG+bhpNsqvrIswj63AB1EnzLW946F9TPtEsifk/vZ3/2Zw4/9mN/b359zycEPRyCn52QbIs+f1ppjHN049oWWL05NI5vBzHh9FdAncXQhIKIHiV5FrBAAvWvZOFyfyVcPGuTmPtts80mvsgv6CRGlwY9DWU736Fnbx9IBTEe/NnlHcvRGMnwGOyzf2BAJ1ls1M8ufdaRrnWiWvPC3wbWhviAMW369UF/h+TRR93yOG44kB1BsuBuo801zquHW+bpe63N7B80y9/HhJ685Cx4dr5BIAu69QLRuc3gE8IGN5+1JmtueMlsrs1Hm//TTY721DL6+Ewbv3VR6pOASmTR4s2PaHYwno4w2bN/+FTfqE4kt3LpXAlMfe6Zx/1oySAYuPjM6+xqZVyneHUtu52+PGiTcOy/r37PVx/e/a73jMT3ZYdXeB1m8KFZ9/SePtz/qU/Op7xOeeKFXjTzIDD0+Py6775XD93r4aYHJN37c8jJD67snBr9AX5/n/rd73734T/8D/9D7hgb7Rg35wG7d3hRkuC9d981nWSCjOVIYAIcYqNw2h/8g39w/gS2Ux1aJzvfNf72b/+dIyneN6/xTVhA4QMCTJCaiDGLTa6kJnF6svTOd75rXmbPY/Xox0++Tx3yXXqru1dBngAkw2L7cc35g58S6byB7k9sPjU3A130mhN6qI1GWTBCbQiqo4P0WXR0PfQwbj6QzUPiFZ4zMbMN8OBf9OtkWHJ+6mnBOWhHH9g3Az0lr3SB7ALD+sPN8yXvpWvNc78kEqvsXjzqxthhXZ+49PhV44G+9Cw5C4E+6wBt2KeekpyOvosuHvT68wdozDcOnrl8aSbBxnc+yCdX6AdN/VPXoPe+mt8cFHM2qn6+uvyUWFwffJN2EJs30Ad2n4J0LfqV+NDsdbTWRTkTwvC3cXBeudsP+R/gP9q2EvLUcfbH5o2L6zE0+9GJJWOXxwmOHD/c++Rlr51Y7/DMT2PMB5zkNJrz1tXb3/62w3vf+955v8+p6w2vf8Ph4U8/cnjw0w/OW1f2nVhwuvQB7b6fOdK/PmT8neB16Lhr5I3bb79z8P3G+CBf8Wk+PuAhwAfMRV3usE5+cOWH/8gfmbcy/Dr884G57PCinQQpShljOdJEgX7J6D/9T//T+S0R/RwiECzEe97zVSOJvW72aRs3UXK0JSGfChzDUT4RbECAluMkQadDi/L2d7z98KYvftOk/fgnPj4d+C9+9l8cfvKf/OS8VLZYHtRIPp4quyT1g64WcA8w43TSJ7HAfZHaCCXs5q/Ez7ZVuie2gsv7jY75LSqZPQUHZyKugnzLNgENBGeBP782OPiMayvR5xsvsgqWfYx+JXErgR4Vk2szLH3W8XjPV380PrHnS7CD1V96QwODTof7i8hAnzE2SII3+at0m/7PBOmY+sYMvHy7HwbS0xwlNjDp6ab3DIm6cHF9yFhHMVBc+ut4XRKjJbYkuNorISm1AR9r06PUrs96qxuzLotm8J8lQdj6hOSyv7H2hP65tgPFsngUr3jmgeSSF9SXreZjXkv3SozZ5QPv1gtOrStprV/lXq89ua2D933v+9rD14yk58sLHnb6UPcU12Xugw88dHjlPfcd7v/k/Ve+5uqHdo3bt06aHnD24OOOO9ZfmTQPt78+Pi59L1xYf0TfHFwh4kNrHgH7xTMah6Uf/uEfPnzXd3/3SOZjT4499XzAJzu8aCdBwHCTa/MBjvk7f+fvzEfXFtPX4CQh9wUlF05+29vePi6Tv3hO2gJwsoSoTZ6HHhaY8yRD8tGR55htkiUip0GynTK9SuPym+M8SWaTe5H++JObqJAtH//Ep+YY2XSQz+lsyPl0KJsbuyRiNvjLZ4EgAGii5Rf9ZJhbCXT6ayAf7PTojIXGA/OGO9w6Ak0fm9JDTrJgmyioH84n1CNOulSHYPHQvx58rHnYgGttzZ+P6AFodkxOCQMk/2ifzbxOJzvEq2xeYf3kInt6rNHQfmVMmR7I7r0Njm3JeqzXyKLmYk75zZ/vZJs1zlay1u2PKWbW8yue3UZlY60P3NeB3SMLXsWXbWt+N02bAN3iEV2xiMbe0Ge/oJVw2GXcnzdlPzn+TMP09VDT1c78haOR/C5cXB/ufrLer6+43Hz3u79yHiyU+D3VdSq0b2dcjLjz4wcPP/jo4ZMjmUlqvriA1k9hzWQ8EqL94SDARveOyaB72eQ2lz+mf/s8DNgfzcO4uZmz/W1vkoH3P/lP/pPDe77qq+YL2J8pCZ7Ci5IE7xyfGAVOwPC/9bf+1uF/+p/+p3nTUoZ3CvMrECYqGNArJUFoghba4uFXLxF2GuMox3KfFhzlV4J9YnE6HuMCAw86T5slQsnRJbnxaNwv/NjHPn74xz/xk/Mdpf5OMocblxQhWWwTvEp2S0wWyCnJnwYY3XO8AMdfcotHvURnHOTI+Xc4zgIbbfpgQV5f9kw5A10O8BWsvw0C9KuHyQ8kgNrRgPShV5Ij+G0kfTbQY489PmzoGy3H02P8gC0AD9nsC5cucXNMUjBQT+Yu/0g75jfiAkf6TmH3BZr8BPBfvO2Wg79hIp76sQ+ynVLdj5VE1rrw8/JDsE5Qx3Zw6gdtfGHjTvS+R9ucm9cO4l4fHrbgE1t9OJbk1hyPp0+IVvyQIQGZIzkSnkvLO8c+etPYHxKfb2d5gVniM0amv3vjoOAEZw/qE3/r2xvr7wU98dileV+PjyRffRKihPqKV7xy+pROut331ybH7ax7xuGE/7xrWF5ojsVHSZFNbKDnz/7ZP7t+Rn/IOfn8/Izwop4EAYM5n6F/9+/+3cP/8D/8D/NS1aR+/Md/fI67oeoXYzjCAvkS9Fd+5bsnTwuu5Dhlnw6cowQCoOP2pUuO2isxADSc5RODLZIgGZKgp8u+YC1BruR83+GO8enl6ZOn1ezy9rkvbDu1uo9IBv6lbz24OILgc7k5gm9sCC/uAjQFqvloKyGYdddwo3RPsoVEBwsAyA9BPsnHF4f/bMz1IxJr/jsvQKuPLfUB9CP9zS+1kwt3W+sLaifDp7xL4vm1qbMT0ZRpbgMDuuvDm331M7uxdAfkrc21dKcDJNMTyHmgOtEdvRhLrnb+Azfd5MHI7fM7rU+MpO5VD6cbdE68JcHlu3Vbw0YNJMHkAnV2kJ896I1rNwaN8YGnpSagvQPaSnRKtpDFJ+akjk9dH+iyVuIwVycvH/yS0mtes/4Gh5+d90KxHy798i/9spHw7bknZ3Kzb/DhhxIg+7yBQf/EsfZ++t76337bHfNy1h5a9yCd+NahRZ8Xm8kxZyfF7t3rc+B41avumx/m+PjKXCF+ctAu3jvnpb+E/SM/8iNXfj7rukmCHFewARP6y3/5Lx/+q//qv5pOMyGXqD4JfApZMDQmZxbve9/XzUyPDnTs75OBbI7hNIuKzsLec8/doxyLNILZAvY0uEvO5NBHRsGD941veOO8DJeEX/WqV0/n+hQ0LvlZdPKUPtn8gefuJ5IpKbqxO/bBCMZjcAN6JEylIG0TkM0u5ewfwXVx2Prs2UIW0AWCujnUD8xP35rT7fOSer+UDdNRYGULO+CiGx8otxw3qj6XLk64wOWvSyc3u4F54gXssDZuPTX/9KYb0B3Ut5fR73POxjZ89XQDvLA1rh2/ObFJAiNDPxn1ozWtOy7eOk5EK9lZW/LQSXg2tXlaSydgD0vwZwf/eN3GhzBINx6ltjp5Ad1k0M+uR8fJiJzmB40BpTb9SokDLz9ps1VSocMehB7yuDpy9WV/eJDhFtFb3/qWEd+vn8nQ+51+fcefMn1inOa9vCzh9HCSfCV99hv77Ak/bOIEp59NH/vExw+3jT0wLJ2+83aGwwTkO4cDMWo/etK+bn3YHxdmUpNgHR58oDYvPuELczOv+vjSh9S3fuu3Hv7kn/yTZz+hN2C56rOGFy0JMlawAQ4yaUHlV6T/yl/5K/OpsDaHorNYOdoG/qZv+uZ5MitYOACQa/LogDogy7H60Uf9ec8nD3ff4+8Wr2M/XnQcByROCZbenNoT58fm6xme4K6gcUqUCCVsgeNeooQpQCyAe4ruc7p0hv4i3qOPuMRYSSD76WJPPqHXOJv4RgCBp0dwPS3ox240BtsAbQhgPmQpzc/81enwKSzgzKtNE4+24FKHxrJRW3K7eOtIDme2z7agHXJdqgHBPR+O4B80Tj9ofR3PdziH8WNux8tEdpAdtIFDvLsdK8GsQN/nT95OB7QbV8JiRb154jHv4pJcOkDrhP7W8QFw0zOXZxIkRxLITg/LXKqRNz+Ex4l/ybw6CQ4LZz9Aa4wsZe3mAtBaP/o9KPM+XfZmW/OA+ujH3ykNb3IkE1c2TnhvfOMbDq9/wxfN8ou/+I2z3/ytGdr5gGLMd1g+5Tz5xJMTh/Ap257Szwa/2rwS4LNDzqvmvva6DDr9TpOuot7/a792uH/sjQ996Demb8ydDA8d77zDj5vwvbV1VbT8ofSd73Wf0v3Yx2a/vUE3XdbMvrXvZpyPfrH4e3/v7z38oT/8h6cvr5t7gvvl8HlgQn3KcLJJ+aToU8e7fo7MP/qjPzoTDidyBlrjAiHgCDgDeAa2e1OPHx597OEpr+RgY5U0BMty/HowwaF49dm8/saxTyuJkX6bxRhapz1/7V5/CVHQ4afLPbFfff+vj6B4aJ4SnRbNTaBIvuZABhvopzucyXB8YrsU8GcgBQ69JQQlnj51zcc4OqDtcljgdV+O7xrDr4/u5lybXDBSpqwwbVkbzqfxOjWjMUdrEMxNP2w44vhAmq83HNeFHKU2GrbXv/NesWGUbIPqxkoG6vnDWP3RqZMbJHvnpz86fgHGjUmCTz85PrRvW761XtYO8MPomvqn3LNcvOR3WT18e/u6l0UHaF7G9QNjdOZ7MsE8QY4xfm7tGiuZiOviVgnd2nE56/bOm9/8pvmh7QOcLU5Vkspau5WUlm7vlK7v9PozFvff/+lxCn1kvqj82EgM0x9nMWLeSh8EYMXH+sBhPz+S/+C43P34iPf5vukAiY593oC4eMHV20qAM+nNeldBY82eHX4aV3DPPCPprvUwtsaP68tn6vro97uD3/3d3z3H7J3r5iT42wGJxFvif/7P//npWJPlSIvfJ4I+kGMAhzq53HHHxYM/Ri7pSLZkFIBoHd+VObmFmDAWwqUwGwp++iyyhRd4As6xfd0TLBDXvT6b4Svf5Q+6rEtfetjgMtp3piVEN4rdBvApln1sA/M1kmHP2GJTniP+HZLj0Nuv8+DV7ocq8HpBGmj7Q9eCD605QsAHdJnvngQhPjh39jhK+i24AK3LKRuHX3b/g+TPtaBvfKKXFPRdkX0GJR6QfcbZC1vzsLVJRjGgv+TVXM2FvdWTjR6aO5/j068N0AJ/wH1IHb5dc0TL33Sak/iw7mCIHnzsP166AvfShvZpU3YaKw4h2VC/9aNHvF0el6QzkY61ZVtxK/YkNiewN73pzfMDWNsfHPLCsHjsbQkPBd3PfGQkNEmOnt7Rc+Ag1z1C+iRAf7QfsNOrTQ98+oHDpXEIsU7mil48a/MBOrxOf/mmGBrePtw1Tmvdk5bc+GDthxGTZ8lPv6uVqXPi+oAHTzwhKV0dE8CaQe3Wld5/99/9dw9f9/VfP69eXjZJ0EQKuum4MSF9tQXx5cvPzPuHHkxYCP1oZP4cHi+Md/w/Tme+J7w+MQSeBduTjUXLiS00FGgW3E/2ENm4vl2HwGSjMQtikfGSMRPi+MRzw9flfA9dBKcxPEBClwQFkgTp/or24yM4P/yRj8w/Ms1uNjdfdtBnA+Qz82l8bfJxOTU+rZVtemV2k5ftxsiAzY+siy5TRhACSX6+hD7WlC6XRGQAMuEOuJ4ZfS4b6SMbTcGsjp++HY2xZ83x+I0O9OyPFy3++tCAxrU92fVAap/bboM2uvQmV91J8IH7PzEfjJQAih8Jz0ZWt5auFvDQ4fRtvuvpsBhdesNiEQ1eMsUyoMOauNSztuyX0MSNWzDiyH0+Vx14yWveYE9ITn3rPdT1233izGHg8SceG6WvM64HC+T4YONHe0XixWMBlew1P3QeDNkz1tQcPvWp++c4KI74cN7ru+PO+SG+P5hbfj/enuHDKze9B+iTFCcOA54cB5jRdcZ3XB862dYe4gP7zusxb37LW+atGbRXvST6WcB1eRJ05Ob8P//n//t571ACETD6gMVdjjtOtmCziu6rOBFyOqdZODgXeQB+i6rkSE4lGz3wZ/443xgaCAQm1DYO0qvdxvRiqmBXt5HYX1D3RJo+Qa1ffdk+NsQIYN+XfHzY12kRuix7bFzSkOuL5gLCL2qYE7svzner1jtWt98hYa1AJpeffALPp9WDnl10rg1wDFTgF2QElheaozUHPnJqkARB/n/OOsDBg5f/2qzThtFfGRjfbVg0+BevdpuHTHPSn6/1xYuGrPWy9NAz+M77lWU0Ye35O3gDbMJnRxK7MNbBvOmRRJygJDofCmKHP/iaCLEpvpa/XTL61szxcpscWIyxQyISD95UcO/ZGL/fNWPlrvnHxosztHi02aJPcpsxMZIa7CqJPyQ0D0Dw4WE7+1y+sufOu0aiGvLyAfr8qv3EoDUnH6T6xCG9aPjApe1tww9iV2yvfcO3PqgHDx+Oev5WsnlHfts/KCb/Wo75ihbW+AAatkD6tM3JIeM/+8/+s/m1updVElwLcgzMfbLA/UDH+7/yV/7q4f/8P//PGUAWU0ACCzQnO6AyJyl9wnEUmRauAAUFYQmGLHIhfpcNjz/2yLzhKzj1o1mfhGeXrGe2GxO8Aks7GwSfYNRHn8TFfm1j5Ah4Jyyf/ALJHOnTnqeBQadPSR955OAV8OpsagOYD3xs+M53b32RHQ2b8Ids0M/m/Kl/BbLAdM9t9cfbpTU+vmxupzh5Bt5257pc1JdP8LQ+5Bgjs/HGbIZ1ibn42VjQWwfYxjOe3No21prJSv5BepTmTjdsDE5ZIyE8/IBLxpX8rS+dkgC7nHbQ0rf8tOaObq3XxXG5+kZSJ431Y68PPGs+k9Bo8yM/0KlekvF6kn6JgL3W1ylP/AAy9eFhF/58wI75IGucJOmfT1nHgSJ7fbigW3M5fshY3+W7Ef/PXD788q/88nzlZX17Z8WL+bnsVnqNbK3BuOo4S7zq9FwaB4B1Qt5uMU0YseRWw5iXDzgfEsvvrbv1XvF58SwuA+P6w2wX91/zNV9z+I/+o/9o9l+Bl0MS3GE5YrErTU6ggL//9//h4S/9pb80AwkIEg7fefbJFwyCsQXAYxH16xMMfaJyIjnoLarx+Un+xKODZ10C4LURC2AgoMkls0VJpsBskykhGnro1mZnCdRYAZ0eM1K6PJIoQ5+8+pXkJ4N/1Keewe1Wgh+YJNd7Wy6D2OaEzVb3jNCywzjd5qmcv37ztKC7+kMqyPf17WNgjB7uHKeQvgaHlux90/MBX/TVOj/F3tqN6uBbyaU5QsDnkCz8IL61yYctQ8AdIxFJZnu8GCMP4uc3yJZ0zLlJooPW1YR1hvnXyc9JULzgU/dEE5j38NR813OoGLLW5qa/GMweCPId+9dajQ/aQechxp3jEGBOYnT+uvJIhIAt6NGKOaV1Ixu9BPi6171mWLN8uubOIPfa3GJ5Yn7Itt49vXWv14foIyNW7n7l3YN3/RqM2zrAfL06Zr7iaL1dsT4g+BStNSPfj5fk63zgw8l8mWKuDDL92TcQ7ZX6kBPMNZlzWAcKWByx9/f8nt9z+MM//MPTb9fdKzLPByZgMsAEgUnuMNZ5vnry3/13/92ctMXnPHSCYG6YE159U/bYRC1C/RAdRFMQFTxthptuHifJ2/zAQEGyTlPoBKRLELT68HVaaIHI8GlMH3uheskKDRno8MLmBDz8YBcb2zTG8XaaIEMfGeRK4BLj2rDjhPnKVw2ao3z28gUZ+J0k8gP72qDm67fV3P936pkbZaCfSbdZ0Jj3Aw8+MG3dQX/r8exw+63zlsS6t0cOPeRr07uvT7zQFhjDo37sZ2v+xZMPAFlo+GLK48dnxklzbrLlo+atbJ1Lgni09SfPT8FlG3vJ0eYTtxmsnz67TVvS0uebQm4Z3Huv162W/eRNP57FkrYPNGvcbQ663Saxhk6A7g974ds69cFKP/vZjCd/0sEXZKx53na4/9OfHOu+aJ26xLrEdemJtY5krvVcyRifBOf1lQu3XTg89NiD8xQpnvrVnHV6W/MXb/NHTW9btwvWuqyfwZIE3VMWf2zG40GRKyzAbx7E8A9E43S4/LnGn35qxUd9QTFgPmwyjz/xJ/7E4Tv9zaHhDw8Lh8KXx0lQYJlkdXB1W9Ctifzn//mfnU9TLbKFt6lLDgVoztKefWMj5TBja/Guvu+BX1tg6kM7N8YIgicv+SrOssd4gQbwFYDGyFBXstFmcynf76OR3UZkC57moq6vBUfvqaypOyXppzubo7P46vMJ7miPwTk+5zpmf/HiShLLlhWoUFDbaCWAEoOgjm7s88Odd90zLouOHxzpBbV32G0crXnvcv0+3/EEJ5nynfs22TplQnxncm8Zl2Auw7yEbOO2Pr6XetvY4OyedOY+wBigy8YbHyeHm8YpbPrwzO5sZxtghzG81sEGZRM7nSicMJzkJCrfcFg0kodk98jkk0Sg5OAHKazpssEVgMv3lexDPNki+dFvbmRbAycrNH1AhqAYg2SZO16QXrxLz9PzibC5olmXzuvDx77ysjIbfFhKcGIA//LViDc+GgeBxy+dfZd3JDS+UYoRfU6HHjxJfPFLjuy0lI89sr7Kxs7l17VPwGCfp+VZTrQ2xw9B4H70fGdwyDBePxuh+Ndnff7Mn/kzh69573tffknws4Gn55fVbzr8xb/4l+Yfb3e/zKJaaLA7jaOWMxcUcBwG0O3BqF3QJAetRSNGAhZMxi0eWuM2oKCDPo3Yg3dtkPU6ztpQg37YTp6FhCUedUFPBl4LKbhbYBbfPmisI3597KBLHX99+M1z2b2CxWlFoHvAsQL/mAzW+NE3ZLWJ4JRD9rB/nQLW00/0bBf8Sl9rIscGdhnFluSYu69isde80JFrzjYMOnz6s8U4mPaNzXTh5uGbsRG8MI6P3Da0p+YSKrtCUYB3+oTMZ8e6jQS1PpycbK2jhLPWjA3AGq+v+rmkXDaNaDo8PvSok+dDgWwfLp548q3LypvHJd+c87gkdFl4YXzozfg4+7aIj6OlY8nxCtP685HrXpaS7SWRqWv00XN56OmnpJqXMX6aOobermRKjCVK81Nv3fA4tUlgAI3LYQmQLPTwyjqM0tNlfeTWL+Gxk27tHfXzG5usEd3tG/zTfwOTpX94ddoDGgNKP2irbA4gGfmNHh/oHor4MkM/HTfhmAo+K7hukyA/mdf//r//f+dL0ybMsZBjcsoO9XES2B1oQQumU76rQfI93sugL5kCAOrrdDAXbWDBJwnYXOulz7UBCs70k2U+ncoKpqlz0F0cGdBl0dxkZxuEbKAdLUw/1B4HoSmzp7uzb4CSbmjjaRvPJjhphv3mv/4Y0UiIYzOC2gCdkypaX7UiA5Ah2ay/LZE/lo37Bqp/yhky9Sm12X/P2KA+Dp49C2b9kgifS4JD4HHOg+bK3M9oLw55zc16jGEjZ+PrwVWnkdYLHznsWKefST5hjAya8WE3fTqS2KNOScMXA50+/WqPRLjWxtsBHmIc7YH5uTqkqySvf8I4BT88Lil9/xroFz8STDHgaW/A5vwH2eXDKl8bJ19MqLNBvz702kAfYJf4KF71N5Z/2NR6KrNfYnIYwL+vPaAHL1nNAyQT5KPbL66HgXDnD9HR5WutToIOSINw0k3Yqp8NXJdJ8Eo8jMn81E/99OEv/IW/cMXROVAdBuocpOTonAf0cVxOzvFhvAsF59pUOTyZLTiwIQWnMRA/tfs9DvYKYFjiJJO8FpnMK0E7Ns8zTz15uDiSjk9vqB945cM9w+aXjmyozz2V+ujYdQG27LDTsN1Jxlz8TD9b5/g4CQyPz6Tnocekd/m06Z5/a3ZsHpfpkosxchoP+U2/8V33hCHu1iHXzXUwfTbWZMqfNrlhf8d8DQP41xhQzldj7IJNv+E5drYuXqRfbTpJWLJme/S7tDO+aJyOzu4HSoJDnifwc9rPjvGxTjehGTpXjHnReZ3kyWt+R//ePH9P7/ihuWJzxgWfDDmfHpfgynjmvM+Skrb57zETrrZ9sj4ItUFzVdY++ubqD1tr4yogffrJzs6gfqgOrJXktCdBeoE6XWjpANmVfDzw7pHE9e820w3ZjMZtg2/8xm88/Pv//r8/H4jMr8uxY8iZzv9NwHV7EjQX8//IRz52+G/+m/9mHv05KycsmqV2X1SY83LgPtZi5GTY+HI02SvBxhO9BVR2GWHR98U5yl+frOjxHmUvOoDXZZF5mc8Vewbvk4+vSwrf1/UHZtKrpBvO+lh8idEYfYJ5Xo4NeS6H2RLusPulsb1++x1e8Vn3S9m8Bzpbo23O5KGZdoyE4RRIw06nRAfZv/sCXzbpe+IxX1tb3/rozys2Zwlx8p3RF/Dxz0up/tOn42w9g2nfpK/vOKZ/JaPabFsx0q/j+H4scZKfJInHC+pOQR6SvP6LXjvnx382fH7MD+5fSebG+NMYXPpGLA+ZLr1bU6X+ub4De5NBf2Pxjn+nbftY43RDfmQLJIdv0Wqz1RVKH9jJMcZG/PMkPWSqA/Lm2pzNCTSf1ha/kiw69DeWXcFt41Stfx8nj3xyyHBftSfDoKfD83bI+JD+zcB1nwQff/zS4b/+r//r+T1cnzCc0kmGc7Rh7d2hp2N7eR4fB++XR9oA3b5oi+6YBHZ+6CkZWoul3AF/QWhhlRb3yknRC9CXx+YYi0omUKKNV91mKDGE2vq97L3bnC1OaP3oAUADbHoy4XpwMQJtJJc5l2EHmA9szuYy/67ssLnNzT6y6JhB7pL1xCcgW0qCcO9HP/4f9CMBjLZxHxLsKxlMvtHuFZzuBU0f0TP4H3/0sUGbX9g95jn+nx8M47/ZnjxrY+aHgFx65n28UbIpHCJmwqsdr3t47o+67+gk6EPEuvJRmzcwl/TSpS2xQKeZZ0f/7tN0mA/aZdNQvvWh0e8U66GHOpjrTuag1wf1JT/fp0MpyYpFtkeDvjmkDyjJg+jx6dv1a8ernQ1Qf7Tkwnk/+EwvyPb8yE8eXvnO8L/6vd87aToJft4lQcgP/+P/+P+ef6azT0CO5hgIdoeBnKofnkJ8IDlHeYJjnUii24MEWIz00RWt0tizzy69oTHlLkdpwQUoGSVBm8cLs27Uz6Q45AkuCASOfpDs3VZ9Tzx+9vR4yN4xfb5dQo4nrreOZKHefIbEmXgunr3iwjay8Upe0dG5z6k54pHI68PfetBt3FzyWzxQPTofJP2On344/cs/wxbJ7wrP+F8CnH4YG+juu+89zD8fMNpAQgfRrDkdS3bCePTT413L9QR4S4RD5EPjBG9d1msjIz7GSXGdSM0Z/4iP0czn/OYDvA8tPtvnrM+4zW3MHw4Cxo2xjc+Uxl0OL5uO9+bIKVZ6f89cjUOAB7aG+9pB+shiB360QeuAhw4ym0M2ihuXw/N2xaAHxkGytNNFVuuhTu/8gBw+n+t6BujRoFWP70/9qT81/+b4/CAc/YNpMRxZPyu4bpMg8NKvV1V+9Ef/P4e/+lf/6gyU3XGQU1qcHLc7EKA5LU+dnIOdAp0etOEuOzrtFrNLmsZ8Es9vWHjVY7MJ1I6+tnl0GeH9uvnHbuYGXIG/5K5bAHgEC56CXhl6SdiLvnYrXuO7jfRlk/ZzYVzujKAWjM0R2ByQfqjfeBuXjUBffoMSixNVfpsnyoHsMQc084chRt+ya8l1qwCNSzNPM/H6tJ+JbH5QXf0hA+lYp8j1695+MMCmtKbR0WnTTv8NX+GJV9+0ia6zuv4FbCNjxPcrXjHLqXf0sc3Jk93qd9+9vpa2+leS4DulPr7VBq2Lfgi8sA208QB04AoNAwakB2Qv+dZdnf7WBKRHO978gg4v2OXnC/V8h2+fI/DhLBE6rKTPWPJBfPqUMBuh8XncHpANyuSp0+FhiB9S9X7lvBc44GX1AwqfLTz1lMu+Ww4/9mM/fvif/+f/eS5QTuTUfSPB6cABBVjOU+4IolfqIwc+XxKsrwXD1ycmmiVn0Iz1til2+eEub12q+WRdTz6B31PzQEIQNzewb5al57hBo9Fe9zRHwhl9+lffosWbbu0QNOZS8YnHHp0nREBvvEDdqXXvZw97Ab+A5NG9z0UfGvzN6UrwTxinm5HE/WEe9L5nDSXb/CcOrKL2jgv8Cda75q8QffjDvzGfpNJdAkLX2mV/qO1eHNpnh0vp8kCoh1Fkw0k//NOHgr6jft/2WffMjOEjDzZPa71/eGSTtpOkDzA2Q5BsMsxdYo+ensZrK+NdMtdc8ZTkrEl68RhX0iGm8akrrZM+4+bsMIKeDGNkoCVPHxrjAD9gj3FtcrTRoO1BjzZ5t84HTSvW8MAd/OCIvxf0X/6X/+WycegfRNPG+a7g50sS7BQIPvCBDx38wXbBwzEWUsnhEHAG4NwcDYPdkXjPG1sOp3dtkr0fxKO985NH71rYkaAu20jrkx9dY+oFlTlAbfxu1lMzwvXghxEAPcZCMvQ1590GsOwcl67zntTSuXhWQLIt221CAWjcfSxj7PHrKT1coWf2jSDle8kPDxlhvkbrwQAaJwFzTL8x/OpobSJygE/1PgDIGlKHbetybm6I4cMv+ZIvmb+i4olgfoPp5Ru8NuN0wTiF+6tlbp6TTQ59vuamTjZamP3B9M0dK4n5IJtjwzfK0MvHyw+Lhy8H55yfU7i1NJ5s4+ylWwLTnnIH8CH7wZJ/mLci6idTqW28eVaHQXTH+R5fi0kH+j1+wmRFr65E2zqDXU581mj546hbyXagv7XP5+Qq9wSojdflsDpofYGSXH/353f/7t99+BN/8k8SbiJzvPuCnzdJsJelwac//eDhz/25Pze/Q8mhOZyD+oTiXMDZHBii4zwluhZZuYPxVVqMNXbsu7oEOz95R1ynQa947EkwnWzSZq/xbIxGEvCqCdCf3IJKvbHKaCD7b79j/Q2IY9+izebsgMbJBdpOPneMk4wbzMYkLIHKzxIK33uFAhi3BvqhejaS1fzxSo76zRsNuTapvk6WaCWRZ2/yY6brD+8DPyflsoccJ9T5JPDMd/gXn/ub4wQ/pnppXEE88OCDi37QGZN4fJ3SvUaX2vp3/0Ny3FT31bfRmO1R4eThjzMfzn/X1UYfKurmxF7zczVhbm14dfrRSPpAPwyOazSS6qC3fvrMD98V+6ZNxzWsz3iYHfVf5aMxZ2sV347JxUP2rjtd+vbk2hh96mJAvbVrjsbw0A/wGiNLnzGoz28ZKvGgC9hCvleMfuiHfujw//zBHzxeAoNBP4QcF+mzhBciCR5X8gUEicicgO9a+gFJTuDgIKcBDtsR5NicmUPrj/8UzxsLkl0JTuWx8ZZxip1/rNo3R0Z9/mz4WZ+TmnJYNTbtSEBj02u7vz4kz83sEswrMFB9XpKRfYZo9no43xNzchnLIhH7E4uh3zm84/Y7xya7ffCNYHzW5d6ts8/3Rmf/4IcXxqnJj7M+F/39luEjr4YM9O7c409cmu/OeUJaP36vktx19z0T77zr7lnefc+9hy96/RsOr3nt6w6vG2v6xW968+H1b3jj4d5XvPJwz72vOLzyvlcNmnsG/0ocNq4kKfhLWm2afa1thpKtb3zY6EACdzLFY2Oue4R9MNjINq7ToauK8UEzrkC89jLXcPiBPvcIexpdLKz1Vmrx97BlJD+4r5/6vDUxqJTaQ/lEfc9dwzW3ZcNai3VVsd4BhL22E5rH1Xj1B/Mes7B5hPkSbUkvnj2mo28d9jXYecgJ4leG2p2Ok6HE14eltdqTf/ten5hwiwSky/oPwln/XMAxQ7xAwJfmI0DB8Nn8C3V9woGcmYNBC8Exex1yXv3nARnJ3Ot7G+zyk53MRbcSuDLU3vHKaxtj48CdRl3fuoQVsMf+yvUKz3F8fV/V1/HGpatT3DQH39pIbZTay69kCW4nJZeXXtFYTyjNybz52pyaKx968KOdf9DYFAKzE4+b1h5odNpTOj2GxvCyQ9mmAj7VyZf0lFBCk+DmGoz2pD+rz5ej2Thk+cpdl1LsYlObjZz5a8uPrD/3GLDBnPoesDF/qErftRKC+66wNfD02RpYV+vgl1xg64zOmuFZD2lWXODVbj31oWfHsoXuOc0r2NpdGxfkV3OH/GEe/Lri9IiB8eIZ7jT5FJJhL+6JatfXiROt/gAd+mhhcQXJdVLe7VKSUxs9+Q5FgMy9/FzBC54E9yBtbi6H9HNG45wJc1BgHHJsdU5qEarvQMa1MB1h/OEuf8lSsnGhOAj3Nrod6/ee4DNPjyTwzNho/gjOOC3ebPwMhwcmqo+9N04P43Q5TpkLR6DalEOQk4WyRDG9xM5hr7bTSieT+X7VGNbmI1AAn/qQD4BxCa5fRO7E5RToxeJH/ODAuNRwUnRitH+h3zrU/8lP3X+4/9MPzHH0ZiYxcyMNrS+YuktSY7PMr+s5eQ5aL2hfGHaz3aWke3J+uURyGZzTXihR+REGZbIb23GezvhuIJrlw3jWJR0/e5VJ6R6e38C7feiG1mNfpx2tZePq1re1Nj7ET7vz+Xl4LWh9SkDNJ9jXbx87j2aHnRZIViXC9pPxU5+C5GX7Lv+0DOJPRrz00SvOXB2CaOidcCLrpYIz7S88CLj1Sf3MvC/kUyaHgN1ZOSNAUxI0VlCc5/hdxo47aLfIVxx+AotPjWyLzU4BYuyI+ykOxqO0QY3vaKzxtQmdvhbu/GGfstm6b4rmXb+Sn5y0oBMQnzffeJQlhk4B+smQCOGUNXhdWj762OPzj+5AydALxpKfn+oa15czKapLgOvnu8YH1BnvEDz0eDjgAdlIdCPEnhkx4GVkPxKqLSm5f+l0a9p+dcalrPVec3F6XCdIJXvNYd1vW/GxNvE6nUF+gC6h1yl2nCTPTnQS3nD1lDHrZ75hpO9pr0vhsVbWbMxjyVuy9zVTnwZvSMzeviL7HNj7+f88dFJCZ34uL/nAvADZ1wI8p+P6YLL5LfsgqD//FR/Lv8ckKXbEC2isfkBue3zXh/YYn5fnnxuwRvGAXpr/XMELrj3nKqr7GW2XUpyQk4DxI/2qc0wOBDm/xQPRRr/jDrseY2TtZf2n8sYevQq75wfdB1R2j3B912sECrq5YY5JjLz0Jzvdu17QnLvft/Ln4LnJiXBcFo+l0qeE0UC/jgIlnSuGDpSYJKywZGXML6i4T+jen78tMXG0b3Fp7BJ4XPbCO8Ynt3uJ+nwN0Gso857faHvx2SXwer/rpsNTcyO5L3phJjZ/qmB+b3mo9FRW6bQ4L+0lwfEfuyVPCdL3pt0SgBKeE9rZbOfXse52ST7s8cerJLjbb7t4uHPYdPedw1bJb1w+L5/Sw6/HJDX7Znnm7+Hr+bdMxsnThu4EJ0mC4rQ1w6d9XmLY11tfa7yDsWScIl070rFsOn+vxBO//t3OU9roYfbtNjZmf8YXaKOV4NyeUEfLPkA2Pm3ytAE+9eairs+vxkj0YOo/o58fQie6Xyq4eqVeANidaI5OR36+yU87rVdJLJ4TXnPmhIXanY46ReEPG4+m8ti/AvEU9MECRRnWv7cnnv03L6XOUFsAMLcx5ZX22NgW2ElIHdr0bXwlSmjta+80ggXSswcUqO80sMxp0VxNj8YncE+AnSy8quIBg7bLkz6h0QKXqvL6hVs9mBmnkvHfTBbjJOgnrvwVNKWHAMaV82+kDJz0Yx4eBJiXU+n8qaqB5ibxzh8IHTrmJfagmqvM32Pc35yd435AdNCshx7rxXNztz4r4fDZmqe4cEpb63rT/KaKH5L1zRfzctN9+vHMl6frn0zrNnFu9OO92NYGu3t9x9P2muf6BRqv1Bzvdy/302ctV7zXPsV9jJ3may3IYY/kwz7tGXsb7PHRXM4DdHjzIdx51AM6S+x8tWP9oFhUFmPWyTzGMowPOfuDB4ev9I0GXrmArGDxnM3laMZLCud77bcB/NnE1ieL9wBvmX88xo1n6FJDQtQvOSqn8zhuIB4oQLrcCdEVWNoFEXq8nNkCAwE1N8NYrPr3RQd40Nl0MxE9I+CMkOEhgEVn09hANwkCm4IMQSRYbHqXps/Mp6yduiy/F3NtcPV1CFuvgmjPjT820BobATVwnS7H/A5jbgPV/WK2PXbLreSNOT3z1LhEfWxcoj4xx/Ur3Utzn+uJx8cl7EDBJxjd97r7rjsnanc/bN1/XKjdvTJ8Tki+wYLXz8Xr971itC4fjSe/tne9pleGkXwpQTzw4EPzctpcZzk2gB99feTxxw8Pj2T85PDXTcNHXsrQ50n0Pfe4R3nX8Pd6AGN/WB833q23xNfDC+2nLo8NOJC95ugeYw9aOHs+fBlCxIENaP29mHsHWknPB9dAS+6y3/pYF0lbvUv++fuDF73Qe/OkM5/524FjzJrrc/kuvMT1nXf6ZXDxIlmsWF0xKpmue5/K4hpfMVr8lmhKOsaL3+LWvMLAWAjik6zQ6ZdgXaHRZc8qJbRTnpIWGvqyT31v8//60wheb2I/u+2pFWP+at6Xf/mXD38NO8cUnhxz91uO6s+uKX1O4AVPgqBFUuZQ9wLUcyzQPl3cHTm2EhbAcAf8YTxg5wV7MEEQDdlrsfEu7DRwXh92GzRc4nzarR8L2O0A6jC9INvWJ+z6BO6D4BSJUvZBAnuSCX3TwcZLJT0CVOAKbKdAJ0AbQJ82lFiUNsfcwGMz9pBi/tINu4e8+mqvy8l10jL59TDneDkE9vkHftQBhUtqicgm8Jt+/nC9S/N8CfNZfuLXq9du+WS/WnACZBs72cynTjcu5br/qa5/xhPZo/SiLkxXunfMBniF/2RMye/5V73xxsAuy/gOuw+D9Oy466wvOK3v9PGA/Bka6wSqro/N9g0ZJcKdB5DHJ9SOJREgM5bUrdGgnDH6yvteMeVfT/CiJMEcrMxJb3rTm6bz9DVeUgKnixYd3NvqIUi+soWqvfOBFhMaP6VZi3i1/L2996cvWcDYHpS7Dpie2kF0QePR7GMFcZtQWdCuBwLr3k1BnD52SoDNkczsL6j1d0oASmP5zXgyjdkQnSx2uvgD7XThAad2hdHh2fU1z112/SFavPjQwvqVfGIMoGPvrjedQXbvOqPZ7Sen/mzoEpHs+JXRooO7vvwKKgGasH71bFAGyYW7b/JHY/ECMsOdHp2+bAZ7vbH8t9u00wFtbyF4Xa4XpHe7d9qXGo5WvIDACRyjbHJekOQokPO19776lfsiNVbfjoCOcG8DPBYz2uCUZ5cXnLbBTncqA9Rubo3hyZYW33hBBCWInWeXU39jwenYvvkLZpu/oJYgq5/Or6Anj13KoP7TJJuMeLKv+Z6CV3JcgknY7COjEqRHmYwQjVJ/uPdXb95KfcmE+ZqtzTHbs39v71j/zmPNJDwy9WUH28AuC03zalwbZnt9QbRhsuKDdCj1g/rq32GXBZKhvft378+Hyd/5swfu809/6MGXv9UsEQbN93MNL0oS5LAgZ7kcFpj72Kmjo83JtXeea0E0LQasL/m7DpD+fbH2/vh3OE9GoJ/+Ntl5doQ77P07BruOXZ5S+1TnDuzl99Pkt8vAFy+axpUSiYSnBPiTtyOafIymxAb3PjokDpfhsJMhfeZQHSQvYE/taHbI5h3rpzcEzaMPiD1h7ngK+PPX7rdK88FHHrm7veyhV6mdPemJ9tT+QPs83bt+PtyRPVAdDV2nmGy2aaOV2NHrg4Cc9IXxsx1m9ykdWZ4Mz+8HDx59zS8Znyt40ZJgjgucAHyR3uSNh2B3YPXaILra58FOG72yBVBHc0rXIoXxgmg+GzyVcVo/7QNsMc82jGSiXeDBbK4/vvNoogu1yXbq8m4WpAdPOpXoAvbxV5tmt13bfcX95ANO9e2Yjer0lfygy0Uy8Ea726IO6c8WsNtT30573hgd4NT3exn/Pr5jNIDsnbZ+9wH5xhieUz/oA9mZDKC+yzoF4yHe+CHAt+vR3ku48yRHGS+/7QmzftBYiRUvma0t1IcHL0gGfMtb3qJjyjkFcj5X8KJpNukdbECfBDk3QNdCAfXThWysEv8uI4gWH0TToqXXIp3iLisa5XlIDtx566MrG8JTvnScQvTBaTvAq59/SmKnGw3GG23jBezpZW2+7gSQzea0960HKOvlV9hmMKbcIR81Tr6E7APR1/P6pkoJGmYHUGYH3OWxC6pHu697dCCZ2dB4MmDyK9GAbNlhl5/e5AIyyNTe1wM9iB/Eq82X6jsGyU5efFC9/j0Ootlpd9jnsduujie+Uxr1/GQ8fer6Adr0GfNtn5kEz/rIBsmt/bmAF0Xz7qzqNl5fn6sv4KzdYS1A2DjceU/lADTxgRasxdXOhjDY5e/ljqf8tcPz7I6ODad99cM29bVkNwbIoKMArL7rsqkkqja69g7ZCZIP9JVgAZn01ZfOHbJnn0s6lfWThS7Z7PMzXn4dBhrLRwGe+Jtb9fyBL7nKHcjKL82hvjC6XXbyQ22gjAZkK5rmlRzAHmPmusvDl91k8VOyKndIfjxh62EsX+d/2BpAcnd7TxGvcbKaS37QT89uW/KM5xf1xrKP390SA/qCfPS5hBclCbYYJpvDtD0h1vaJ70TAOTnfQnFUjgvjD/AADj8NwtoBfvQt3E4fT4uXHaf92gVDQQyMhfHC/YkgjCY51dlmXBBEU0Dg5w99ePglX2WL8U5luz59SvJBctEYw+cEyP/a/t6DPnI7HZYowt3nnR73kyRddLDF3FwSoqWTrP3lbPIkPT+t9olPfGL+bqAXuI2h7XcNz/OhOrvpa17NLXpgnB1oyG3d6FbXl6/RGcs/aPCLUQ9wyGBPPOj5w9ydYtmcHfiiBdrkdu8T7X7yVuZf/eSdQvaF5Olrfvrwk02mPjRKbcA2dGjo00ajRKcPsr21xRtdoJ7NoTZb0Jojedpo02d9X/fa180HI2D/mlx2fy7hRdPexFook/V4nNMEYgsQnC42qAQt/E4TkhPu/Tsfe7JJey9B9Nl1Ki9QP9WzI/7wVMa1cIdsze76YAGoHm8boGAUfG10upUlxhIIGgGvn50B+nRkQ4DfeHMjY8fmW8Ihhwz9++awISQFbXbb+LCN51dqJBi0aIB+SC5Z9BnThukwn/oBGWGwzwtddu2+1ZceoD+foAPpRENOMo03d30wPtjcAX7+CkqW+bN54KOfv/A2x3Sqo8e3z08fjGfnDdRr402uOkCfLew4lRUmIxvJwAfYZV2t8fUIL0oS5ISAc2q/8Y1vnPeBCq7d2QDtjvW1qKD+oEWAp7z40hEmay+jV54XNMlGe97YjukPA7ynuk7r57X3fvwCcZdjTm0w/TYLUBeQ2miNuxcnwajrY28yydGnHX+4t0/nm7+iaSMK+HQ3rp9NO6YXn4RQHx59Su3mp41+t1WdHRLIqT0hiA+i2dca0JOOXXenI7Y5ISrR7bqSac4we8N8DPCTpz/5yex0TYZ2cuFur/6gMYiPLPrCbCIPDWiuydFGq30qu/1KxrUAfzKKASUd1sWlcH9P5HqDFz0JckbgZriHI5x8ujjoWtzThQBo4GkdPB/tedD4qYxT/bDgMrbPa4dodyC7wNgxnZXxJj9d9e266wPJir8+m6ixNps2ml139XSEArd6utCSkdwd93Frutf3NVYHPQBxKkVrgziVSoD0OQ2psyNbwC4z3O0ByvxUuzGQ//IFrK/50tk4+SF95sG/sDmF6MmojYecXRdsfUC+ST6fWLNk68cDkqW/duU+J3WAF+46krGPQ3zkljzR5PvkBupw561OD8AL2GJc6UdUrld40ZJgzubUHMtRkuA+noPRGN8hGmWY08+jB8nbAd+uM9hpd/khHoFwuiFPIXqQnB13YDP8TPTJjK56Adb8tSUNtiU3m5OlLbm4FHXPrctg84u/U9SpLWjyQzwguwLt5gai1+6UQwc76i8ukmkTdbnYXNIP4kkH3mCXt/dn594fbckBGKMn38Snnn9Bfk0GLHnggacyA206yZP4gz4EyKnOV6fzxpvNZO2ob+dnJ35j+ZHMbMzOU6QHbXOuD2gnb8cd6I0OkMWuL7gkmINzBLAAwK/KtkCcpYQtwikkQ3neAtQfXbD3h/TsvGCXYby+IPt2OWBv7xj9tTA6sNsSggJPwCvzDWwzqqMnS9/uyyA9wLgNchqkZNABBeuuEyTf+sH497nsbbDT6yNLqZ0N+tIXj42XPcaUAC/5aGqfYrD7EVyLpjmH7IH5kC52SoqwxOQhT/MCePCXoAD5+sGul1xj+TBb1SGe6vlTiZ5ONtC1QzKgsfTVl32wNtjp9ClrZwOaxtSzp3nUX198+rXxst0Dpje8cVwBjr7rEV6UJLg7LuAc4L7gHuA5L2fm3B1agB33/hZBvYWoHS3Y5Z7qiXbn2evAvLR32af4mezPVgjI5AsbiF/Q7P0wf57KVm8cX5tLm7xo0Zze0wqiRYNeO9x1gV1H8wn3OYG9T70+epQ2NVmAHnSSTbERP8iW1tbYbqt69LvN+sLa2bSjfnL4octVejpRpVcdPUADks3m/JpNOwK0ZKClCx1sznTUpx0vPmN8tttsDG2gzX5rjb++9NWXvOay6zhPtv769jGoDnY++vGo86F70a99zWsn3fUIL3gS5Iicp56j1YEnxO59dK8KoIE57hTiVZ7W44XaLWTtgNzzZJ9Ccnde0KInNx2nGF1IZyXcAw00XpAWcEG2pLNAVgd467PBJBK0+tHo00bD53yfnn1T7bxD6yglFPbRwUabSbKlV7CvsVBfkE3mtuQd/QfpcqLq0tjcJYJiAg8aGG+ydnl0hMaBsvpOX5ncTlZKNgAyfUiwZ/dd+kF2lsTSYVwbVM+WEDgJAzbn++w3lj3ppYc+KMEZwwN2u9DvsrIfJi+IFtavRLf7AtavTF9ju++zQz+b0eujX8zdcfddV70acz3BC27V7hAO4hTQO1BemPa3aPvD2vvC4svZ8eVUJRpB0sI2Hm2LWtlCJDeeaEJtkBz0yW0uydMXf+19npXJZDskh/5kGtcuUPdgNUcJqfs79ePb7QXZ2mZB775fG5wcQegri+wkkww82ZDsVfrklxD9FNTjw671Q7j9VFW//ai/MTySpP7mT686nRKHS6JdV5tHH5skxH7qKz5oTsBc8BoH8dJjrvmFFcPDE/04rB8EVPqj4BdvvTB/ofrCLWNNRlupb/7B8EHn75/QyV9sSKd6Nndv1YvdrQ0b+Byi129OkL36IBudiornkmkxzU/+/gY96EHzgsnHg2afP1RnVz5CZ3+B1r156O/1JHr1k+03EocrhoPHfhtlv0RujJ1ood+QfOzRR+ZvTPbblI+ONt95B9Q8+co83/Wud9kQX1iXw58Jel8QAg5ugWrvGBiPphJEs9OfljskxwKFyVMHu6zGtAVCtu60+p4PT+3Y9ScfnNeHX8ALbj4zpo8tbQB1iFfwZxNa4zaQ8eRmT/QC26Zs47ZR9KnTTw46gAbqD8gmj16AT93GlODAtfSGzac5kU9uGzrZ6Qq1ob8RQsepvz8rGCzkk5c9IN8aO7UX5idjaNhh7mwmiy3mAZOjXvJXR4d+n68yHxuXYPQBMslpnvoh+bv/8KOLprL6KdAzKIZcvqBj+TKe7II+FDnNh6EPTr8pyVY0gA+gvzEErqXzcw2fkyToO4Q5Mwe3UIH+faFzfHgK0Vc/LXc+ZQvEDqXF32noTTdUF1AF8fPR7jz1o10BtvSr75isXe5pmZzqZAu6dACb0WZpbj7pybcpbFL96Ti1wVhyau+or82OH230ydRmkxK9uo1Of3rYtWPy9zZofiXcNjQM6ATZ0nh2nUJ2hqd9eNnAb06vElx2m3c6gmQExvWRgRcPXn3K5OsPmrcxcwRoQTEH+J6c8+apH7LZJT1aMslBE122hPsYMB4NUGpbEzY3n/pAydbfjVGnl0y86N/61reuU+CZzOsNPidJ0NfnLJJFzFGc1qKG+yIDtPviBNHvUN8pf2WLCFv0xvHQXYJRhrvcfUx7t2mXp6Sj4ICnUP+O+NogsKBLtvY+Hk2Bqt6lHXl83lyBemPmIJBtXHKAtn6A11v/xtC00cja16kNC+LPFjTKMN348+XpODBGVomUzmyG6T/F8wB/SM5pvQ2N31zNkT+zJ32Ve11JTrLwtCbK4nwf0wfxOjEna7dfXT+7aocgnaDEm16421MdAjJ2fckB0eYHsvVFa0w7fnRspCc/Ssp+SzSe6xE+J0mwH1e0sMCiAc7ckeN+K86L7/n492AIT/u0g31MnVw2FrTA2G73jp8tCCByCuBw16vU1wYSfLutaNgFC8bKNhM7m1P0+oPmBo2nD9DXC8/60SYbrQ2DRtLSXyJhg/EwHfFqu0TEt9sHwS67+aLTH23tU0gfuvMw/7KDDd0WqF9dX+sRGt9L9qGn6xT1s4Mf3L/b/UFvST571c2VXPx4lPEAMiHQ171VJZvRA7Jav50+25Ibzy4fb9hY4+AKzbg8Ng7Mxfzc+rpn+yHV6xE+J0lwvjf0hjfMOqdxIGhRTh28Q2OnNPvCVoZBdKcy934o6ARfm60+QaTUJvfUVu02c7rrq79gOoX6Sxj01Jc+MuqrH+x6shm/fhtHv742ngCF+tEE0dgIIBvSTwfQRw9bobaxkkZzAM2ZjHwQatcH0O2ABxgnm+1sCtFXVj8P2H4eBnvfnsSUexzoU6cn25KjzQbzVt/npsx+/HjU9RnT1m9fNIfkph9EHw89zV87P6qH+S7e7AbGk5dMZXLQRp+s6GqDbPA3nAPj4G1vextBV35S/3qEz0kSFCjuE1jcfQGmI4djofa+YCDn5+AdThdsh/NknYLx9AN1fdkD9uAH6nsQCrRojUVrLDnRn4fGdjiVAdEF2kH8yeBbdTa1wQA6fHzexsjmxprXjsm3dupoyHUiJLtLJUBe40obnlw0eOOP1lh69w+BaIA6lLzZjT5ZydN3HujP/zsWe9WV+a25huzK/uzaZTWH+skD5CQTX/zJB+aE18k6m8LWyDg+dfJBdpIJjLFzn0M8ffBlI1DP1uZBFj4y2NcaGiu+tUF2RXNp/qW9NUYGW/x1ucFkASmcY9cbvORJkNM42hMjTm4RgH7j+0JxKqy/sVOavQQ7bbCPg/NoWmj92VYf2GUUMNmNzjjcx+oD+k77o4X0hek0Hga77fgEnE2Ehx3AuASEzxhd6NDv89t1Ffh4dvtKAkpt/Mn1EMEYPrLoJC85JUF0+PfNlR2nqB+gI1ui9dpFl8v0ADIAnuZ9CmSFyW/Oez3ba2cDHXzWHNXNC+4+0o+veNGHh4/MG3YyJ6ckaE59EwXih+rmmv/oObUrG5pbyQ4/PdECdKA+5SlmV/aqm1f0IDnZwgbAzsbIwe/LEewA8V9v8JInwZz07ne/ezqRk/VxWghysLKgik7Z2O5YdQuWDu0QrcXYA/g0gOjRp14wBtoCVUAXvAUpenbZqI0VgNo2Arn62sDGlHvdWLajx0tu9gF9EJ2++vHbTMraeN17xe/dNiW5ARlkCVb1NlsbsPkbyz59fNiDkWxTl6R6eEIue9DhoR9IhPv9RLK18WUPmUGX8GSQR3ZzQIeHHP3pPR3XR186jZ8iMA9zBOjMmf7mzQ6IbteZf/JfPgXx4CdLPx5ADl59zVubP9Dka3azkQ6leIpm9xUwjgfs9kL604lut5uu6MhU1h+gxcMfxuiB6saag7X0kMel8Bvf/OYr/t1lXU9w3BEvEXAu4EyfEhzYQnJk40ELEo2yenDavhYkC9AP6lPqU4aBfgsJvW9XMLURCrqCJNk7FJynZUhO2KYgR+BA9qCjtzlk427rKRhDz8+CVyLZg9EYu9Gxydwazx79xlsfJZra+Sfb26QSng2szzjgP3a4cQ+TV/Ip4ZzOadfBD9rZ1NzgzhcPrG48pLt69OFOc4rRguiyLX0gPxm3nvzB9sbPA2P5NXnmpR1/9kUHiiHrV1JCA8iwBtZEXT+7IH7y8EPt5KJrrMSuHQa1b75pzT0++3uOjz7gb01fj/CSJ0EOghbsK7/yK6fDAadxfM4HyvpgfcFeD1qQMEjuHhxAf33Rq4fAwhZk2bLThLuNkNw9oIK9np107Eif/vTpE4iNhdEnI92nGNggyUsH0DY/sNujDtEaj57MbEt+fGjbNCVzfrCZJb7qEC2wIfMv2O3b7c8mffk3xEtmSSD7oLb+3f4gXfSrg31+8BTir8SXf5JVGxpv/erbob490eAH5sR+Y9nYnCAb9OVLvNrAON9GZ0xZEtx54wf6w+Tt8uEO2sbRsZd973jHO+aYP9J/PcNLngQ5KYe9853vvLLQ2vpzfKDOoad9exu0MDsG0Rc4BXV9YXQ7BgWBU45gBoLIxtqDKb50GY9GOzzVW7nTaJtHPtvnVDveU1kFOTmA7TYRWfsamAtUB04LbURy4rdOXU6GyUk3Wu1dRxAN+9IF6KqdfXTt8vNLOkL9EA16fNqnEB9/nEL24ofa2b3Lj6Z4bT7prs9a40FnPsWKsfP0g102LFk2Z3VYHag3Xr12PlDu/YC9zQskG6Bhx95O9i4X5KcwOeznA3E0nwwPnqkbbvzXE7zkSZDDAId6TcZ3JTn5FPaF2nnA7vzPpg3w7gt6iulLx7XAQpPbooe7vuqnOkG6ztMLAXobxnjy1btUjRdql2hhG5msXW+brA0G0NWvjl6ZTkAOGac2otsRGGsT1V89PdHBaNTTAdTZEjam3OmST3Yo8YTmSqf+dO0yTjGZQfLTQVa+Sk5y8fN/J1x1a8P+XceuG192k8te9PQBMtD1wVT7FMmki163O9Kffbvt+kBzSpd+ukEyd9z7QPMO1L0nSCZae9vP5o2BdRl8pud6hJfcMg4CHO4eh7fJd2fvi4J2Onf0KfXleGVjjVee4r6A1Usm2VO/Mqy/MdhRny6nwk6G9OgH6sYLslB7t0vfaT2adFYKaklwl3+KeAX6qYwd9zGoDoH2fk+QTGP4zNuYdQv1JyP9QfKj2TE5YN+w+ba57vcvs3Ofb7jbX3vvywZldp+H2ZSe5CQLkHMKu2x19vfSsnkYI0+cGIfpgPwW8sFuI7qSeZCMHdNPRnJDMoyziz/Rp1e5y0y3ev07NA6SvUNr69WYWyQ/cEJzvcFLngRzIOdZBPcNlJxtTB20EC0Wem3lediChKAS4G1BybZQEKAzVhuc8hoTQMlvPF5ILhq06TLeHGB2nmdvUB8Z5JUI8CcfoCEH9km/609utsUXfb4G+jqJQPQ7Buiyy6aCu74QXfVdv7aNro8N6WKLuhMPmn0eZCVP+1QXqD978Yb17YBvlxvsfTCZ5LBpT2pQXT86cyhhNd66qKMBu26Y/sbp0scXZPIxn2UPbF4geWidGn0wpxcaR1+Cxb/rrJ2du13R0ZUf0IN9PDl08MFXfdVX6cS4cED2Xm/wkifBnGbB1B2bW6hTp4J9QVqs58NgrycrfqUFqT9a7fp2iF4AuC9mkYHgt+hK4+TU3oMFGDOPIF2niA9kZ7L5i24nDCckm5GukhBEp1+fOsh/O+yblR6oTn4bAT85bfDTcX1tzmzQR67N2ym5y9LWW9l88qM6OnK79Mvm7IMgf0D6wE7jkuxKfciA5LM727X3PvVJu/EGdNBlfnSXBJPRGCCreZtHrwOZJzl8lfwdgXFIBmAPOcq+BmccfbQhmuay+6b+1qHx+IA2iPai9Rt4YdTNjz40l58+uXoa/9/07LB/lDer+8mtgbfccuvhrrvvOXzpl3356Bxr6Ge4pgZgrkffXi/wkidBzgaCCfhtwTe/+c0zkASLkuPbOHMBtkRgjIwdC8iwgFAP8OmzgOQVuPhPg6K6MXxAPx4BKZhB+tGkd38tZN/86Q3QooNkkA/x7HwhXq+XGAOn9huXjPCxARrT9v6izUi+BNplGrk2CBryzAvd3i7J4aPf3wnu1RZ0ELAhnmyhH333qehDowzQ6EMPkoGGbLq8Y0imtv58BPSzJZlW7ulnRwJ/enxA+c3DZ8aHw+h9dgxDbeN7H9R++mwN0slP5PIRfer+WBg7+O/ymU3mwH7+0QfMA7++U1+Rk78g0CajueMp1qyJNaSH/N1naNlLj1hiJ17ygDp68Yi2Ev+pXX5P8eknBz4x1vDSODWOul9/IQq93xq8cOHi4a4775o/WTbcdrjztjvG4PDbU5fnbzM+/vgTh69411ce7rr3FcO+4Yubx1Xe2U9z3TwS5PWYCF/yJNjiCCzgwYif1rJZLFbj6i0QLHB20HeKnwnIOA8LnGRcS1Z2ndoXkgGyR7ITeOYrSNHop09gCWp1QGaARhs/FNwFMDyF+mEBjg/YTBIR3fqyga3020whPmP0tfmzC/2e5JPTWEhmmxW9l6iVdNvQoT4v1iqT54/B9wGpTb8yyJbmqg1r018/PhiPsdP5twYlIGDslA/o58f8hFcdvzG2qpOjDLTNSbmvdXaD5NWnbA34Rru5WU+JT5+14F80EqG+EOw20tEYOekxV365dSSpMXK4Wf9JedN8B3B9OF6W3Mi+PA4oQ/YtY+yCsct+JPn2w9e+7+uGrd4LtMfH/Ma43yW8XmF56iUETgw6jXhfEFgMcLo4+8KdQosZz2eCAloZBurPpwvUv+vdMd4wWv37fABfwBKPfnWYXfrxhbt8sM8huQU8GqUNU2KxIXZsPci2kdDt9gBtMpOb3fnLZrUZS3SgeQWSh18Td8LygXf//ffP9oMPPji/XRCiI5MtJYFk0rfPOz/smC/UyYHqoHkBdM3DvLJXCeLbx4FEpo4fNkf+4wN9+Yn9kBxtMuPVFyYnWcp9jZIH4vXhAY2h4S++YsdMaAPTG3+64A75Ce8zbNlosm1URjKcXePgtz7gjJFdTFs7vxrzDd/wDVc+UEB6r1d4yZNgkAOB94ne/va3X0mKO+Q8/adj9e34mSCaa9F/pn4BsaOg3tslKsD2NlGnATKM7yUM0OI5RbIgnvhA/QEbKpOVDvXd1hC0eYL0APLxa7cxzaf1i9eGP28Dojd3J5gPf/jDhw9+8IOHX/3VXz28//3vP3zgAx+YfZ/4xCcOn/rUp+YJ0Vf9JNR8mazmqaxtrD6wt6PbedkT5o/mRh9bo4do9KHXjyYdytO560tncoESTWMwHTD9eLSN08lvfTDh71StlHRbD2OSICAHkpms+tEWT7t94Jlnh01uC5z5ZfGKP3NfHwIXLx7v4/rTCmjUL5/5yYGGH/QDJdR3vcItf+ZHfuS/OKtPuG18oryYwLkc38IBi+dE8NM//dOz3sLkyMCi7aB9ii04wN9insoq6JTR4N+DItC/l8F5cskMGlOmo/F0wV3ueTLrg9eyBegTwCtA1z0m0GnKprJx0MHmuge9PrT7PNQ7aWRzvNmFn5xTMIYfr83rnpoTjETndyX9zRl92pB9kPzsguxtc4XnQXbFd0p32pcvQj5SslkJ0DfOD8lAI4aj1Qcbr24d1NmW/Oh3WdB4cs0XD9qSHB852aMzBvkLj37yslm9NTFOnjZ5+PZ1nnZM5Jsx77O/GTNhJLvZNXjuvOP2eTnsb8pIjvOPcN0yToFD94Vh3//jB3/w8JrXvuY5a4X3xYBLTx5/xPe3Ci+OZZ8FtAicr+6ReotZkAAOvBbsTg4/E+yyg/P6gsbYCGtfq6+NCxqPBsxgO7Nz5wP61c+TG57yapMZNgayJXk7Hb4dAb42BV5oTL+1atNUh3sSIFepz1ratFDdjX3JD6DXByUVIFE48QDjdLfZm485ADbRBRrb5wCi2UtA9o7Ro6FTe9cXXesRqOdXdXY6HTdnvqFTP9lQPTvAqW1k5XM+9KEB1ZPlsIBnnwOefMePML3JTtdud7Y3L6Se7jZ2y1zvVb91lBcvOM0NIknRw6VxOjR2acz72SHiy77syw5f8c53zstikK7dhusRXvIkaNE4Qwk4yiJ6Qvw1X/M1VxxnvE13XKTnOlFfaJE/E+z0p+29f4dsguphsPftgXdKp99cIbodr6UbXEt+oK2f3J0mH9sgNqj2vkF2WfgKWHJ2OmPAWP3Jt0G7f6et/1RmcvGWOJX6swNt9mnTAfWjVZKBJ0i+snq61clrHMSvvzEYZAe6UBttMtgE9GXX6Xomf2/To559+JKpnwyyo7Ne+rIRn3FJMJuMw+75+lAxtutId/3ZDOKHxtwLHINXEN2i5QdzHrHFxlE//hnWZced40Pum7/lWwbf8s15kF3XG7zkSZBTBXqLAiy6T7yv/dqvnW2LxpGwzQJOnah9ip8JzuPZcafZgb0F4+n43rf3A+09yOs7DUBAhzZ6uMsytvss0N6Rz/ACyQbYJCXB3afpsx42EawfKNFCfM2/Me3omyMZ5yVKJeiUBNBBdPrd58of6Um3trFsA+qnGJ86vuwG+TSa7G8OynyfHTvoNy+0JfJ0QvVea0FnbuQAY3s929SBMTy9CkOGE5V+dPnBuNJDJA+Z0PJdtiVXf3xQG1SSy75s1V7zGPMc/+Sr/OFPbDr9KZm8/gTrko/u7rvvOXz113z14ckn1h/QJzdojtcrvORJEHQJtAeDBfmmb/qm+fK0fgtjcS1292EKohYH5ODGlQWgEqDRX1AWIOTEE13BoA7RRl/gh/oazw591ZOjzxx8UqtDkK742VHiUs++bNx1KcnJlvqbM1DX52FDPiQTKI2nP5vQQDqNw/Q3XhuvMhpAlrp5uPxVppMt1mBv04umMW2JhAzzspmg8XShERvZbIze6jvWh5YP6A6bC5l009O8yAu1oytJ1cYj8WvTAZOX3vjB3lZvvcnxYSXegTUrXthk3CswXiHydJ2Mkp/6vkfoZpMkmr/5Ej3b2K+Op/mxdfp78wP05zSdAD0QkQAv3ibBrb817BJ5RNLQ+czhe77new533/vKMb4ezpAdmAOg63qEl9wqDj+FAhZ+/dd//SydDC06Z1pMi9aGauFbqB0FgfJUz66jtkWxQKG++BpT6idTAO160nWevqB+5Xk0e7+Sjn0O2cwOqM8Yuh2zJ1k76AttCvTqu+zoyAY2BN9Dfs8/2sbUA/xobFql8eiTX1/zqA6yDa11bq3x7DRsS2Y8+nY85YuevuyGp7DTKcnKt+qNqe961QP105iIdq+3VpKN9VAH5CdDfwlW2Rqbg73BR9EBfJJoflXyRetHr32kbgzoS0+68Pr9P+WUoxxzP1uFIePxw6tf/aqh75n5ji9+vxv4nve8Z467HH65wZrbSwwW7BRy+jd+4zceXv/6118J5D0w1Aso5Xl4Klt7x6CgT0f69/4Q4CV/p9lpyWBzsOvadWcjvqDxHYPo6qeDrp0/O2Dy4U6jbazNpA5OadpwjQP0NohNFuBjx3m2gPQlp7bx/LrTqsP8GGrv/lWPhzzlDsne6ZIN9Ssba1z/Pp8SDKTHOP35Jv0w0JfuZGV3ZUA+WeSr45GwkttY49mpnv3RBMayCaKjl2xttPFY52SDaAfxwpuWn9z3c+Kb9//QDNWeELt1IRHfNMZ+xzd94+G1b3gjB0xZLzdYkfISgsU8Bc5eDr95vjLxvve9b9a9DqBfcNiAFhKQcS0M8GnjsdAFyCltepXBXkenHd15oB8Komh3GUE6g2h2e5KTTGCM/QJ4TwTNZ4ddVqCNNv+B+nbfnIf7pulU0sbr1EWWfmuknu3QXPaNCNFAUJl/s2Xvo0MMzE23+QxEk56dF+x6yK4fnCfjdDx7gbHzfLXrAOj2ee/2GUsfwAP3PhBdfHwA+Z6fu18I4uej1uc02YHWis3GoTrY5z9p3P87SKTr/p8nwxcG3n33XUPek2Of3jfi4Yl5YPmWswciL1c4f1e/iMDJ50GLDjwg8ea5hXGJZbFanOh2+sC4wAj3IG2Rd7o9gINk7rxAANn02juCSnBqX/ICtPrY09guK4gmumjZXYAXyKG+ZJ2H5rMHerJg/tj1wfzWpRVIVoh3589XJa4ub42lMx6ydl1k6Ntht2MH/froU0L89cejTSb/qMP4w13+3gfVm2f25YPdVnVz07/jPl+ygvQkH12grznt8+NTctDqh8WCMXzZrE+y9OEFWgs8aPZ5kFn81Fbe5CR4gV63Owb/KG8Zfe4LkuP21avGXgW+e/1yhM9JEoTPB36M0esyFt3NdYvjhnR8u4xTWRYeFnRzIQeNBeskcbrQBQM8lQf0wTYKWTb1jvqMFYDXwuSh22mDbALp23GnBaf81Ztj2PzS2Xh+2n0W7naYH2yjoe+UgZZtbubvOuHuU3WgP33G8gWoDrNzt0nfjjttoJ2/qhtPP3g+Gcr4d97mE436LlNdPzyVCaqjMxfygnwCdp4gXfZBHyjWA611gGT2wRMNuRCduey+zF50xsjb57h0rA/ACyP5eRhi/N577zk89OCDhy/90nccvu7r3nd49ullt7GXI7zkSfCzAc5873vfO39hxkK4RLZILQ6oflpaVKhNzr7ggLzGd9QXFBhh9OTs/W2SaE551WtX38frj+9aNNHBHaI7tQGw1/xhcwTmcBqs0RorOcVbn03mRJEf9MFk2UA2307fKURfNrRxs0ed/UqyTuecbaG+U4yG3vqAvl03qATo0hPua9pYEG+0yY2mOr7kRBsYQ5fvjPFJtBKOOjj1c/NJpg8gmPzGAD3kSopk6qe3hHmqf9owcH5vePCrW09XYk6Bt57ZLSnq916g7wjf95rXTL3g1lvXk+6XG1yHSdBTrsfmPYd3veudc8He+MY3zMW2cJNiLEblKVpwC1qwFTh4lQV4QbFDAaQskJUgOQVewVm74MJ7imCvg328fiWdu43gdB7NBdbfWDwgnzRPY/Ho0959ob9573PHY24SmsSmri9aZXr2drqA/jZbcoF67WSA5qEMo60N4qHLOtRXO1/tssEuN1lg1wGuxXMepNecT9clO/gBf/bQxSfztDVQ0tppkpEfvULTvFoL9PhAY+j1S1iQnvQnH6QDz1Pid+w/l7tOfb5Ce9tFvyF5YfT6kHp2JL975lfV3vDFX3z48q9459gYIzFevO3wxONPzEvnlyO85N8dfn6wEf0cz8X5CyO+hvPJT37y8NGPfvTs/SyXYd6B8vdn16eOF0YFj0sxdfwW1hqro3cjt2DyaN+Ym7wrYRZwK3AH65UACQrYJfcYPAVwQYVfW7lkHRONen1tsmxSL0EIajTRx6MUqGhOZRXYxsxJX7DbG0821Q+SE80OyQDqvXdow8F0m4vXN5we9LuB3+aWQPXRQz6eNny2kQ2128xQGx/UxrPW7ugLoB/oI0fbWCfYEoWx5KmD5NQG1ZXx0KuOfh+rDdT3dnpgbZjOaJXmrc/c+BmdmNCPn4/j127NAd/4MdQLt4xY8vW3MX7LzWNtzup+6urYP9Z74DND3pPDP8r5k1lDzq1znP9umj+wOiyb7w9eGvL9YOqrX/u6w3d+1796eOWrximQ658dSXOcFi9dEp/H2Hsp4GX93eFrgcV9+OGHDvfdd9/hsccePXzbt33rWAwb9ObDPfd4+XYd00tibTAbTkAIjJLfqM6EescdPs1sCJ+oC/tlDMnPIqOl28YhowCF2UV+46BxtPrahOrhaaCjgQWvueyf/s0pWfgEfkmhU1j6lDu0YdCig+nPhr0Oap/2B3s/neTD9Od/esyndYhHXV/z5EtgfPchQAvb5CFAs/sFGtOXLfrwpkNf6wbo4pN8GeYv/NkEQTKsS3p33KH57TbvOnfZ8VY2l2zPnnzXvHZMD1D3H0i+vuiiNcaWEmsvZt86dD/15KVh0DPzJCgB4r311ouHu++59/Ca137RuEy+ePiqr/6aw5ve/JYh6aaRHMfVx6AB7Hw5wnWXBMHF+WOMh3mq8AjeN0lawJU0LpxtRL906/JqfUK2CAUcHvQW2ZiggIIATVgQngbWaSC12aJJVjTG9vpOA/Clsw0RaJfg1He7yLIBzcG89ZOlrQT6IN74d/mAPTvEs+MO5/WTwQY68kk2Az+H5SV3dN4l80JtN/P1nfouTMeuD230QH+8zTPawDhdkgb/qNvg4uBUVrzmgLZEEw2ILlpzzbfZ3Riovvefjp8337B1NzeXu0r2scsYG82pOSqNFyMA3dofx3cMIb19SPrQ8s0c8s0dv3pzp4/82T8ODOSo+8m7d7/7PXOcfWhuGiF4+bIPqMn6soPrLAlKZus00deHnDK+9Vu/dT4kcbkrMdpUI3zGgnpMv55KWrt1yjtuLGhRCxK4b4KdrkCxuG2EMDAO6kd3HjQW786nvgepwNOub7clnuQJVv3qAr7gBc3DWGhsb6f/+XAH7d0/gJ2BPjLZAYEE2OWnPnaiSU5zjTcE+vgDHdC/2w7R5CuYLHhqK8DLDmX90QMy+Ymd4u5UJyCTLvNKR3p2WYD9zaF+soo/cMqD1jz2sjponbXzw47JUkenDNLdfMyjfnz0BOxe/ety3D6T5Px0Fjpvangl5vax38Cya+0ByfXlCtfZPUELuRBYpD7BPSH+hV/4hensPvEsGkDv7xmsBV4Li3cPkgKlINkxcOPXz4gD/XtAFZS1460N0rP3F2TaBSQM9O9B2oZNRjLbHMbMH6oba75AX5iMIJr6kr1jPDsNqE+7OdALm4/18CHFNvVOtvvlsv429z7v9BzXdOnb5wOzM/r4gT78+gA90aoby1fZ3nioDyQz26KvDRsP6wP1Zd/eTs6pndHkX7iezh4fehjPRpBd8d82rqKUAD/eeVo746PLnrJG+thQ3X1BrLePcV+Nc0tq3Tp6+vDmt7zl8N6v/drDO9/1rpkU/eElf29kzHToHutwk7UczEv1Swafl/cELYbToAcf6+HHTeN08dj8+8Tf9m3fNjeWTWXxLK4F0mfxfCq1sC26wBH8gkT/HmCwQDQOTwOy8QLIGDAG4jMO9NdODhnJqU53tNHpwxdv/Y1BASxRAuMgmnDvA+hO5dZ/Hga146svufyabyFfWwuldjZHD/iQPLDbCNKhD595rtPGca3C+pMRjw0NyIo/2GWF+NAWR9m327LrvRZEv8uO3lj+J6++7K5dmf5k1JcNyW9+9Zn7/KbHJsv6mFfrsmSvDy689LdHJDH30F/zmlfPH7wdEuaYb255SPne9/qVp2VvidkfVnJ4uPXW4cfZ8/KDa6/q5wisnx92vHzZaWElRJe76t5L8m0Sx3SLs4JgBIqnWLeN09HF4ykqqG7xBXiBdIoFJJp9IxRQxqIDBWb04HRMiadgBiWI9KnvOgVj7egKWEGuBOgK6mjowPPZQHTKHU/hPD/Quz54lt76JWiXw8bY4lTovqD1s2k6cUDyyD6V3zxD7eYWXz5NdzIAPcmOJvnJUZKNls3KFUtLd3KTA/AZz/7wFPb+nQ4/3Odcf2V6rS1EJw586PN5MqLPNzDbPRAcVg/lY86jvPz0uIx/8onDE5cen6W+J58aSfGpS7MezTPPuqd+y+EVr7j38NrXvmYmw/UDJhcOX/EVXzGT4K1DvtOi/TkUnCG/D3yuK142cN0lQQsMBKYbrys41qsjNtMP/MAPzPuDFt4C3XX3XWOz+duu636Z/mQULNCYwKp/H9uxIC0p7cFKtlJbf8kKHdjHTnmVoL59wzWmbEPWny0lPX1k7BslXnqC2pCsbAf4K09xh9qn/Tal9SCz2xXmIuG5b+QSzli2A+OSorllh/EwHejQhNltPiDa2ur7WsGSdOuj3v08PssmstOT3i4/jYHsA3TueB7stgB0ZKUrec3B3EI07Ej27id97GrdQ/qO9fUQRTKzH+YBwSXqSFJEQn1OgpKl/t680H/b7bfNA4a3KYzbf6961avnCfCL3vDG+Zfl/NlMt4wcUszBnsSvfWb2yw6uu3uCOwiaPSDW6ywreD/2sY8eHn7k4bNXY26ZC+YehXehbAJBLzDIsFHJ0S6w2jA7oulPA2oLvgIMGBekZNQnCOgo+OkOasMCGS3Z6JVk7TahA20coA/fOhEfN4U+NMnSp61MVqidPm32K7XxZIP5hejZTr5xfXQmH2rzr7qnjU4P6GxYfXizyRqRpz+9gB3Np3uK6gA/BM0P4DmdN5nmpa2eXPK06VbXl21ogD4obvTH13yzN7nZZDz5yTjFdNGvjZZ/8OUbCOgn07i+fY5Au3FyQDKB5NeHlL78BfDhd68PjfVw2atf/a5xmHjFuPS96647B/XaC9///d9/eN0XvX6eAOef0Hx22DGSYPMN0v9Sw+flPcHnh/Vp+KEPfWgmQDdvfQoJEptHQmyTFVw2hYAQuBZKeRpUBRoQEDB+YAwfWQUYPdp42xTKNo4SsnfHXe4O+nb7shF9suAefNm1I5uya8fGAf4QNPf0oydDHc2uU51Nu5/0sc0pqstf7d2PzUnC1E82P9JjHK9T5K4Lr/7kNXYe7rD30Wk+Sn3NVZ387D/lCU/baMNT3vivBcZ3n53q4xP96q2jvsYhXnzmJAb3WHR6Wye844co2ngDX0Tga68v+ZFWH178q333Pes7+uIc3HHH+FCyZrdcGIayd+BR1OcFvIySYAG23j/zySUAfKXOfQzvDLqPYYUsvmArWAQIsNCBoBBgsCShD09Brl47EHA7fTKCAm7vC/QHO111SN8O2QAazx682bLXd7k7JAd/mzFILp58RoZ+tLtOoB+mKzqJvv70GydTu7VRkglLoLBkB5JZX/LSra86OJ2zfn3ZTFZ88QI82XgKxnZMR3U8O2ZPGKRzn/upfqUx/dr17XSV6TulW4cA90P5kFw0fI9GknXCdTXyzPwygtL+8UUEYw4T1l5yJNeaDE+evRB9nM9zgW1H37+cYEXbywZWUvO6jAX3LqFFsoDzZ35GEtTutIGmwBF0NlP9BU9j0RZYQJ+xfePu/aF2fcnd5QOy68smkF79dO+bBOgXlBK+xL/zxrPDbktIXhiNfiUgB8SbPSB+/enLR9Cm63Qcj3E2k5MOcswNjbo1csKD6vqModl9Tc7pB8/ug+TXD7Mj0Ieu9acLoGs+yb8W7DoBeefp1kd+GJ063TtfsPdlX33qgG35AaaLn3afSXjDoonqTobuFWqXAN1Df/DBB2af7+j3VNhTYHIvPXlp7i0JktwJQ+T6c5znwdJ3xJcXXJ9J8Hn8aaH9xS3gROjvLbgM9vuDgvyOscBOIwUPsLCVnVQEFUS3b3JYAAYFJX71eOrfaQtGJXvC+s8LXnKAsVO5yWbXvlnRKkH27Dw7Gg/jP6+Ep7q1QfrOG8PXybE+0Jyj5XugTx3mG7AnTvTqJUGAVh8MTtugPjJg8nbfRgO12UC+engekIHu1P6df9cbpn/XG4Jo+BDsMvT1IageTzIhyP/NE1192cxO92359C1vects+5aPg4Uk+MgjDw9dlw5PXX5yjs0T5bTpWj5hS/jyhGPEXi/wWfjSac/msLDubUiKDzzw6fmpJgAKSCUQCOihgIBgD8QCq2A8j6aEAdCFp7zK2nsfuoI2NFaZzqAx81gBeXwIEiQfqrdJdtQXape0YP21je9wKocdp3alG6DJRkimzeu0aAwfRI8uWu36tEFy0VtPJ8YgGuPNf5cN9OW3+nadwBiakgS6ayEwh93e+qsbS3b12vv4eWOwNQmMZ7P+5oo2iEZiyw+Nazc3CBwa+jaIvfO6173u8KY3vWl+GcGhwukRu9MhWdMeT5mPKofSs/IqOLfzuofrLwl+FuBlTkd4vybjNRlH+1//9V+fN3gFhEW3yL2SYRHb5IIFFCgCp0s5fQXbeQEK6tcuGAs82DgZyVGSS39660tfcuKHQF+IRr/yFEE8u4xTTH+Q7eluE0a/2wiU+RJkl37Il122aavbdJIgHjJB8muD2viUZFtLSAeZ+tIJlNrmYK1t7OajbL673erxQrrILokkP9xp8e8+qbwW7rTnzTVsXAnSp09pbt3mudb8YXrxAWPxpGvdQrpnngDJ9De/f+M3fuPwi7/4i2dJcD2s8mWFmwZvuj5f4fpLgvy941VgYZ89PDGSX78M88EPfvDKwv3Mz/zs4Zmzr/PcddfdIwn64r5XNWxeAeCSSxJ0urC46/2mJ5/0CsvadPsG3gOpIKuv4NvHBJv+83AHstkrYcB9Y4KCtYCGbSZAHr2n8tHtfftYIKGwc7d572v+u/7agL3dA9wTAsSLHi295LETaNMRX+PR4KsfpA+PcWOS6em8ob7m0jz2MWXysw/s/U6rPkT1NbZjUJvcU6SXH8i8Fu7y2AH1Vz+ViZZcyd390/oCbXPuHqt49gWD4n19DVQyXbGvffvt7sPePmne8pa3jkvgRw//x//x/zvcOfbMY489Pi6FBz8XOf0N3vQ98/Ty29WwaI748oPr/CTI6QtvukmAjE341KWZAG0mi+f+xpd+6ZfNZGeR3//+Xx2b1B/9eWLiG97wxvGpd+/hoYf87qA/2ORdNZtX4NlkThorUT7xxPor/m1oASYA1ekTDBKGoEUjaJVAIGqDAji6vc9GtuFsvAAdIAM9PeroARtKVJ2KQONksY8cdTKgNmyjNa5NZjqyO710QDQheWxHiwctv8D8YqNWorM2eMjk1+ZhPDttXiVacrtsBuakvwdC5OA1bqw5Zoc6GXSgxUNP8pT5rjmziUx2ZIsxZXK106k0lm7QuL58A9TZAdUBe4C+3b9kFGPp1sdvrmryX7LMUdLLH+uDafBIWjcPmltGnIxyrNbh1gu3zfYTl7zs7AsG987+t7z1bYcHHnz48L//tb9+eMUrXzUS303zR1M/df8Dh8ceHyd3Sc9Uzi6Fb751lVfwCmiYH7xq4GUBa2WuKxCcgguqX41+40ygWHSP8Tnd4ktqgkdi/Imf+IkZLILHMV/w9A6aS2T9wCc/MNalc8EtAOnZNw2svpdBPPTA6smBghnacAKZbYDeEhTYN1tYnxKCdLC9jZV+QN6pnc8H5AF6bMRsIpvNEpJ+4yD99ELrcjoO2FsC2P2khNm9288/+UsdnVO/Ups8cq2fNaWz+UJjygBf0Hi484X173IqdyA3m6E2TA6oDsljO2QzWslMUstv/GCO/G4cD7+CZOtDD6v7GTof5k50N98swd8294f24JxXRw4Ed999z9gbHz781E/9s0nz8MOPTLonn3p6JMtxwHj0sZEEly3+gNLug883uA6T4GcGQWAz2hCCxMYreHpp+u/+3b87A9JTY5+w/niTx/54BJMxgRd/J5YCqoDdYe/byx3ZtiPY63ScbhiAl2596mw4tSOaNr82fjwloZJIcn+zEF9ylTCb9KUP6GcPn+bXxuPHl4+TBRqrbW7WytrC/bSnjp+O7ODLEkX6AjJ3PbtNgXGywujB3h+Q83wImnOQHdHUTlf9+KCE7sMG5LP8Wj/Av8dCyG/o9It3svGT5Qmwg8MrX/nKw/3333/4uZ/7ucPHPvaxK3I7VZKLvjUG2fv5CNdpErzWBta/AgZYGKcEG0Rdv6ddb3jDG2ayc8P327/92+eYxe+0J0CgxY/fZRcQNABPCApUUN9OI3hO+/d6SJegLHh3iAdEv28QWFLYMdpT/iAZgvo82uasJA+t5GJTKAGb+6AgBy0Z+TK7gnSgCwO0QF/8ePmm+Sj167Mh6cdnDZWwdwxLmmzd9QT6mn9+3OFavtghvh13mua7w6ncnZctux9LVPup1xyLF/7Ql3+gce3kAydiCY5vfCXOt0OM+XFi/RKgr8J95CMfOXz84x+fhwR+ZgtAy6faXTHRdTrfzye4DpNgjj51+Gr7qSBB4sauo73FsgHaSNBmFQBve9vbDt/7vd97+AN/4A9MHgHlXSgbWQDhscACpksR8lrwgg1o66/dGCww07/XIbmnmL2A7HCnVydrHz9PNllh/eh23jbftQDNKcTbmDK7dhsBn0qabDhNXPiMWwPtfVOzkV3GlH0wWQ/y0m9c/z4PMpo3uae+yQc7xg+TfS3cacM9PoJr6Qx2fvMgw/ip7WSKXW10JXkgxv2osLFdD9jt4nffDTambh/odzhwNeQHSBwMOhB05YRekiQ/3xsD9H0+w3WYBEEBpgzBCMybXAb5pLx5flJZaPf2bCzockLpZOf9JwHxfd/3fYcf+qEfmgnQp59Ft6EEjksGi2zBlQIDGjsN+IKuANxxD8zqylMke5cJakNBGKJPjrYNE+y6Gj/lC3Zde/8poNs3aKcQYFPYHDZn/kGPNtuUxvSzoTUhp8SIJpnJacPTgQ80t31O5JKBHq11hLXp2OnD+thILiRrx1M4HT+PBpBVWf08vsattZIPJLZ8whcSnjE2szX/GddP1j6HcNdhL5BDD3+0Lm9961sPP/zDPzx/pR3YG/hcDqPlP7T4szG5+f7zFa7TJAg4PQTH0i/b9jrDgw8+NALJ5bDFenYmNQElGfohViDYJMI/9If+0OEd73jHXGQLXtAJRAutbszGFBTQBisoCsZA/Tx8vrE9YGtDOmDtHdDRXfI4BePPB8ZLBrVP4TydO11+KWnlG3xk23D8fGp/utvU0SvJBOrkAnQlTfYmjxxjeKwvpF+Z73Z5teMH2XI6N9DYPn7KC9kEo9th17vrR4c+H+Df5UeTPON9uEvy+MyzD+ro4slusl/zmtfMh4Fiu/vg73vf+w7/3r/37x3e/e53T77uC6JvHwFrakw/vSXR1oZdn49wHSfBHdpUq5T0LJZXYjzVsjgFnYX06eYXMVo8p0Hw3d/93Yc/9af+1Hw7vqO/ZGkz7UBOm71NJsgKgj1gK4F6AXUtICMsoPGk8xT1t0nQn4KxHYO93SbJ/lPY+dBp023+SmAz2JhtDGCMf3Y7bZ5ON9rGbUgn707f+sN8UYJIHsTntG+N8Brzki/A62RvDD9e9PGGu32tI9zXDWjn48Z2msbpOk9G8k+RnfHBkjub+qBFU0KStPgPD5rWIBm7TvVsMcaHyne9613z0tk7tO7//bE/9sfmQxF09POb/cE+yZA+evFbP7boU+LhQ6D++QgvkyQI2qjrkuCVr7jv8NA4BbrXYeGdQiygy2BJz6Kunwg/bnJjfiXXp+J3fud3zkTa3y224OS0aQHZ3qonWz+6kiaZUCAJDjYVhFCAGgP6Cyh1UGIgY//ETWa8ydO2YYLmFNAH2/TG900Cr7VptNE3R/0lMjxsh2zQB9AnK1Df9WuTBdOhtCHN37xLBPr1QXqaD9jttoZtUPzZpm79Af50sVe9PrC3yUYT6gujUe6oD2TXDtrsUUbbPPhGfZ9PWL/THn/kR33iz7wh8LBDv1iUOD0E1AZk/fIv//I8Bf4H/8F/MG8D+SBp/YohDw/9TW/9dLGTD+2Jf/pP/+n0sVsUeAC56D4f4WWUBMEKPi9A+03BX/qlX54nOpfB8xsfN61PTkHy3ve+d37agT7lBIOg8cvUf/pP/+l5j8TCSnZo8QoCbfQ+MSEQBIKiAC/olG2UkmMQTeNQX7hDfNHuiWyn158cdmRLfMownfGEOw1IliSwzw0kJxnaaPgBfTR4+GyH5OpHb5OBXdcuH+pPf7YYt047HeRv2AcKxBOSBenPhmRXBuwIQbbvcrIt3mzfedHvvNHXh0adLPbkM/MzD6W57TL1SV7GxbIEpi32JUKnOfLEp9j34OOP//E/fviWb/mWyQ/yreQGPC32ZPjDH/7w/PDAayyd7p3bE2zVbp6fj/AyS4KHsfD///bu3deyo8rj+LHBdrd522CDZyQmQATgxkIgk4CQkC0kQiQgISBAIgZCR/wRQ0oCQiIGiYcgILIh4GGLhxDPiBmPx4NtZpihH7M/e/vbt/r0beNru+G0b/2kpV27atWqVbVr/Xbtx9nnyXUyvPGN26P9f7rnn1fyu/3s9la9ieXMiOgQmomH/Ewk6ImXvI9+9KO7z33uc7u3ve1t66UDeyaUwEKWJpSJgwhNOvYKhCZEkxuaQMdNFnkmkvoFSGk2Rjv0EkifTgGSfv4A/fTC6FP1YF8nSI9tj1CHaLMAHu3ZP65P+Un4D6OftW8bGTgGQI8vyqQjUyJoSye1O8K+tvN3X4I28qWy/M/ftkC3sapuZbbHjcW16oZRx1iNpAit/hBXY9nJAEG67/2JT3xivf+nTjGgHfrGFqwU3SuUz09b8L/C4sgVkIcn7PLHuEegLzcc9Of1j8N2xvq/3WOPPbr7wQ8eWZ96/eY3v1kPpDfgld1///27z372s+sZE0wGE6GDbd8kcnCRpT+RcYAdeARqsiBJE8CliEtmQIZsQHayC/blszuK/MpG4gD1yYj06SmzVTfbtTnWow/KkxHt75dlt/pjwNHLv/yozHasV/lINNA2fQGmjfQ7OUlnr+DWR2knIPkC0TGRpx5RJ9DZb88Wyh9xXN5YxzaRX1vjfuVs6dOI0T4dkKce3/Wrvho3AvpdG+3rO4n8bBGaeWpF6J3Yz3/+87sPfOAD6+0G4M/YRicKY+hWkTrun7t8/sMf/rDO/yef/M91hSiGPvnJT64++DWWn5Z2rA4JL8Xn9W/609PPXDETXvvq7QXJQ8cTT/zH7otf/Nd1tfa9731vPfB33vnG3fve977dAw88uF4Og4NuIphgJpZtZ0Np5VaHJth3v/vd3Ze//OV10jThTAITDdyTUXec7NKE7QLURE9AWdJqhV6TPHv2pW3p0hvty1fffiQof0QTvvZG5I960umQ2jHRlZHaaJ/wQRsRUPnAjnGTP/YB2keC0vTAfnCc9I99bTs+8noqavzlE7bqq33tjO1JawfkVY+dfdAN2QT5+xJRta8N9tllX337yVi3PDok/9Rjlw39NTbS2VZWu65UnKitCCvzLuzHP/7xy7duGlvzEejQbd8J376xd5L39ZhHH310vQ1099137c6du3ddGPB5ix/xUvqwFklPPbPdJ30xuOFI0IRx4PwZjIPiS7mADH05xtdhBKhLBgdfANlvgoJJIN2ZjZ59B93rBV/5yldWYjVJ3Bcx6eggWm2yBSZpk1t6JJARdNoWhNIFwViH7fRHpKP9UT9dduWZ6PJGSZ9ok25+BP1rjEab0LipT0c/Cyj79NRh2/44LqONxrzjQUdQ0ZN2rOQTgWxbHWl9z0+Qr1wb9a2y/Bn9SI9AW6AH1al++4H96qU32ucTtK+88bNfOmSjdpxkzV1zvL5AdoyLrfG3kvvwhz+8vvUAYqA3Ieqn8bLtxC/NVj6z1W2F7cm7S99ttYgUXXlFghYF9g8JL18S5NHVPHAFtgmykYKvypg0PhHklZleoxjhfomzZ3DgTYIOqgOunsnI9g9/+MPd1772td0vfvGLlQgFKB2TvDN1QRjUlQ9N7tLQBAxjWj2SDaKcffX41IROlCflFUxtQT571SmQpfOfbTLm5UPEap8O29kfbSf7ZdkgbNsqA2W16/g48Qg2x7Py2rVVLg3GX1u1SxeBZBvkQT7at20/pAfS/CTpJ+O+dPXK4w8YY2Jff4Hf9Z0E7dAj+hcJNnZQubnHzgMPPLBervaKS+0or70R2usSWnv2t5g5s6b5KpZ8p9Nn+bv6AV9e2j7BdbRqPxScypXgeDbaDvi2+pLelurbxxUcMJMITBATp7O0A24iAF35lQF7Jp97Ld/5znd2X//619ez7D333LNOUJOOPTbUo58UGES7tvKzey3wlV8FubS62dc/k9QEHwO4NkKBIz/QrQ671eU/e3Rr37axGX2wrS4dGNvhM6n+6JN9/XJ8ajM7bDqm9J2EnGy2T7w7nt7T3H5q5/8urPL9X4ZPodVOvufT2FfCbmn59Md9W6BH0sl2ecl4vJWlE7LHZ+OhvEtI+41lAtlWV/8dZ/XzQZrQ8cDDww+Xq+ZEviqTzi/QHmhzRPEB9Ol1THxaH1GyTfJnWw0eHk4lCV5vjJMITL5f/epXu29961u773//+5cnfQGNEJuMJhKSNHFMPGWEnkknz4SCsY0CIIH8SM9+eiNGO9fCWIefx9nJfukE6jMp2PSpIJVXoBoLoKuMDWnjZQysMAQdkZ8Neuoju2wZT8TYJaKVuPraUK5+Ac6eseUym5ENu8ro1+98A/vlkfwf+ygf6DVGUJ3SkE56o46yCF/fjEn+KwO+OslrV39cwdB/+9vfvnvve9+7/vYXsjnaP42YJHidYAKPxAZeNfDlja9+9au7n/zkJyu59ZkuIsCbyCYuuIwWwOPlXfbGyateonzcJ/yJGASNvDCmQfCUV/0EKm9/9GEM8BHpphNB8CUyyT8ikEE5PTrS+kbqD1Qe/Gug/7gwvnToIwt1jLM8acJ3dm23dukffXQBamvsQ9sE8oPvtkQesBGRdm8Nqgul+Zrd/EzACdJcqH+gLfMH+bkl4K0GVx4///nP1zn0kY98ZPfggw+uVyLq1Lf97WnEJMHrCJMNEQoyAvatSLyS841vfGP3yCOPrBM3MvQqDV1pE1sAm+yeagoO92+kC9IkCJxIMAgevghCMpJtwZaAwG1f3XFL+Fca8qG84/zSfjakIwi+jkSRDj+llWsvUiHy1Skfapu4BLYaNNbGjj49+nximx7YZytfZfuQKOQPf9Mf2xvL1GefLfn2j2xeqTuS4HFQb+xrY1GZuWFfe+NtHfsIUp7bMNrxuosHH8gvZAtGP08rJgleB5i0JmQogASByWqSmogmuTP1l770pd1jjz22TuAIwgRGAPSqX1DLb/LuC6TPTvns8IukB+najvXAfu2P5eq3n/0xb+w7sJGdtvQjskgoPfvGAUaC4pe+dz/KZa19usbF+Ki/eL7U2/qujMi3n4Qxb8vXj6PxUHefNMfxUV5/5PO3svoDypXR2fdlFEBy2WFfv2yzT3rpvgdu6hgX7TpRekfPrz7c9zOXWjXSrS+hdk8rJgleBxQUpWGcaCakidkZ3uT0W0sPTzxJlifITfoCW7ATeV0WFzj7IiBsCxppfmiHaH8fdMKYHjEGz5jWDsgj2rTld3kE8mX0jwB9Il+5fGk+q2PMnEDcKjA+jZFxLMjB08nFm8t21M12yB/b/AFPMK0E21encau+ssphtLEvlUH9cUxhX7e8TlTa0y8irb6ThnJj4SRAz3iw6esvPuzxsY99bCU/Y2Wu0KEP9MyjiSNMEryOMPkLYBORSJvI42SMFN3380l/l8kuZ1rx0JdWRxCpV2BBthNBUj59yJcxmAO9EXTKy2bptuzlw9gGYb/t2FakFOyTSHCsK08/6fMHvNfpfy083NhsIantqbd66lgBum3gPbXGHtpm97ix2HRc1m4nGyKPnjFNXx6/lIfsl68Nxy3/1R/rgnT1xm126eenOiMJ6jMB7/Xdd9996z2/d7/73WsejG01RpHhxBEmCV4HmKQF0bVQQEWE7hOasM7e0t/+9rd33/zmN9ePPAjqyFAgIM0CqOBRdwyufcirTTaO0wkjiY52x+1+21CQF5wjRjt0pI3PRlxXrryeTa7l8uVJu5Sz+ukniOzUJ8gWIuSDftDJL2WNZSSSL7Xj512tBLVZGyOJ2VZnBPv1qWNFV918GevZT+iVF9KrTvLHP/5xnSdWfZ72fvCDH1y/bAROpNo1r8wTfTRu8iAfJo4wSfA6oIncZDPBC5wmo6AQKGCyCk7lHnoIdPArk4cffnhdHXrFJj0BsB88ME7uyuXt+1EZlG4fIp8w2gjZGWFfvsCjz86+rXQqNwZEuvLbbvMTxaMvzMhTbhWDwAT6vu2xX/Jrg0Ri2lFfnlsGnUzkj3pLj5f9I38iWgK1WXugzfqCgOTTj2zVkb+tUq88SWQjaG+0zU5ESnzU9/3vf//6Kbc++lsbhH4nVzbyV7795uDEhkmCB4gx2IiVoXuFfobnr0AFr4nsDK8cKUCXOm6aF5QFAJQuMGwFHAnyCqARox06fMzPyKj8cauMvQKvfKiebWmyreSOXvZNR/9IDw7YkkYMytO97cz2OkwSss/uRnbb6g3sy/c1oUVz8fHKfpL83h/XyrKvv7UT4cnjozxljU15I1Eq0y9b4p6ffr/nPe9Zye9DH/rQ5baSiReOSYIHCpNfYJrggg6Qm690eIDiFRuXyghRgHg3TDC6X+aJocCyD2zYF1iEPcEfaUABV3p/O6YFbsQABWJ6kUJl2lGntsZt+UflVmbb71vZyU+CIKyk9CUfRj156vsjLa/I5A+pTbBvbG3Vg8Zr8WRJ8/1oXPa39PJ3tFvelf5s/VTPsXLCcg8v0pVvS9TRP+IdP33rkpe84x3vWE98dLO778PEyTFJ8IAhmCJCBDDCtwt/+tOfrr9PtkWQAgQhCibBVeBCgchmwVcApasM9lc62UlvtAX7uvLlRQIgnQQ6V4v2FxI8f/QunL4T/bIfCdQX9fJZHqJfPFl19sE/YxoJ8qd6a98WErx0SX+2PlZnTNfmcX2R1/i25dvon5Wd9gHh6Zuy2nDP05eMfNTg3nvvXZ/6BlcFjnHtkYkXh0mCBwgrgIImCKgCVeAEK4tf//rX63uGfoXiu27yBAoRlAU9tEIpQLVRMJfefxk7FKS2o8CoB7Uz6sgj2oaxjerbvOKVVq4bSRkH/UAU7NGrL/WBzU4S8si+XWj8Wj3m16izZl3i96Y/Cn1yLbtjfn1Vpr2Eb45f7zg6ebn3616ln7X5OK8/9PKLD5+1yl/j0HFiE/b9mHhhmCR4g6Kb+oIHBJfPmbtE9iDFBy5/97vfrSsHl8qEvnqCsIAssNoXVK1MxiBTNwn7+1AddvdJ0D5iQGLZTT9ZrC56CrY69Fst7duLfBBEJMg2Aq392qGXPp1sQG0r98rNUn0pv5oEiXrXspudCEvauBpzOvrhePlfjt7f82DDpa7P2Fv19VDsWtj3e+LFY5LgAUPghNIFWgIu/6QjApdbyM8l849+9KP1khkhCv5WVYJTHUEpaBFgAQ7ZhgJ91Km8MpC3X38/aJXTlz5OlhqLjtXgRpj0ScSirvSmu42LfLry+OgrJtLy08tPW6RUfqCrrt8OX7yg7MrbBKXBdqxfmTwizccI3/Gwui7fN/ze9a53rf/f61/dxs+2act9XcfJ7Q3Y+rR9/Uf9iZcWkwQPECb9GNzHQTkIOoEWYahbnZ4a0/VnOD/+8Y93v/zlL9fXbdx3Uq6+egJUPcFHv/zKiPyx3QJem+XRLz9deSOUt02/7UqCi/s+giDoa5tv1YPIQNtjuTatBGHUzx9bJNh4yaNHjKPPb+0u9YT4ahJMsj2Wj3nGFnFZ/flduP/d8GDDXzn4Yrl87WtTH6RHcofsdjxhbOc4/K3yiasxSfAGQUQjIMb0PgROT4DHVYPgUAbuQXm67HfLtr6E/fjjj6/kUCAWlEQa2IBWnkReREQvcpFXe/LSlVddQpeUXlpZ7wnefvvZy4SMKI7Kt/YRpH1/oq+t7Hmo6xWbEdrdF/XpS4O01fFf/rJcui4rQdnaJvWF0M9faWWJffkucf3/hp+unTt3biVAT+w7Hp206LJpSyBbSBJqs2Ntv3E4Dvkw8fwxSfBlCIHyXCiIBAxdl2ruJVol2nrQ4hUNr+MgRmRE1KPvZW2B2ioGBF7kEEmOwdp+Nmzp8cEDAKRkdXr77Wd2ly7+dXd22bpU1wbyoPvnZ/57fVLa5ez4G19gC85f3FbDEXr5tY/s2CP5Eilh0T/919Or7fTV5wd921bY9PntLxMQnUtbl7p+vdH9P/W1MZKkOhOHg0mCL0MU9M8FgUmvQC8vYvPbZStE3z/0wMU/ivm5FnK0L5iRDHIU8GxFLD3VZKd2RuyTgH065HWve83uwvllRXrL9htgDxBWH2/afi7ot8MRm4cY2ZZXX25/1at2FxYi5EsPfEY/+DxCPp217+cvLv773Pz2MdJuG7DroYX7dJ7g+s9dW/80aNUnv9Uan41NKz/2CR/JxGFhkuDEShAQGR4HOoKbIEYE6R/Gfvvb366X0h7EIKnIJJJEZEjOPhvKy7el2yrM9uLF87vbbl1WYQufWEmtq77dzc9+EWVbAUa6x5Gg7f8sPi4la1rbRJm2848vtgloH9k+8cSTCxG+bl11Ijj39Ly0jPD8125/Rzli8+fo0lXb4fmM78Q/DpMETyEEfauUIFALVkQRIhYS4bQFacRohYgMPdn8/e9/v+4jS3kut7VJl1ihIbWVsJZVlhUWwvOU9Mknn9i94fXLau/mS2u+BxWXFrK77bbtz4PYaSXXZ6+29BHpnHG5vpDpuAqM/CI8/WdHu1ZxVq/rt/nOvmp37tx9S/r16y87lNX/2tCH7EnLZ2+f/EB546p84vAwSfAUQ4DCfuCOoEOeaxWDECIDMuoiCiSIDJGiy2yXmOogQC8L2/pttBXbhQt/3Z09c8vu4iUrwjOr3uLhalcaWT311NFXZJRpzx8orSu5m2/a/e9Csr5/YN+qEZn60KgVnPclpeUhOcQnDxnStRL0szn2gnb0IzKjd9yYda+xV1vSaQzDXBEeFiYJnmK0+huD1b4gHyFPGT0i2BFMK5vKWzUiq8Q+cttfBY1te0L9hS98YX2N5447Xr84cn5dyb1y/f/nWy6vxpCXn5PdffebF1K6cHmlZzVoVdf9yTfc8YZ1e+bsRmxWaXy49ZatX389v/l/87NfigkuoS8tPMdel9raPY606h+MYwHV24f8xmnicDBJ8BQCeWyrp+Mvz6x6BPG1yveBzMJ+gAv6CGMkPqSEnKT58+lPf3r3s5/9bCG4u9YHI4vVlYys/O666651hfXWt/7L7lOf+tTuzW95y1K+kO26OttI5RXD5b3LZvZJ4Acb+mYVyA9pftVXsvmPwK4msfow2gV57IfnO24Th4GXggTnae0GgyAuUAWvIBbgBXL3t47DGOzqEcSRlJ8egun+m/uACMjKjg8eeiBAui5NicvSrc5GkvbVy+ab3oQkFzJa/HXJesuy0nvForuS1tKk+4fZR3KIL6Ljg/aBr3TY1oa0PG77sKr29qGcT+MYgPxIdBy3xmdff+Llh0mCNzCQQ0Es/bcw6qhH9iHvuWxFMMgHXLL6NzQ/7fO7WoSkDEkCDrHiQ1hWfFu7C9msbWzkt7skvbS7+rO1jbDYvhahH+ejPPrH9UtZ8nzQ+Dxf/YkbF5MEJ06EkRRKtxIDl7PECkq5lZyV4Wte89q1fKl1tF0XWSPJDGUvSCYmTo5JghMnwnEk2KoQvA9IXO56DcbTY4TowYjL3Q1LvasIcMHlvBcjExMnwyTBiReM7pe51IXxXhxiRILPPPPnZ98nfPV6D3ElquMIcGLiH4RJghMnBvJLAAlK9xCDuJ8nDwFaGXqosd4LnAQ4cWCYJDhxYkR+IRLsiSrpFRbEhxS91PzKW559EjwxcUCYJDhxYnQvsC0SLI0MEaCf4yFBK0CXxl0yT0wcGiYJTpwYCC8BT4dL94sNvxvu1Zhbb/UHUs++EL2pTUwcDCYJTpwIPfyw0utdQO8JkqeffmZ3aWG5C4vKpWVq/empp3f/9u+P725aiPGOO+9cNBfi9CrNzQsTIsPjZGLi74xJghMngvcBXfK6xPXrDh9V2B5+bKToaTA282SYeCpslXjmzNn1KzUTE4eGSYITJ4KfsvVzNvB1F78R9vktT4StFBGkX48gPV+6dkns3qCvvkxMHBomCU6cCIjO73j7bS/4cKk/IfK5LQToY6b0bH3V2v/wWi2mPzFxSJgkOHFiIEBE6IEIcvP6y0MPPbR75zvfuf4bnj+BcmncB1mRpH3EODFxaJif0po4EboU7pUXafcIffDg4YcfXv883v8l+3WIS+D7779/95nPfGYlQHUnEU68lJjfE5z4hwH59YUXX5i2MiTgT46sDj0sQXp9XMG+y+WJiZcK83uCE3939FqMJ75We4jNgxErwco8NVaG8BBgq8dJgBOHiLkSnJiYuGExV4ITExMTLxKTBCcmJk41JglOTEycakwSnJiYONWYJDgxMXGKsdv9PwzMfuTpIf8BAAAAAElFTkSuQmCC;" vertex="1" parent="1">
          <mxGeometry x="190" y="180" width="321" height="238" as="geometry" />
        </mxCell>
        <mxCell id="ceOo4IykpOdK76RUaiW_-2" value="" style="shape=image;verticalLabelPosition=bottom;labelBackgroundColor=default;verticalAlign=top;aspect=fixed;imageAspect=0;image=data:image/png,iVBORw0KGgoAAAANSUhEUgAAAJ4AAAAhCAYAAAAoGRLbAAAAAXNSR0IArs4c6QAAAARnQU1BAACxjwv8YQUAAAAJcEhZcwAAEnQAABJ0Ad5mH3gAAApzSURBVHhe7Zx/TNNnHsffdy6H8XI1XtLEPzSbE26e3YZiYFdycPVEacRBlMAMUy8q3AHugnB3EYhTnIKcUzA3fwQpy0Scnm4TNWpBR4mHrZkDk7l6OS2JR5tsoYmmvWDaC+a5z9Pv0/JtaaHjV5PL95V82+/zfD/f58fn+Tyf5/M8JfyIEVBQmGF+LL4VFGYUxfAUYoJieAoxQTE8hZigGJ5CTFAMTyEmKIanEBMUw1OICYrhKcQExfAUYoJieAoxQTE8hZgw9Yb33A2n0wn3c5FWCOB1OyXdeEXG/yMvvHBH0cepMbwXbvSdrcC6ZQlY9PoKpLyVisTXE7BkRT72ftYPtxCbUXrqkZ5ehFaHlOz7MBWLXk3F3q+l9IzhdcB4YAvSf0n6WJYq6YbuE1fvwJEepxCaLhxo3bYS6QcsIj2NvHDC+H4OUtI2Y1fjQZSsW4H0ohb0hR18skr+Z1GTwmViu7Tx7JVFGpZR3MBOXzOzx4M2dufaGVZboKX8eJa89QJ7PCzkZ4pb5VR3Njv1REr27udt0bJdJo+UMRPYDGzDEtJNgpYVVBlYu8nKBuxW1vWFgZVlany6yagxM5cQn3rs7FQW1V9hEunpwsW6KjJZ8UU7k2vX1dfAsrQ1rDfM2E/O8Iat7LCOOpZSyE7/K/yAuoxVrGBalRuBEMPjeIZm0OhcV1hxAukmo4Z1PRV5QXjY4xOFbOs5m0hPBzNkePdqWNpuM93w+nQ0yUpZhq6KdQ1xNZSygrZBSU7GpJZae0sVjv17Ad4zNGPLL+JEbjCqzDqc3auFSqR9eN2wWTphvM4vC2yh8SA9dzrd8L6g++f9MHO5nn7uoAN4nQ9h8r3fCdMDpyQ7FlSme8g7IueLRakOuh0pqxtWZ7jghOKWRxbR3k6Y+8cJYEjetK8GRqzB0c/3YuU8kR1EHOJLmvHxxsUi7ccL54NuURe15/sx6qJ4KkiP0QaPIg7z99+Pt3/sPnqf0Tu+OkbaaP2e7KCvD0k6rSSEpcgvr8J7iVb0PaHx/5WO4hyreCZDGOAEIG+XRrNpR0eQex0Pl/kgy+DLDy0zI5c2eOYLb1XbVMWSudfgMlkGNsCfDQ+y9jJpCQ+6tIXsvNx5hHq8kPRAUzaly9lH5wpZclBZGrahRVaQy8xqxbIov8YMH4bI25FMWoNVZETJd1dYmS9sCamrcHRdfBnzLeNBshTu7JevLmE83rCL3agg/dHyv+uWkBy2sfNbR+s0uF5RVtlxdipvRB9ltyRdlhn9Mnlsz/5sluHvu93AssJ43IkbHi+QKi44N9qNRsbO2ou1LHkHdYjcsA+PnZ3fwTutY4f94+QzEuoYKafsoo25XC7m+s5FBu5hXVWS0ni+RyjFY+tguzJIPqWcdfm1HpXh8XdK2fknYup4bOyjbF4vGbHo1sAXpSxZSzI2//TysIGLlEfvRjQsUxWVncT23BPpaBiiWDmF6taWj9Q1TMvxtSqWQZMvmQYvYFBPSPeU91peA7sz6G/7ILvTJE2irCb/xAk1PB6LcV2T/vxG589LyGaH7/nzPGzQTPEZr7emT+SJsqh8X712GhOXnQ3yV6wkW9ZBJXEZGgMy5FN5paydng225bENYZbaiRse7zw1glv8DybUUwybWBl1MqvJLqWF4QXSfqiDaeHyOSKmChhDVIZHxsFDEznfSHUE9SuMZ+uqoEHwe+FQQuuOgm8bdBHf4XHSyMT0sBs7qO5EGmD/5JXx7SEqJ6GU3fA9kxteOKMjhE7DORCpTWRA8rLC1iuVnXWoj+5GcJlqWEaeIezKMPEYb5b0xc+lfhC07Ta3VCA3nbb5visfJX97iNmviucBFkO/aoG4l7Df7Yad4qaiTcH5PlRrSJ5kvrSQTLT8BoHQxI9KFRyPEk5LC3bm+tu7ErkljbDGhcZmMmbNpg8HHFGrxgFztwPILMSWl0WWDNUqPfQkY+rhZ0MWdHcCC98txMo50nM5Gn02Fg5TnBZ0guKEqVqPbZec0Oy+gKOrRnoo6VQFV08jKqurg64z97lEJyxf+UQldPow9aqw8pARH8w1IDc1VdLTihXIvboUJ89sR7ywFTkTN7wFSVhB7TffCxM4RuJFP5o3pOLdw3cxe812VFdWobo8E3PvX0T7IyETIA5xL4lbP8P8Iw6qMAqPnD85bKdykLKlHubZmSjk7a2sgH7efVy41C8kwqBZjlS40dsnDhGjgW965vyMehGGkHwP6UE1N3R6CMJMHFytxrbzgHo+YG1qgEl+tubTqRf2byww94RctDlYuGABVPJxmPUTcRPCLBWSfn8cN81m3DQacbu3FzeP5CE+/J5zMgfIy5H/O/I8lxpxbIwxCOIfLah7AOiPGHF29ybo15KXWr8d9a0NeCeCHuXMVs2lTwfstJMaDe3U+O44zOyaON0wHH5InqgBt85WYgtv79q3UVTXiqMbx2iwOhub19Ign2iAMarTc5o0vGt2B/mmMDz/j7T79BnAXHCbs9sj+HU37d7pa7ZcD8Nq5DQb8dW5SmieXcWufd2BQ31Jp0mo/tyE27fDX9W/lmSjJW5OBGuTManjFM0f9uId9UMcKaiA8ZnIDMH7qA3b9DtwmRvLCw99LIZmafCguTvOoD2KAVLr3kbqS/dhOEPGEEp/C5o7SIX5tNSIrKmAe5f4N5cGexF3J1ovjdXgOOj/QoP8/CpKNp+ALcIph7t7H1bnN6LPrcZv36Y1/+sWtNLEDMV22gAjn+hreYixHDnr1XD/vQ2XRzXBDWNLG+yqTchOE1mc9XXS8vrydpysXArnpT9hT4f0slq3hszOguOfjNap+8tG1H32EO7xjqomwKQMD3N0qP+0DitBCn6LltADbTA/kn6PdD6yoPV9PRL1+2B69l94hkheoyXD6UdrbQvM/LyMn+ddr0buzruIG8OBBJifh31/Xgr7yRysru6EzUmz2+2kMmgA11Hc9UYl/rpRLYSnAg20ZA+2T+rRbHGS1+HneZ2ozK2AebwG0yB/enoT4v/ZiNXL9Nh5qhNWCvq4buwPOnGkKBWJ29pge+YGn47qvL2ofsOBY7l6VF7vh5N7Lmc/jKTDdR8+hKbyILbQUslJKq9DzrxO7FxdRO1ykA5I1mFBc5EeJVfikHOkHKkRPP/CbcepHjcu/7FKMtz5m/BByQLSaT5y67upPdRLn05pXEpOoN0yOMWriEBsMiaHx85u7M5mb9Ku0ndE4b8SkljW7g42IDvoG3WOtyST1Zr7fDum4F1tpF2hhz1uK2VpIWdYyYUG1ivfUkW1q6UdmpQcIXS3PuocTzor6+XvR9rVynlKfSvWsdcC74triY4VN9EuUL7j89jY6VDZBC3byuWESICnJlabnRRSZibbY5TvTkOPUwTiOOaV4iuiXBf1p3DkzNR3aVhaxRU2GGhfhLImyNT+Cwt+Iv7UfxpOccvPVYgLN1sCcmPIjIesrrifqqdlYyGHn9q7admdcF3815jALwvUbzX1W6RGwX9VGfL1bFz9cO8kFTtOmdEga+N061T53ykKMWFyMZ6CwgRRDE8hJiiGpxATFMNTiAHA/wAl4B9zbqJbEwAAAABJRU5ErkJggg==;" vertex="1" parent="1">
          <mxGeometry x="246.5" y="410" width="208" height="43.44" as="geometry" />
        </mxCell>
        <mxCell id="ceOo4IykpOdK76RUaiW_-3" value="" style="shape=image;verticalLabelPosition=bottom;labelBackgroundColor=default;verticalAlign=top;aspect=fixed;imageAspect=0;image=data:image/png,iVBORw0KGgoAAAANSUhEUgAAARkAAAEPCAYAAAB2n7CRAAAAAXNSR0IArs4c6QAAAARnQU1BAACxjwv8YQUAAAAJcEhZcwAAEnQAABJ0Ad5mH3gAACUpSURBVHhe7Z0/3NRU9ofDr1EroVIrpUIrsAIq2AqoxAqsxAqogAqsZCuwAit2K7ViqVirVyvWiqVirZDKtWKtWCvWan485kbDmMzkJvece25yns/eJfOqzEze5Jvz/+5aVdXz/zmO46RhtXt3tevhw6p6661fX//fr//vOI6TiF3//W+1OnGiqv73v19fu8g4jpOcXd9/X60++KA+dncpAa+/XlVvvx1ePOe5klf/+ld44TjLZXXliotMNMePV9WxY1V14MAfxaWLf/6zXg8eVNXXX9cC5DgLwkVmGwSvGmHhz5dfDv9gBP/5T1V99FEtNo6zEFxk+jh0qKouXKiq06fDDxLy5z9X1dWr4YXjzBsXmXVOnqyqy5drkZGCqPvevbVl4zgzx7NLDbhCP/xQVXfvygoM4HKdORNeOM68cZEh5rKzU69QPKTC/v3hwHHmzXJFBmuCuMijR7UVow2ZKcdZAMuMyeAOff759vSzJP/+dx2XcZyZsyxLBuvl2rWqun8/r8CA18s4C2E5IoOo3LtXVVeuhB9kxmtlnIWwDJG5eLGq6AqVzhoN5Ysvqurjj8MLx5k38xaZ3bvrlPSNG9MqdVNBfQziQtWv4yyE+QZ+sVpu39ZNS2/i73+vqkuX6oCv4yyIeYrMuXN2rJd//KO2XmiSdByLEK9sl1RwzSZkXiKDqNy6ZaOallEPiIsHeB1LHD1aW/kUgyIuTBPogofinTt1/HBiJnQ+IkP8hexR30nTAncIcfnb38IPHCcjCArFpkeO1AITCwLzl79MSlTMQ2Sa1oCctS80O376af0LCWMHHUcd7gWafBlNgqikChlg0YxMWJQvMlgwOYvrEBTE5eZNL7Bz8tCedyR5H7z/fp3AiKR8kcGCydF7BAgLAuMjGxxNEBKslBSD1GIgTnP4cHgxnLJFhgAvPUjaEG/BR/V0tKMBLlAjKvyZq7kWq/2VV8KL4ZQrMrhJdFBrnnBSe9S6+JBwRwqsEoK1JDDIACEqVmq9gKbeyIdruSJDqwC1MBoQa8EfTVw/4CwchATXh0X2BzGxJCjrLM6SwYrRCPai2mxU9f334QeOswEsj4bGKoF9+363utv/TkksKibDL4maGGkQmD/9yWMvFhn61B/67735Ztq/b46cP1+XaERSpsgw0e6TT8ILIYi7IDCelh4HT3Ce5O2neUP7qb7Okm9iyxAq4H4YQZkigxUjaXLie/puApvBVUUMEJDXXqtfdwmKUz48cAkZjLwfyhMZLuRnz8ILIabui8TNR/3Ce+/Vn5cAH9kwfkn4td9+W//JKgEEnYVLgZi4kCwHKn1xkyZUsZcnMlzgVPhKgRBgxcSeVITl7Nm6pHtoQJr3QNCuXw8/MEIjKmP7XZzy4dpEXBCZqSAyRa1z51ainD7d/b596623Vqu7d8N/PJL791ert9/u/vs11u7dq9WZM9O/hzMPbt1arV5/vftaGbHKExlOgBSPHnW/Z99CkJ4+Df/xRJ49ixe4KcuFxVnn3r3V6sCB7utlwipv/KZk5oH5GUPBjaClgVhLCojd8PdJVzDz97NjA7tl8n64d86yoU2GzBFLoJq9PJGRvAljKnq5QRGGlPD3IQASIM4M9EJc2LEhlTg6ZULskVjgG29U1QcfiFazlxf4ffJERmgIdO3ZMyzgS+aI7m8p3n033RMFMbl82c5WME4+uLYZ1fDVV6pD1dySaUDJhwgMSLpscOFCOJgIrhDtFy4wy4VrGkHBWuEhyp/KUxvLEpnU7kmbb74JBwOgXkSSqSNEEWIsLbaDkXQvHZvQBkPqeV1Yhj5EE1OWyEjeMDHtA9KWzJTGTwSKOqJcg7wcfSjqbMZjUuPF4jijsLQpKybDzU3gUgJ+KUMLj7iJpateCcjFlnHjHrHXlKTF5+SDOB3XxIMHtbXCa4FsUGrKEhme0mw3K0GMryoVfG5Dr0jMdirsNUX2yCmXJsODcPz8cy0k7VUoZYkMtSlSIx6oERiSxsNKkO6dgpihzbnGkDp/BEtjffYQ7swvv4QXz2lfZ/wzAy6NJC4yDUNFhngJGRtpho45xEUiwOu8yJCbd/3m72KTFbEAgUiBi0zDUJGR/AwNBKHJCmyDz0IWqfQYzPrNun7zd1kHXT9zTOIi0zBUZDRcEz4Hn2cTxISIT1lOUTfnk9EWQKyhyeINOdfOPEBkill0KktBs2DXe66vq1fDfyDIjRvd792sl1+um9msQJPozs5qdeXKanX0aNIOXl/lr7LqZCz4v9KFePDdd+GgB0aPYtXlhDgF816xuHDtyIbRC4OFEpt6d2ZNeW0FUgwtsJMuxINNtQ+k8XO1CSAeCAu9VQSmGWrkbo+zBReZhpdeCgdbkBYZbuRNIpMjVY2QkFKnQBBhKaAAzLGDi0zD0ACqtMhsqo2h4G5qX1MMuES4Q6wRG607DrjINAxJA2sM0O4bnMXnk94Gpg3WCm6Ru0PORMoSGck9kIY0JbL7gCS4Sn03NVaMZrqaAee+55STgLLqZICkmARkrrYNraI5U9JdIqhKzGMdrBjeW0tkKHJ7553wwnGm4e5SAzfyJmuG0QnS8Zg+V4kCQE0rJmbWseNswUWmTZ/IcINLZ3WIgfS5SqdOhQMlYrq/HWcLLjJtDh4MBy0QGI0Jc8RAuuB9tQvvPEXtJKQ8kZGs+m1bMgzgpuiNWIh0Vombui9FjKukCZ/FQmW1MxvKExnJknXEBKsB14jBVGxPotHh3GfFgHRGa50h4yUcJ4LyskvSGR5tmnqULhC4p091hK7h5s2qunQpvHB+g4cPli7u6/79v+9bxe8mxtJtz6ehRKDdp9bE5Nr/zgxwkckJbgkC0zcXRXK0RR+k0EmlLxmuL4aBHTlSC8umrKMkzNVBiJqZvqwCB2W5yORk2/ByYkJSO0r2ETtbeC5goSAsZ8/qtm6MAaFhIT5YP9a73hGZotYPP4QhJoXz+efd36+9bt8O/7IiS5sFw2yea9fCly8U7olbt+pZPl3fMfNySyYHuEe4SdvMXo2tV9pgmg8Z+zkXOLcE+XO5QxLgUpGp/OtfzYwnLS+7VHpAjBuZsQlD/GptMV3SzFwquIl3zUlggGvm4sV62D3jWQ1s8leOyBDNJz6h+WRPDQK5KdDbhqyFdAHgOqUL+FAQFgosNbN2OSC2xKB5xDTjfWPfXeJGowOZTeibtGGJkKpmLsvQzmaeSLiGmhCE/vLL+r3bVtSrr3YHQ8dWInMO2lXFWHUEMQEBJpCJ4EmJHjfeErfxxY0i2TD0GkyEXZHhIkdYEJjSnzhka4a6SA05RMYiZFEQnseP6+MU820IRy4VhJtrsS3ywtgTGZ6OpBFPnw4/KBhEheK2jz8OP4jARaYbzilC88039ZN5jLVDrMJ6mloSzmGzIb8GiEz2RRqRLUkePgw5uRlw9+5q9dZb3d93yOK/dbbDVixcO1xDXeexa507F/7jhXPxYvf5SbzyWjKNS0QTYMnxljaYoZTlTzXrCU5qbIc7F4gz8GQmpoRbtQmuNXrT5h74HYJG8WVbcdTW6dP1E2hOUBDFE7Lr+45ZbsmMh43vthWm5Sh0tAgb802xuAcsPUuGpwf5e+It2qlZKfBteXpS+LTt6RmLx2SmQ8yGDveuICfXI1mmkksiUsH5OXw4LjERQ1txRBZl6my7imLOBZ6UsXGA2OWWTDpo4di9u/s883skfrZ0BOMzcpYMMYXLl/WHLklABgNLhY3j8V+l6jfauCWTFtLgZFT6LE7iM2Q2sWxee+3FSmAs77lVBq9DTIvh8QLNlulFhpvjxo26o7VUuCAJ3CIqXJQaorIO5jyzZJx04A5QTkBZwRT43bRT4Ouv2Y207YYhYCW4ZUKzhNKJDCeS0QRYLyVH7WkQVK6I7AVj00nPBx/o1Yj0gdWEhXTsWF19bCVOSdtL4kK9NCJD4RzWS+kBXcTFUheyi4wMWDRDe8i0wNJh1CoeQE7XDAue9peETBMZROX27fE9LNbALdq7N7wwgIuMHPyuiUFIZVSmwP3ElsS57ivaDvoG249gfBc2ykt59lwEBiw92RxZiB3SF2eRxppgpS6NGELiPdfHiQz1LgxUKt09WkexacwxwIcfhgOjNGJz/Xr4gRIEsRMmbuLcJQK6TBKbQ/NiF9tm7mpD6fschJy06LqViCXByk1i10AMPAfNKX48cIlbJSBOZIi/zFVggPSm9lNjE9TJWLgRuyCm0aT2EZCffqqPuTib7Ny2/q0mtctim5Ec1xYCg9CUAOeLYVtas3Cworb9DgcwXGTIHuEmzRn8X8qrrZBDZAiENnEA/vzllxcFJcFF1wtWG3ESzdYTvi/BfusT/xuoySFUoWHRpBJgRGbrouQ4NzQgUgJOSb8kfeXnOZbGzgycz+PHV6tDh7o/Q6515cpq9exZ+JDCpGxs1Vi0nGi16Rw40P0ZItZ2keFNcvLkSS0uzeeRFpmTJ1/8/jmXhsjQEd/13hbW22+vVvfvhw8qCNdU1/tbXnSZa4gwW610vX/E2p5dSpzOGkxTAo4pqxmMPXgwHCwE7b22YyDWg/sqvaMlMSHckJLAbdXYTpg42cQK/s0iQxorRw8STYgUShGE1S6W4oJbEiVkr7iZJOtFuIlKHCyO+ErX0SC+E8/NZpHRtmLISpBGZlpXE2jUBpGZqNxOYnjQsEe3JPQQlYj0eYFTp8LBOPpFhqyG5rBlXCJt16gLBMbKkOlSMh4akBqXrGcptXKd8zK1q3wbeDMT3Ml+kdG60fC7sVwy7AfTixWXSdtVtM6nn4YDAawUB46B6X+S9w4P3glhk36ROXIkHAhCzIWqQulBxrFofHcnHuIPkjdTqfE4zol01TLFkiPpFxnJpygXC+JC9sji0xrT2eMyNpEsBiw5s3jnTjgQYoIA94vMjz+Gg4QgKAgLaUnLzYj4n0vLMpWCWzLdIL6S52ZC+KRfZFKLAC4Rgd2pvUFaFsacRlg4wyg1JgM8wCXDDhMSIv0ig0sz1c/ji5MtIrDLmpotoaZD62ljfQyAkx6ur9KK8tpIl30kFxnAtRkzyAlFJVvEKEv+TKWwmkOGeKq5NWMP6eLBWGsGUeI6oXn46tWqunfv98VrsjJaFhLNrJLs2xcO4hjWhY310BcMbWaFYLVIVx9qz1fJPQaAC1Va6PDlE890FUX6nGwaMs770v385pv1PcHx0OuxyQB99ZVcJojth5g5I8XY+6HdyGR60biYg6tXuz+PxpJuBgU2Nut6b6tL+pzQ/U2XM53p/O45P6kbVemgZsM53qPrO45dNBJL8vBh9/tuWWWIDDs18gVzwb7d7ITZ9dkkl4bIsLtn13tbXRqd6Zo8elSPmkgxYkRaZBDHrvfdsjbHZKzAfk45S/1pEHv0aJ5DuyRKFZzh4HLdulWHAnB1cl7n2yD+NCIwbl9k+CWwYVxuOLlMB2Qq2ZxqaMYE9p30EO8kpsIOIIzYHCM2GpmxEUFs+yKDuluqvkVgEBqePhq/VGlydbuPpeRalqGQkRojNi4yIyBlbdVq4LMxg9fq3j1DKU1klkQjNjxoNbOqmxghMtN2kJSEdOHOji0rpg9cDgYrpa64lE7XklZdT0lyMccMqZZqJv3223AQaEokOCdLhN8V19imUShY19IPPSr2qZ+LoR0FNrOY7ao1KDklZIMSDF7+bWlkl5yy4Jogxd51vZAWl4b36HrvDcueu4Q5hgVTYrwDq6Mxb5cQO3D0aa6xXFmoEW6bLZFBWAh2lX6DkiUg5U02ag7BYccWXFMkHyYMkhrNiPCFHZHhw7NDpeU6gRj4PtTVEBymh6WE2JJTDlxPPJB5oDUYvcZsiAzKjItU4sT4bfDdGMiO2Mx9B05HH1zz5r6xkoFaI7/IkMnAx5TMoliACwD3CbHJYeY68wUPICYjOIUR41ryigw3G77lkoKkfFfMXL733IW1ROhKJ00rPWkuJU0sUyP+N6KuKl+dDK4DT3ZNqLWgpsVS3If2eabNd00i1Bj14LwIvwtiaA1N3VD798As4PX4x1J+T+zzFLujZzufrbLoNr19OyTdlbl4se7oZn9fazBSYL3+wetk9Jk62oPrm+tsbt3iDSPGU+i6S01ql/11tWk2wcKaQY0ZTmTJHMZ1JF7jNTZlwzXFdcY8a0bOSg9y08ZsTAZzkxhEzh4MxoC2YfoZuyZY60L2Gpu8pHzw0GbCNcZDrZT4ziaacEMksiLDTXLtWn3T5Gx0JJDXFfPghLH/U+6tcddpamzmUjNUEhJiQAwDy0ZyNwENuIcQmkjkRAbzH3Fh4FROyBJsaujipGHl8LQZcQIdZxCIF82o1h5oMYx0/dKLDK4RhXWk1HIXB5FuI/YyBJ42Ft0nZz40DzSpQeLSrHfGDySdyGDik/qjsM5C5S4CwxT+mEAV5iDu09QN6Jxy0bBmEZqpe5DloCvkMIA0ItPMwKV83kL/BC4SVsmYgUxcZM1Wum7VLA+Nmx/XidkwJcG9MHLA2bRiPNyhdu+EBcYM1emDwDVZnnYTmhMHF+a2i5ML+KefwoseLlzQybZh/fKQkoaHMSULuUMKQ1kvUoxgnMg02Q8rlgvwBEq5W2UbRDRn+l0DztuDB+HFc7DotgX6eCKPNKGj4YbUqB/SEhngAVZK0yzZsZGWTHzF79Gj9V4xlmBaV4p9azYt/n6NyWO5YPO8ru9tZWlV0HJ9d72/xGICZAncv9/9+Qeu4TEZnuJ0e9JPo9XxuQ2epGSPsGAk6hva8PfzPsRq5lbFCR5/qhn7tB4D51zLaprCnTvhYBzDRAaTLlc7QB+Y9++8079vsRQIDEKDuJWYIejDRSYPX34ZDoyC6MY2RK6xOSbTWC+WOky5sYnMDxWXZmP0tj+PVYJYTLVIiEcRl0KErcSmxrJrVzgwilZMZkrsYQwEs58+DS8MQgHh1Lqetu/0wiIGYa2TdEjshX/OnsB0NW/j2bO607npzu76+4YsuqdLj9d0fS9LS+ta7NsJQHIR87DIyA3211e/yBAItMKTJ8NazPnM/Ltj4L+bGvzkAmUDe8SrNLq+j6WlJTJTHjZjF+MlrME1fOhQ9+eNXP0iY+WLD80cpfq8OzvTLzQ+L5+npL2jctxcMUtLZLreW3pxM1sD677rs45Y/SJz7Vp4t0yQJh+qpFeuhP8oEQhb1/vErtOny7FqUm5KJ7HmLDIsSw8kQg1dn3Hk6s8u5So8owiMql16iIYEZgkGEnxNCRW+U4LddKDTw0XQvJSAsNU9x5eClaZJgt6UaiSkX2Q0GsXW4USTlqYtYOj7X74scyNTxh4L81+oI6IDPXYWDN+XMQDUTbCk637WOXYsHCwY7XPeJsf91oXExMgu8+bXpRmTIYo9ttJS0owemmkgnpHCveScd/39Gq4Cbt3rr3e/v4WlcQ54j673ll5cZxbc6r7rb+Lqt2Q0agUa0wzXaEzlI66SZO3EEJeJOgdcoxTDuXD7ut5To+AQa/DcufDCUaNxrXO71RS3jmyA3EqX8vy6CARKwRODWpau941Z0r0fQwLAZKNSQip9PdOj1ePC05T3ar+3lTUnSwaL8dy52oK3QIqM6obVLzKs1FuHsBXKiC0VehdpNknIcHW9b3tJZAW6zFatptSJzXBiS0Nkhvy+xyyEm0wjNVRWhKVBWGBY20c9kGkhKIgZPzXjRLYIt4h+jRS9MrQL0FMlySuvbA7KcRpTw/vt2fPi+2LKps6i9UEAOnGGYTIabQVcm4x6iAVXh+wcrjMB/1dfrf/kfrHSTNwFLhJtA8JB57h5Ms3JbP5sOHUq/mQiOAzCmTr/5dkzWX+WeFHfzBTel/eXYH2uCTcYN5oWKYd/pcCCyDQiwrX/5pv1NW+pry8GJYH5FURm0sLUmtJ7QeHPFHNN2vzc1GpAVkCKLpcpdfxnG7yflYyThrtEH1v7PSkGxSXHzdd4fy0UXKT2Gj5Ppo9bt6YVchFdp65kLNIjCjRGPnZx5Eg4aKE9FqCZ3byUrBOWKdcjUxCfPKk3JGR6HSNOpK0oLTQtmIYu5Rm8iJCngtaArvfYtlK3FKyzKQsmacmQ6Vl/2vB6bAPoVAhw80QngKn4FPxtzcmSyEWqdpnINX6QONYL1a2p4iEoK/GPWMuEwDRPHik2DVCWjpN0TeGzMheWqlBiVcz3efw4/HAL+/e/aBmux/YcOXIG89uKM3jxBJd4oo5Jn2JpSLKpCpJ4hSRdVhTvWUrTpWMDqtHXryPFNS4mw/7WEg2UPNVKitZLj9/cty8ctOA9J45DdBbEzZvZs4TjRIbgmCNPX7ARF25O84UdOQxsIhcvMvjUknUpmvNVh0A9RC76ao+Ih1iqYXHsInmvDmScyDg6bEqbEsibWsjozJ/YkSMCTK+TSY01S2YbkvUGCPqm2Bf1DlN3XHDmjYHsXbzISMYCNAuEUiEdG9lkzXC+TpxwoXH6ee21cJCPeJGRFAKLwcxcY0gbtvWEEZ+h38ZdJ6eL3Nfvc2y5SznHH/aRO3DWlcZep7FoaGp0xoGbbvH6m4qBGKqLzFSkY0gxPTNknIjTzPFmkYbfI/OlNVxP3qupwJWuwnWRWcNvjj8SO0KjGcbu7lM8uOu0cmAVpjx/jJCgKA5BYRtcFscITd8YkVS4u7SGRZHJ/SSIsWQauFm4UVgW41wWaccaERjO3Rtv1NP7EQiEoj3fpw3XbfPPKZRkYVEi9uwxTsyMojhEZd3ylb7mDdTJxPcusTuiFGN6LKR7l7bNfWUGiTRd7xuz6JzW+Jwlk6lDWbSTv6HrfRVXvCUj+WT/5ZdwUBBjLI0YUsR82O2ApymjRJsAMU9dt3Lys4AQQbzISN5U0kFUCQz4vIPBJcAVIECM6OAOIDwcnz9fm/kIkguQHhoiI/0g3EL8PBmmpe3shBeJaYJhMUjPk+EiYKh3F1h1T5+GF0JwwyMCuUBEm+Bz+5gir3ZQmgs588U8iU1zg6TBqZCE2JD0BMkNxIuM5E1tUWSA4F0X3GTSuyVgWRB8LA3OzbqV1ydE68Os1qH/RjoAn1NkeFBJfj8eUjyscoHIRC2GOElBgLLrPTct6cAvdL0viz2kpGGQddd7L2lpBK2FtmgdtKRHi24ahq+w4mMykqMPSosDaMRjpOsonJo5x6CkrcAt2Ar8WqWv1kDjXLjI6CDZk7cN6eBv5uSEi8wQ+n5J0gOtEJgFpDgXj/TvOHNBni2RKc1klR4I9NVX4cARZ85innO643PiREba7MppssbCuZAWGTJLjg45RUby4WrgwW1LZEqCXQUloa4hY22Do4jkw5Vr6Mcfw4s8xImMdDzGqiXT9b0//DAcCHHnTjhwVCjJio6BzFLm5IEtS6aUmAxFW5KuEhe8762kS85rT/K9uWczC6i7SzHwVLh7t6o++ST8QAhiMaUIrjMdycbg4kQmc5Q6G4gL1gv7XmtsbPfZZ+HAcRKQ2TiwY8lYTiE21otG5SST7bwAT5+cEwCkrVbqZDIKjZ3Arxed1dCo5ywLaXemqLaCpcdkpNGY+erYQ9qKIsyRMS4TJzKZFXHWcBH4/tZ5yBwYFa+HwgPJ6CnEiYwkJU7FSwkC4xmlPOQets3vXVIE2sPFMmBHZJYMe/14XUxeclvpktYMIpNRSIeLjHS171LhCcbku9wm+9LJLTLSlnxGa8aOJbPU7BIjR5fuKlogt8h89104EMJF5jlLFBnS1dTFOPmZuyWT0RMZLjKeWUpLzsHVzh+Zc0wGMlbru8jkwAXGHnMXmWIqfiVZQvoWl5AYjAuMPXKnsQn8S7pMRbhL0pS4RW0MpKkPH47fV8rRwUI1u6Q14yIzYxCX99+vBUbaJHbG89JL4SAjktcH7mAmoXGRkQCzl+I6du5DXDyDZB8Llszjx+FACOmZ1D14TCYFWCsMmrp0qd53eO/eegP7nFuDOnHkjsmAdBr74MFwoIsdkbFc8Upn9Ndf11khFn1GWCnvvlvvk421QtXuzZvuEpWKBUtGugN/8ZaMZbBQTpyos0Ks69drK8XHMjgpkW6UPHQoHOhiR2QsmKuOkxtJlylT8He4yEiX/ftALMeRd7ePHg0HetgRGcfJiZWYoHSG6ciRcKDHcJGRjnw7Tk6sZDcXbcmA5C9iqdutOE4baZEhJqMcl7EjMhnLnh3HTDhAowRC2ZqxIzIe+HX60IiX/PxzOMgM31XadXvvvXCgQ5zISNaFZJ5D6hjGSrxEC+n6K9OWzIMH4UCIzFPVHaP8+GM4EMRSYkPaZaJeRrEwL05kpHtxMlUkOsZZmiWjIaqKLlOcyBAck1RZZV/RKYSl1WhpBH9Pnw4H8sSJDNBxLAW+ogeAnXU0LBlLDboaPXFkc5XCE/EiIxmXIfB74UJ44TgBjXiJpaQDoqohekrWTLzISA9gunjRA8DOi2hYMtYG5Wt852PHwoEs8SLDl2e2ihQ8UXZ2ss2+cAzCU106LrNEkSHRolAEGy8ycOdOOBCCL37vXpY+C8co0iJjra1FMvbZ5uTJcCDHOJFh1KS0z8iTBYvm2jUv0nPk4zLWEg7S29Y2KGR0x4kMAoPQSIO4XLlSVY8eqSiuYxhp98GayGjNh1bI6I4TGZB2mdrgPt29W1U//FBV5865ZbNEpEXGWrIBy02rCln4AT5eZAj+am/1gdjculVVT5/WooPgeF3NMpBuYOTBtVRrRthlGi8ywOT+HEVMXBCoL4JDzMaZPxpPdYVMSxRa3gIuk2B2bZrIUJnIJmaOI41GSteayGDJaLRUNA9tIaaJDHz66fJ6Sxx9NERm//5wYAS8BK2QhGBh3q5VVT3/30SIjeC6zBU2cpPyjymIGhrI5kbTaJ6zCPGSJ0/CCyG4odm33BK4MtSMSYOg7dkjEv5IIzKAyCA2S6ZLiPB1U1YvEwdjg7klskpzqfaCgLPNsDUQV42gNLugSpSmIDLJ1t27K0eBzz/vPv9zX0+ehBMgyO7d3e+dc127Fj6cMELX1fSYTBuUUCvttmTOnKmqGzfCiwWhEZex2Jz75ZfhQBiCvwI1aGlFBn8On9b3iJaHbvWlNZFqiIzF6Yy4cRq9TLj2x4+HF+lIKzJApolAqXah3hIRuCBMs8QMU4OWNXPqVDhIR3qRAYQGi+b8+TzFektBwLQ1jYbIWLUOv/hC5/sLuEwyItNAod7hw8tNuzpp+emncCAIImNRvHlYf/ZZeCEI3z3xxDxZkQHiM+++W1U3b7pVk5qlBdk1nuRg2ZrRuIcSu0zyIgOcmEuXqmrvXhebVBDzcpGRwerWPHx/jTYeYn0J63J0RKaBk+RiMx2aBTmPS0Nr9IHV4C/QxqNBQpdJV2Qa2mJDBavHbIaD9YL7qXXDWUKrR87y2FfuHR7Q0pw9Gw6mk66tYCoUQX34YW2qLa3+YwiN9bL00gBqSDV44w099ywWXBkGuEkHqBP17OWxZLrAmvn44/opTaMWKXAUmy+5VLeK700vCZXUWH1ee6SH5S2TtWIzPPQTYMeS2QaWDhYOfx48WFcnWr4QxkJlJ4tN9BAVj1u9iJYlwwPOctxLw5rh2sOim+imliMyfTBoiMVJb/pOEKHm5Fv0r3kSYbnhArG5Osf8bGnZojFoiQxCT42XZWgtke5hQ2gnxoDKF5lY+ua39P18LFykbSsEQVlisDY1PL01JtjxuxOar5IMrlfOh+QYCB5+WDMTWJ7IOGXz8KFeYkByWFkqNKwZ4qMT4oF2Ar+OMwTNjE8JMT8CwNLn5JNPwsE4XGScstAUGWJ71sGdky7Qw3KcMGjcRcYpC63tW8FyUV4b49aMi4xTFpoD0VLPZ5bCuDXjIuOUBVk7zS14SqnFMmzNuMg4ZcFTW7PyuYS4DGhZMyMaJz2F7ZQHF/rt2+GFMNQ20dJRAlp1M5yPiPoht2Sc8tBst2gqyktAw5pBwKjNicBFxikPbZeplCwTaMVmIqwlFxmnTO7cCQcKWB5itQ4CzDQDSXDLIqqMPSbjlAkXOtu3kmaWpplTXRIa7Rc0kJLt24JbMk6Z8MSW2Le5C25WDTFLCRMnpWH/+wG4yDjlorXhGZRQlNeGmJV03GpggZ6LjFMumOpa86FLHJBGbEY6C4c1s2VEiouMUzZaAeBSivLaIMDSQ8fJMm2xZjzw65QNNSwUoElTUlFeG6wMgsDN1EgJtkwRdEvGKRtufo3BUohZacFfwF366KPwQogtxYouMk75aLlMJcZlAEtDMtu0pcrYRcYpH63q39IyTG2uXpWx+LAkt2zP4iLjlA9l9Bou07594aBQmNWbMhuHK8aeYFsyWC4yzjzQcJk0p/JJwByeEyfS7ZpBitwrfp3F8PXX4UCQOeyLhcDQIjFAHDZCtfXA9LiLjDMPuHkkYzO4ZJqjPyXBoiHlPLZYD0GPyFi5yDjzIWMGpUiuX6+tmpgeMASG2E6EOHkxnjMvmJg3YkTkRrCS3nln3FO/FKh1OXu2qo4f786icQ4Q2i2ZpC5cZJx5QYXrzk66QVPcXOwkyZ9LggrhZjAVruKErJSLjDM/qMy9d296XQsxGFyDpQlMYjwm48wPAptYH2ObAxGV8+freIULzGTcknHmDSY/MZr33quP+xoFERNS1NTbaKTDF4SLjLNccKdwrYg3SA/fXjAuMo7jiOIxGcdxRHGRcRxHFBcZx3FEcZFxHEcUFxnHcURxkXEcRxQXGcdxRHGRcRxHFBcZx3FEcZFxHEeQqvp/99lX3yvDAOMAAAAASUVORK5CYII=;" vertex="1" parent="1">
          <mxGeometry x="300" y="169.99999999999997" width="101" height="97.41" as="geometry" />
        </mxCell>
      </root>
    </mxGraphModel>
  </diagram>
</mxfile>
